<svg width="123" height="20" viewBox="0 0 123 20" fill="none" xmlns="http://www.w3.org/2000/svg">
<g clip-path="url(#clip0_65704_796)">
<path d="M8.67835 15.6237C8.21343 15.6237 7.82379 15.2747 7.79723 14.8234C7.73524 14.2657 8.13816 14.138 8.44368 13.9549C8.90859 13.7336 10.2192 12.7204 10.3565 12.3159C10.3875 12.2265 10.4052 11.9796 10.2325 11.8987C10.0952 11.8093 9.65245 11.8434 9.30266 12.0179C9.22296 12.0563 9.13883 12.1073 9.04585 12.1584C8.62521 12.3926 8.04518 12.7119 7.37216 12.8353C5.94643 13.1035 3.90968 12.7842 3.82112 12.7715C1.9659 12.4947 1.15563 10.4343 1.0715 10.2002C0.907674 9.75741 1.1512 9.2721 1.61168 9.11459C2.07217 8.95707 2.57693 9.19121 2.74076 9.6297C2.86916 9.97453 3.40049 10.9835 4.10007 11.0856C4.60926 11.1665 6.11026 11.3326 7.03123 11.158C7.41644 11.0856 7.82822 10.8558 8.1603 10.6727C8.27542 10.6088 8.37726 10.5535 8.47467 10.5067C9.2451 10.115 10.3875 9.95324 11.211 10.4769C12.0479 11.0048 12.2205 12.1244 12.0744 12.7119C12.0213 12.9205 11.8663 13.5505 10.5203 14.6105C9.70115 15.2576 9.09898 15.5939 8.72705 15.6152H8.67392V15.6237H8.67835Z" fill="white"/>
<path d="M21.0583 16.9263L20.0754 15.5087C20.8281 15.0276 21.6118 14.4316 21.7535 14.2358C21.8642 14.0655 21.966 13.5461 21.9881 13.1715V7.92247C21.7712 7.98632 21.5188 8.12255 21.2664 8.38224C20.5447 9.12723 20.8059 10.2341 20.8059 10.2469C20.8679 10.498 20.8059 10.7662 20.6421 10.9706C20.4783 11.1749 20.2259 11.2984 19.9602 11.3026C19.0924 11.3154 18.3043 11.6943 17.5648 12.4648C16.9449 13.1034 17.0291 14.3209 17.1132 14.7381C17.1619 14.9893 17.0955 15.249 16.9272 15.4448C16.759 15.6406 16.5066 15.7556 16.2454 15.7556H6.48221V14.0527H15.289C15.289 13.2481 15.4661 12.1328 16.2675 11.3069C17.0866 10.4597 17.9987 9.92332 18.9906 9.71046C18.9994 9.00803 19.1854 8.04167 19.9691 7.22855C21.1247 6.0323 22.5195 6.07062 23.1571 6.27921C23.5157 6.39841 23.7548 6.72196 23.7548 7.08381V13.2396C23.7459 13.444 23.6662 14.4997 23.2456 15.1468C22.8648 15.73 21.5852 16.5815 21.0539 16.922H21.0583V16.9263Z" fill="white"/>
<path d="M18.7204 11.4006H18.7116L14.7886 11.3623C14.0138 11.3325 13.1238 11.2218 12.1763 10.6003C11.1313 9.91486 10.7417 8.39932 10.6753 8.10132C10.569 7.64155 10.8745 7.18604 11.3527 7.08813C11.8309 6.99021 12.3002 7.2797 12.4065 7.73521C12.5128 8.18647 12.8271 8.96552 13.1769 9.19115C13.7835 9.58706 14.3281 9.63815 14.8373 9.65943L18.7337 9.69349C19.8584 9.69349 19.6149 10.0851 19.6104 10.5534C19.6104 11.0217 19.2119 11.3963 18.7249 11.3963H18.7204V11.4006Z" fill="white"/>
<path d="M16.3649 11.4942C16.1745 11.4942 16.2232 11.111 16.0638 10.9918C15.6786 10.7066 15.3642 10.4938 15.6609 10.1234C15.8513 9.88074 16.3826 9.13148 16.5287 8.56529C16.7767 7.58615 16.7678 7.3818 16.6128 6.99015C16.604 6.9646 16.3605 6.36435 15.7583 6.48355C15.5458 6.52612 15.4041 6.77303 15.3952 6.88798C15.3864 6.96886 15.4041 7.11786 15.4174 7.25835C15.4616 7.66277 15.5192 8.22046 15.2314 8.73983C14.9436 9.2592 14.089 10.1191 13.8322 10.3703C13.4913 10.7066 12.929 10.7109 12.5792 10.3831C12.2294 10.0553 12.225 9.51463 12.5659 9.17831C13.0042 8.74834 13.5533 8.14383 13.6684 7.93949C13.7038 7.86286 13.6684 7.5904 13.6551 7.42863C13.633 7.21577 13.6064 6.97312 13.633 6.73046C13.7083 5.93864 14.3414 5.02761 15.3996 4.81475C16.8342 4.52953 17.8969 5.43204 18.2732 6.38989C18.6186 7.27963 18.5256 7.88414 18.2511 8.96971C17.9899 9.99142 17.1619 11.0429 17.0689 11.1621C16.8962 11.3792 16.6306 11.4942 16.3693 11.4942H16.3649Z" fill="white"/>
<path d="M1.54971 2.08179H0V3.78464H1.54971V2.08179Z" fill="white"/>
<path d="M13.7702 2.08179H12.1895V3.78464H13.7702V2.08179Z" fill="white"/>
<path d="M4.1045 6.01123C4.66938 6.01123 5.12731 5.57095 5.12731 5.02783C5.12731 4.48472 4.66938 4.04443 4.1045 4.04443C3.53962 4.04443 3.0817 4.48472 3.0817 5.02783C3.0817 5.57095 3.53962 6.01123 4.1045 6.01123Z" fill="white"/>
<path d="M9.68788 6.01123C10.2528 6.01123 10.7107 5.57095 10.7107 5.02783C10.7107 4.48472 10.2528 4.04443 9.68788 4.04443C9.123 4.04443 8.66507 4.48472 8.66507 5.02783C8.66507 5.57095 9.123 6.01123 9.68788 6.01123Z" fill="white"/>
<path d="M9.01486 9.851C8.18245 9.851 7.48729 9.55726 6.9781 9.20392C6.14126 9.77012 4.77752 10.1788 3.03742 9.45083C1.35045 8.74415 0.26123 7.08387 0.26123 5.21073C0.26123 2.33716 3.23667 0 6.8984 0C10.5601 0 13.5356 2.33716 13.5356 5.21073C13.5356 6.90932 12.557 8.48446 10.9852 9.31886C10.2723 9.69774 9.60818 9.84674 9.01486 9.84674V9.851ZM6.9781 7.18604H6.98696C7.26591 7.18604 7.536 7.31375 7.69982 7.53086C7.84594 7.70966 8.6695 8.61218 10.1262 7.83312C11.1357 7.29672 11.7645 6.29204 11.7645 5.21073C11.7645 3.27373 9.58161 1.70285 6.8984 1.70285C4.2152 1.70285 2.03232 3.27799 2.03232 5.21073C2.03232 6.18561 2.56365 7.39464 3.74586 7.88846C5.38412 8.57386 6.18111 7.63729 6.26966 7.53086C6.43792 7.31801 6.70358 7.18604 6.98253 7.18604H6.9781Z" fill="white"/>
<path d="M14.7001 20C12.8891 20 10.9453 19.9404 8.98386 19.5104C8.90416 19.4934 1.04051 17.5436 0.987373 9.70198C0.982946 9.01658 1.04493 8.35247 1.17334 7.73519L2.90901 8.06724C2.80274 8.57384 2.75404 9.11875 2.75847 9.68921C2.80274 16.1941 9.31594 17.8331 9.37793 17.8501C11.4147 18.2971 13.5489 18.2971 14.7001 18.2971C15.6609 18.2971 18.2157 18.2971 19.9159 17.8586C21.0184 17.5734 26.531 15.8322 26.5708 9.68921C26.5797 8.34396 26.2786 7.25839 25.796 6.38568C25.8092 6.56873 25.8092 6.75605 25.7871 6.94336C25.4285 10.1532 23.1482 10.8386 23.0552 10.8684L22.5504 9.23795C22.5859 9.22518 23.7991 8.79947 24.0293 6.76456C24.2153 5.08725 20.9476 3.29074 19.7875 2.79692C19.389 2.62663 19.1809 2.20517 19.2916 1.80075C19.4023 1.39632 19.7964 1.12812 20.2392 1.17069C20.3189 1.17921 28.3906 2.06469 28.3419 9.70198C28.2976 17.0796 21.7003 19.1613 20.3764 19.5019C18.6673 19.9446 16.4446 20 14.7001 20Z" fill="white"/>
<path d="M6.98254 7.15199C6.92055 7.15199 6.85856 7.14773 6.801 7.13496C5.75605 6.9221 5.5391 6.41976 5.54352 6.03662C5.54352 5.87485 5.61879 5.05322 6.97368 5.05322C8.32857 5.05322 8.42598 5.87911 8.42598 6.04513C8.42598 6.36868 8.26215 6.93913 7.15079 7.13922C7.09766 7.14773 7.0401 7.15199 6.98696 7.15199H6.98254Z" fill="#2D9D00"/>
<path d="M37.6389 16.1557H35V3.60571H37.6389V9.07187H37.6743C38.1968 8.42478 39.4321 6.95182 39.9369 6.37285L42.3854 3.60571H45.6575L40.1406 9.46778L46.18 16.1557H42.6245L39.7465 12.7756C39.2594 12.2179 38.3606 11.0685 37.6699 10.1149H37.6345V16.1557H37.6389Z" fill="white"/>
<path d="M47.4861 5.13416V2.83105H49.9922V5.13416H47.4861ZM47.4861 6.89662H49.9922V16.1559H47.4861V6.89662Z" fill="white"/>
<path d="M61.6327 13.3844C61.6327 14.355 61.6504 15.381 61.7257 16.1515H59.4454C59.41 15.7215 59.3879 15.1426 59.3879 14.5338H59.3524C58.6617 15.7215 57.6301 16.3686 56.1379 16.3686C53.5565 16.3686 51.967 14.4614 51.967 11.5325C51.967 8.60361 53.6318 6.67939 56.1556 6.67939C57.5946 6.67939 58.5864 7.32647 59.1842 8.33541H59.2196C59.1842 7.63299 59.162 6.66236 59.162 5.76411V2.56274H61.6327V13.3886V13.3844ZM54.5483 11.5325C54.5483 13.2567 55.4295 14.5168 56.8286 14.5168C58.2278 14.5168 59.2019 13.2396 59.2019 11.5495C59.2019 9.85946 58.2676 8.52698 56.8065 8.52698C55.3453 8.52698 54.5439 9.80412 54.5439 11.5283L54.5483 11.5325Z" fill="white"/>
<path d="M71.3384 5.88761C70.3111 5.49169 69.4876 5.34695 68.6817 5.34695C67.3003 5.34695 66.4192 5.90464 66.4192 6.76883C66.4192 7.54363 66.8486 8.02894 68.7747 8.69306C71.2055 9.51894 72.2328 10.6003 72.2328 12.4521C72.2328 14.8616 70.3244 16.3729 67.3136 16.3729C66.0605 16.3729 64.9403 16.1941 63.8555 15.8323L64.099 13.6186C65.2192 14.1379 66.2509 14.338 67.1674 14.338C68.5489 14.338 69.5407 13.7803 69.5407 12.7756C69.5407 11.822 68.9961 11.3197 67.0169 10.6173C64.6968 9.80843 63.705 8.79949 63.705 7.02C63.705 4.78927 65.5956 3.38867 68.3806 3.38867C69.5407 3.38867 70.5104 3.51639 71.542 3.83993L71.3384 5.88761Z" fill="#2D9D00"/>
<path d="M72.6533 8.67595V6.89647H74.544V4.95522L76.8995 4.18042V6.89647H79.2019V8.67595H76.8995V12.2903C76.8995 13.6909 77.1785 14.3209 78.3961 14.3209C78.6972 14.3209 79.0337 14.2656 79.3126 14.1762L79.3702 16.028C78.9009 16.1898 78.2854 16.2622 77.6478 16.2622C75.4428 16.2622 74.5041 15.2192 74.5041 12.7756V8.67595H72.6533Z" fill="#2D9D00"/>
<path d="M81.407 7.3989C82.3811 6.91359 83.7271 6.67944 84.8651 6.67944C87.8582 6.67944 89.036 8.15241 89.036 10.4555C89.036 11.1579 89.0006 12.5032 89.0006 13.2056C89.0006 14.304 89.0758 15.5428 89.129 16.1558H86.9417C86.9239 16.0111 86.9062 15.6875 86.9062 15.4193C86.9062 15.2022 86.9239 14.8957 86.9417 14.6105H86.9062C86.2509 15.6535 85.206 16.3346 83.5943 16.3346C81.7258 16.3346 80.3798 15.2576 80.3798 13.4568C80.3798 11.5155 82.1553 10.4342 85.3344 10.4342C85.7285 10.4342 86.2509 10.4513 86.6981 10.4896C86.6981 9.06769 86.0074 8.4419 84.4356 8.4419C83.426 8.4419 82.3412 8.78247 81.5 9.26778L81.407 7.3989ZM85.9144 11.8561C83.9308 11.8561 82.846 12.252 82.846 13.3291C82.846 14.1379 83.3906 14.5892 84.3426 14.5892C85.6532 14.5892 86.738 13.7974 86.738 11.8944C86.3838 11.8604 86.1978 11.8604 85.9144 11.8604V11.8561Z" fill="#2D9D00"/>
<path d="M93.6851 8.65901C94.1899 7.43721 95.0887 6.67944 96.4524 6.67944C96.7535 6.67944 97.0148 6.69647 97.276 6.78587L97.2184 8.85484C96.9395 8.76544 96.6782 8.73138 96.3594 8.73138C94.6769 8.73138 93.8533 9.97021 93.8533 12.3797V16.1558H91.3118V9.64666C91.3118 8.67604 91.2941 7.6671 91.2188 6.89656H93.5744C93.6098 7.3095 93.6497 8.15667 93.6497 8.65901H93.6851Z" fill="#2D9D00"/>
<path d="M97.98 8.67595V6.89647H99.8706V4.95522L102.226 4.18042V6.89647H104.529V8.67595H102.226V12.2903C102.226 13.6909 102.505 14.3209 103.723 14.3209C104.024 14.3209 104.36 14.2656 104.639 14.1762L104.697 16.028C104.228 16.1898 103.612 16.2622 102.974 16.2622C100.769 16.2622 99.8308 15.2192 99.8308 12.7756V8.67595H97.98Z" fill="#2D9D00"/>
<path d="M108.053 12.2008C108.089 13.6227 109.288 14.538 111.029 14.538C112.096 14.538 113.03 14.2698 113.831 13.7845L113.867 15.7641C113.043 16.1429 111.941 16.3771 110.723 16.3771C107.562 16.3771 105.485 14.5976 105.485 11.4856C105.485 8.69722 107.411 6.68359 110.311 6.68359C113.211 6.68359 114.54 8.28427 114.54 11.6304C114.54 11.7751 114.522 12.0816 114.504 12.2051H108.053V12.2008ZM112.242 10.5448C112.242 9.03353 111.458 8.38645 110.223 8.38645C109.12 8.38645 108.146 9.1059 108.018 10.5448H112.246H112.242Z" fill="#2D9D00"/>
<path d="M118.813 8.65901C119.317 7.43721 120.216 6.67944 121.58 6.67944C121.881 6.67944 122.142 6.69647 122.403 6.78587L122.346 8.85484C122.067 8.76544 121.801 8.73138 121.487 8.73138C119.804 8.73138 118.981 9.97021 118.981 12.3797V16.1558H116.439V9.64666C116.439 8.67604 116.422 7.6671 116.346 6.89656H118.702C118.737 7.3095 118.777 8.15667 118.777 8.65901H118.813Z" fill="#2D9D00"/>
</g>
<defs>
<clipPath id="clip0_65704_796">
<rect width="122.5" height="20" fill="white"/>
</clipPath>
</defs>
</svg>
