<svg width="170" height="52" viewBox="0 0 170 52" fill="none" xmlns="http://www.w3.org/2000/svg">
<g clip-path="url(#clip0_66465_132528)">
<path d="M2.27051 9.82056H167.729V41.1731H2.27051V9.82056Z" fill="white" stroke="white" stroke-width="15.2201" stroke-miterlimit="3.864"/>
<path d="M2.28418 34.4198H167.729V9.82056H2.28418V34.4198Z" fill="#0066B4"/>
<path d="M139.9 15.8065H135.453V17.4111H136.292C136.83 17.4111 137.009 17.6483 137.009 18.2902V26.5225C137.009 27.1783 136.83 27.4155 136.292 27.4155H135.453V29.0201H140.933V27.4155H140.616C140.079 27.4155 139.9 27.1922 139.9 26.5225V25.5737L141.112 24.6528L142.613 26.8434C142.668 26.9132 142.751 27.0946 142.751 27.1504C142.751 27.3318 142.599 27.4155 142.241 27.4155H141.759V29.0201H147.391V27.4294H146.992C146.661 27.4294 146.51 27.3178 145.973 26.5783L143.412 22.9366L144.94 21.7645C145.573 21.304 145.945 21.1645 146.647 21.1645H147.391V19.5599H141.387V21.1645H142.31C142.668 21.1645 142.751 21.2064 142.751 21.4157C142.751 21.4994 142.654 21.6668 142.503 21.7645L139.9 23.704V15.8065ZM127.273 19.5599H123.032V21.1645H123.817C124.34 21.1645 124.519 21.4157 124.519 22.0575V26.5225C124.519 27.1783 124.34 27.4155 123.817 27.4155H123.032V29.0201H128.609V27.4155H128.127C127.59 27.4155 127.411 27.1783 127.411 26.5225V23.5226C127.411 21.8761 127.989 21.1506 129.256 21.1506C130.275 21.1506 130.661 21.6808 130.661 23.0482V26.5225C130.661 27.1783 130.482 27.4155 129.958 27.4155H129.435V29.0201H135.095V27.4155H134.282C133.731 27.4155 133.552 27.1783 133.552 26.5225V22.0854C133.552 20.3134 132.396 19.2669 130.468 19.2669C129.132 19.2669 128.347 19.6855 127.218 20.9971L127.273 19.5599ZM121.38 25.5318V26.662C121.38 27.3178 121.27 27.555 120.925 27.555C120.65 27.555 120.54 27.3736 120.54 26.8713V22.4761C120.54 20.1738 119.287 19.2669 116.175 19.2669C113.613 19.2669 112.223 20.1599 112.223 21.8064C112.223 22.7552 112.911 23.4668 113.806 23.4668C114.646 23.4668 115.238 22.8668 115.238 22.0575C115.238 21.5273 114.949 21.1924 114.343 20.9273C114.729 20.732 114.949 20.6901 115.472 20.6901C116.877 20.6901 117.689 21.2343 117.689 22.197C117.689 23.0203 117.276 23.3691 115.872 23.69L115.472 23.7598L115.101 23.8435L114.729 23.9412C114.219 24.0668 113.793 24.1784 113.476 24.304C112.443 24.6528 111.878 25.5318 111.878 26.7318C111.878 28.3643 112.953 29.355 114.715 29.355C115.941 29.355 116.96 28.8527 117.744 27.9038C118.171 28.9224 118.901 29.355 120.223 29.355C121.903 29.355 122.688 28.5038 122.688 26.662V25.5318H121.38ZM117.648 26.062C117.648 26.8155 116.808 27.5132 115.899 27.5132C115.225 27.5132 114.784 27.0806 114.784 26.3969C114.784 25.7272 115.046 25.476 116.037 25.1551C116.34 25.0714 116.533 24.9877 117.648 24.597V26.062ZM97.3375 15.8065V17.4251H98.3564C99.1413 17.4251 99.4167 17.6762 99.4167 18.3599V26.4667C99.4167 27.1364 99.1413 27.3876 98.3564 27.3876H97.3375V29.0201H106.247C109.193 29.0201 111.039 27.6108 111.039 25.3644C111.039 23.6063 110.033 22.518 108.037 22.0854C109.923 21.4157 110.68 20.5506 110.68 19.1413C110.68 16.9646 109.111 15.8065 106.178 15.8065H97.3375ZM102.639 21.3878V17.5088H104.828C106.632 17.5088 107.293 18.0251 107.293 19.4204C107.293 20.7878 106.55 21.3878 104.801 21.3878H102.639ZM102.639 27.3876V23.09H105.159C106.715 23.09 107.513 23.8296 107.513 25.2109C107.513 26.7178 106.756 27.3876 105.007 27.3876H102.639ZM91.2925 25.4342H96.9795V22.9505H91.2925V25.4342ZM89.1031 25.5318V26.662C89.1031 27.3178 88.9791 27.555 88.6487 27.555C88.3733 27.555 88.2631 27.3736 88.2631 26.8713V22.4761C88.2631 20.1738 87.0101 19.2669 83.8981 19.2669C81.3369 19.2669 79.9461 20.1599 79.9461 21.8064C79.9461 22.7552 80.6346 23.4668 81.5296 23.4668C82.3696 23.4668 82.9617 22.8668 82.9617 22.0575C82.9617 21.5273 82.6726 21.1924 82.0667 20.9273C82.4522 20.732 82.6725 20.6901 83.1958 20.6901C84.6003 20.6901 85.4128 21.2343 85.4128 22.197C85.4128 23.0203 84.9997 23.3691 83.5814 23.69L83.1958 23.7598L82.824 23.8435L82.4522 23.9412C81.9427 24.0668 81.5159 24.1784 81.1992 24.304C80.1664 24.6528 79.6019 25.5318 79.6019 26.7318C79.6019 28.3643 80.6759 29.355 82.4385 29.355C83.664 29.355 84.6829 28.8527 85.4678 27.9038C85.8947 28.9224 86.6107 29.355 87.9464 29.355C89.6263 29.355 90.4112 28.5038 90.4112 26.662V25.5318H89.1031ZM85.3714 26.062C85.3714 26.8155 84.5315 27.5132 83.6227 27.5132C82.9342 27.5132 82.5073 27.0806 82.5073 26.3969C82.5073 25.7272 82.7689 25.476 83.7604 25.1551C84.0633 25.0714 84.2561 24.9877 85.3714 24.597V26.062ZM77.3436 15.8065H72.8546V17.4111H73.6946C74.2178 17.4111 74.3968 17.6483 74.3968 18.2902V20.6203C73.488 19.6018 72.7858 19.2669 71.6979 19.2669C69.2882 19.2669 67.6083 21.4436 67.6083 24.5551C67.6083 27.4573 69.2056 29.355 71.6566 29.355C72.8822 29.355 73.846 28.8945 74.6034 27.9318V29.0201H78.8307V27.4155H78.0459C77.5226 27.4155 77.3436 27.1783 77.3436 26.5225V15.8065ZM72.6756 21.1924C73.8874 21.1924 74.5896 22.3645 74.5896 24.3458C74.5896 26.3551 73.8047 27.6666 72.5792 27.6666C71.3399 27.6666 70.6927 26.5644 70.6927 24.5133C70.6927 22.4342 71.4363 21.1924 72.6756 21.1924ZM62.7613 19.5599H58.2861V21.1645H59.1673C59.6906 21.1645 59.8696 21.4157 59.8696 22.0575V26.5225C59.8696 27.1783 59.6906 27.4155 59.1673 27.4155H58.2861V29.0201H64.5789V27.4155H63.4498C62.9403 27.4155 62.7613 27.1783 62.7613 26.5225V24.1644C62.7613 22.1273 63.5049 20.718 64.5789 20.718C64.1934 21.2343 64.0694 21.4994 64.0694 21.8622C64.0694 22.6714 64.6753 23.2854 65.4602 23.2854C66.4654 23.2854 67.085 22.6017 67.085 21.4715C67.085 20.2157 66.2864 19.3506 65.1435 19.3506C64.152 19.3506 63.6013 19.6855 62.6649 20.9692L62.7613 19.5599ZM56.6888 25.5318V26.662C56.6888 27.3178 56.5648 27.555 56.2344 27.555C55.959 27.555 55.8488 27.3736 55.8488 26.8713V22.4761C55.8488 20.1738 54.5958 19.2669 51.4838 19.2669C48.9226 19.2669 47.5318 20.1599 47.5318 21.8064C47.5318 22.7552 48.2203 23.4668 49.1153 23.4668C49.9553 23.4668 50.5474 22.8668 50.5474 22.0575C50.5474 21.5273 50.2582 21.1924 49.6524 20.9273C50.0379 20.732 50.2582 20.6901 50.7815 20.6901C52.186 20.6901 52.9984 21.2343 52.9984 22.197C52.9984 23.0203 52.5853 23.3691 51.1808 23.69L50.7815 23.7598L50.4097 23.8435L50.0379 23.9412C49.5284 24.0668 49.1016 24.1784 48.7849 24.304C47.7521 24.6528 47.1875 25.5318 47.1875 26.7318C47.1875 28.3643 48.2616 29.355 50.0241 29.355C51.2497 29.355 52.2686 28.8527 53.0535 27.9038C53.4804 28.9224 54.2102 29.355 55.5321 29.355C57.212 29.355 57.9969 28.5038 57.9969 26.662V25.5318H56.6888ZM52.9571 26.062C52.9571 26.8155 52.1172 27.5132 51.2084 27.5132C50.5336 27.5132 50.093 27.0806 50.093 26.3969C50.093 25.7272 50.3546 25.476 51.346 25.1551C51.649 25.0714 51.8418 24.9877 52.9571 24.597V26.062ZM39.1459 19.5599H34.7533V21.1645H35.552C36.0752 21.1645 36.2543 21.4157 36.2543 22.0575V30.4991C36.2543 31.1549 36.0752 31.3921 35.552 31.3921H34.7533V32.9967H40.7846V31.3921H39.8482C39.3249 31.3921 39.1459 31.1549 39.1459 30.4991V28.1829C39.9033 28.9922 40.7295 29.355 41.8448 29.355C44.4886 29.355 45.9345 27.4573 45.9345 23.997C45.9345 21.0529 44.4886 19.2669 42.0789 19.2669C40.7845 19.2669 39.9033 19.6994 39.1046 20.718L39.1459 19.5599ZM41.0186 21.1366C42.2028 21.1366 42.8363 22.2249 42.8363 24.2063C42.8363 26.383 42.2028 27.555 40.9911 27.555C39.738 27.555 39.1046 26.5225 39.1046 24.4156C39.1046 22.2947 39.7931 21.1366 41.0186 21.1366ZM33.5967 15.8065H32.0544L31.779 16.6995C30.7463 15.8065 29.5345 15.3879 27.9648 15.3879C24.7151 15.3879 22.6634 17.0902 22.6634 19.7971C22.6634 20.7878 22.925 21.5831 23.4483 22.2249C24.0128 22.8947 24.7977 23.2714 26.5189 23.6621L27.1799 23.8296L27.8271 23.983L28.488 24.1365C29.2316 24.304 29.8237 24.4574 30.2368 24.6109C30.884 24.8342 31.1732 25.2109 31.1732 25.8248C31.1732 26.8992 30.1955 27.5829 28.6808 27.5829C27.2763 27.5829 25.8718 26.9829 25.2246 26.1039C24.8941 25.6714 24.7151 25.197 24.4672 24.1226H22.6221V29.0201H24.1643L24.5774 27.9457C25.7891 28.9782 27.1386 29.4387 28.9838 29.4387C32.1921 29.4387 34.1199 27.7504 34.1199 24.9737C34.1199 23.3551 33.4177 22.2389 32.0269 21.625C31.1869 21.2761 30.6774 21.1506 28.1025 20.5924C26.0645 20.1738 25.4174 19.7832 25.4174 18.9181C25.4174 17.8576 26.4776 17.1042 27.9235 17.1042C30.0991 17.1042 31.5036 18.3739 31.779 20.5506H33.5967V15.8065Z" fill="white"/>
<path d="M2.27051 41.1731H167.729V36.3733H2.27051V41.1731Z" fill="#F46F21"/>
</g>
<defs>
<clipPath id="clip0_66465_132528">
<rect width="170" height="36" fill="white" transform="translate(0 7.5)"/>
</clipPath>
</defs>
</svg>
