<svg width="157" height="48" viewBox="0 0 157 48" fill="none" xmlns="http://www.w3.org/2000/svg">
<path d="M36.1285 8.3855V8.38614C36.1285 21.238 25.6787 31.6927 12.8336 31.6927H12.833V37.9561H12.8336C29.1305 37.9561 42.3891 24.6917 42.3891 8.38614V8.3855H36.1285Z" fill="#0C66B2"/>
<path d="M84.8335 33.1618H83.9951V37.7565H81.6255V22.6511H83.9951V31.1059H84.8335L87.7481 27.0782H90.4741L86.7838 32.0288L90.5997 37.7565H87.7692L84.8335 33.1618ZM69.8841 37.7565V27.0782H71.8341L72.0857 28.1898H72.1486C72.8614 27.5397 73.8049 26.8681 75.2729 26.8681C77.4117 26.8681 78.4808 28.232 78.4808 30.057V37.7565H76.1115V30.7072C76.1115 29.4488 75.5663 28.987 74.5809 28.987C73.6166 28.987 72.7984 29.5326 72.2538 30.12V37.7565H69.8841ZM62.168 36.0572C63.2582 36.0572 64.0345 35.4486 64.3698 34.9872V33.3508C63.7827 33.3294 63.1534 33.3086 62.5877 33.3086C61.0148 33.3086 60.6169 33.8123 60.6169 34.6725C60.6169 35.5954 61.057 36.0572 62.168 36.0572ZM61.4342 37.9663C59.3586 37.9663 58.2473 36.7706 58.2473 34.7985C58.2473 32.8475 59.4005 31.6096 62.1894 31.6096C62.9648 31.6096 63.6986 31.6307 64.3698 31.6515V30.6445C64.3698 29.5118 63.8035 28.9033 62.5244 28.9033C61.4134 28.9033 60.1972 29.3225 59.4845 29.868L58.7293 28.106C59.6731 27.3721 61.3086 26.8681 62.8181 26.8681C65.4182 26.8681 66.7184 28.043 66.7184 30.3717V37.7565H64.7262L64.4747 36.6654H64.4117C64.0972 37.0431 63.1748 37.9663 61.4342 37.9663ZM48.5808 31.2527V35.6376H50.9086C52.8372 35.6376 53.6135 34.8823 53.6135 33.3716C53.6135 31.9662 52.8372 31.2527 51.202 31.2527H48.5808ZM48.5808 25.1269V29.2806H50.5519C52.4178 29.2806 52.9423 28.4834 52.9423 27.2458C52.9423 25.8819 52.5019 25.1269 50.4052 25.1269H48.5808ZM46.1697 23.071H50.5727C53.508 23.071 55.2486 23.9309 55.2486 26.9522C55.2486 28.2739 54.8082 29.5326 53.6551 29.994C55.4794 30.4977 56.0247 32.0921 56.0247 33.5398C56.0247 36.5605 54.2422 37.7565 51.0134 37.7565H46.1697V23.071ZM15.2437 16.5672V20.9521H17.5715C19.5 20.9521 20.2761 20.1971 20.2761 18.6861C20.2761 17.2806 19.5 16.5672 17.8649 16.5672H15.2437ZM15.2437 10.4417V14.5951H17.2148C19.081 14.5951 19.6052 13.7982 19.6052 12.5603C19.6052 11.1967 19.1648 10.4417 17.0681 10.4417H15.2437ZM12.8325 8.3855H17.2356C20.1709 8.3855 21.9115 9.24572 21.9115 12.2667C21.9115 13.5884 21.4711 14.8474 20.3179 15.3085C22.142 15.8122 22.6872 17.4066 22.6872 18.8543C22.6872 21.875 20.9054 23.071 17.676 23.071H12.8325V8.3855ZM2.41118 16.5672V20.9521H4.73893C6.66813 20.9521 7.44383 20.1971 7.44383 18.6861C7.44383 17.2806 6.66813 16.5672 5.03266 16.5672H2.41118ZM2.41118 10.4417V14.5951H4.38256C6.24879 14.5951 6.77296 13.7982 6.77296 12.5603C6.77296 11.1967 6.33253 10.4417 4.23586 10.4417H2.41118ZM0 8.3855H4.40334C7.339 8.3855 9.0793 9.24572 9.0793 12.2667C9.0793 13.5884 8.63919 14.8474 7.4857 15.3085C9.31007 15.8122 9.85501 17.4066 9.85501 18.8543C9.85501 21.875 8.07284 23.071 4.84377 23.071H0V8.3855Z" fill="black"/>
<path d="M98.562 31.4399H100.468C101.733 31.4399 102.482 31.8106 102.482 33.1118C102.482 33.5547 102.311 34.2416 101.796 34.4222C102.582 34.6392 102.816 35.3262 102.816 35.9497C102.816 37.2511 102.04 37.7662 100.649 37.7662H98.562V31.4399ZM99.6008 32.3256V34.115H100.45C101.254 34.115 101.489 33.7715 101.489 33.2384C101.489 32.6509 101.29 32.3256 100.387 32.3256H99.6008ZM99.6008 34.9646V36.8534H100.612C101.435 36.8534 101.778 36.5281 101.778 35.8774C101.778 35.2718 101.444 34.9646 100.739 34.9646H99.6008Z" fill="#0C66B2"/>
<path d="M107.432 35.8413H104.749C104.758 36.3022 104.812 36.501 104.984 36.6997C105.137 36.8805 105.399 36.98 105.724 36.98C106.221 36.98 106.682 36.7993 106.962 36.5371L107.35 37.2691C106.935 37.6307 106.366 37.8565 105.616 37.8565C104.984 37.8565 104.514 37.6487 104.207 37.3235C103.801 36.8895 103.719 36.4106 103.719 35.4706C103.719 34.5036 103.837 33.9795 104.279 33.5548C104.604 33.2747 105.02 33.0757 105.607 33.0757C106.194 33.0757 106.646 33.2564 106.944 33.5548C107.414 34.0338 107.468 34.7025 107.432 35.8413ZM104.74 35.0731H106.447C106.429 34.6032 106.393 34.341 106.23 34.1693C106.086 34.0065 105.869 33.9344 105.607 33.9344C105.345 33.9344 105.128 34.0065 104.975 34.1693C104.803 34.3591 104.758 34.5851 104.74 35.0731Z" fill="#0C66B2"/>
<path d="M108.173 33.1661H108.751L108.895 32.0183H109.745V33.1661H110.937V34.0247H109.745V36.4919C109.745 36.8082 109.898 36.9529 110.196 36.9529C110.467 36.9529 110.648 36.8896 110.819 36.8172L110.982 37.6036C110.747 37.7301 110.368 37.8206 109.934 37.8206C109.085 37.8206 108.724 37.3235 108.724 36.6094V34.0247H108.173V33.1661Z" fill="#0C66B2"/>
<path d="M111.533 33.1661H112.111L112.255 32.0183H113.104V33.1661H114.297V34.0247H113.104V36.4919C113.104 36.8082 113.258 36.9529 113.556 36.9529C113.827 36.9529 114.008 36.8896 114.179 36.8172L114.342 37.6036C114.107 37.7301 113.728 37.8206 113.294 37.8206C112.445 37.8206 112.084 37.3235 112.084 36.6094V34.0247H111.533V33.1661Z" fill="#0C66B2"/>
<path d="M118.741 35.8413H116.058C116.067 36.3022 116.121 36.501 116.293 36.6997C116.446 36.8805 116.708 36.98 117.034 36.98C117.53 36.98 117.991 36.7993 118.271 36.5371L118.66 37.2691C118.244 37.6307 117.675 37.8565 116.925 37.8565C116.293 37.8565 115.823 37.6487 115.516 37.3235C115.11 36.8895 115.028 36.4106 115.028 35.4706C115.028 34.5036 115.146 33.9795 115.588 33.5548C115.913 33.2747 116.329 33.0757 116.916 33.0757C117.503 33.0757 117.955 33.2564 118.253 33.5548C118.723 34.0338 118.777 34.7025 118.741 35.8413ZM116.049 35.0731H117.756C117.738 34.6032 117.702 34.341 117.539 34.1693C117.395 34.0065 117.178 33.9344 116.916 33.9344C116.654 33.9344 116.437 34.0065 116.284 34.1693C116.112 34.3591 116.067 34.5851 116.049 35.0731Z" fill="#0C66B2"/>
<path d="M119.86 37.7662V33.1661H120.709L120.818 33.7264H120.845C121.143 33.3559 121.568 33.0757 122.191 33.0757V34.0608C121.568 34.0427 121.143 34.2416 120.881 34.6211V37.7662H119.86Z" fill="#0C66B2"/>
<path d="M125.127 31.4399H127.033C128.298 31.4399 129.048 31.8106 129.048 33.1118C129.048 33.5547 128.876 34.2416 128.361 34.4222C129.147 34.6392 129.382 35.3262 129.382 35.9497C129.382 37.2511 128.605 37.7662 127.214 37.7662H125.127V31.4399ZM126.166 32.3256V34.115H127.015C127.819 34.115 128.054 33.7715 128.054 33.2384C128.054 32.6509 127.855 32.3256 126.952 32.3256H126.166ZM126.166 34.9646V36.8534H127.178C128 36.8534 128.343 36.5281 128.343 35.8774C128.343 35.2718 128.009 34.9646 127.304 34.9646H126.166Z" fill="#0C66B2"/>
<path d="M131.576 37.8566C130.673 37.8566 130.203 37.3415 130.203 36.4919C130.203 35.6514 130.691 35.1182 131.901 35.1182C132.235 35.1182 132.542 35.1273 132.832 35.1363V34.7026C132.832 34.2144 132.588 33.9523 132.046 33.9523C131.567 33.9523 131.043 34.1331 130.736 34.368L130.411 33.6089C130.817 33.2926 131.522 33.0756 132.172 33.0756C133.283 33.0756 133.843 33.5818 133.843 34.585V37.7663H132.994L132.886 37.2963H132.859C132.723 37.4589 132.326 37.8566 131.576 37.8566ZM131.892 37.0342C132.362 37.0342 132.696 36.772 132.832 36.5733V35.8683C132.579 35.8594 132.308 35.8502 132.073 35.8502C131.395 35.8502 131.224 36.0672 131.224 36.4377C131.224 36.8354 131.414 37.0342 131.892 37.0342Z" fill="#0C66B2"/>
<path d="M135.144 37.7662V33.1661H135.993L136.101 33.6451H136.128C136.426 33.3649 136.842 33.0757 137.465 33.0757C138.386 33.0757 138.856 33.6632 138.856 34.4495V37.7662H137.835V34.7296C137.835 34.1874 137.601 33.9886 137.176 33.9886C136.751 33.9886 136.399 34.2235 136.164 34.4765V37.7662H135.144Z" fill="#0C66B2"/>
<path d="M140.157 31.2592V37.7661H141.178V35.7871H141.548L142.804 37.7661H144.032L142.379 35.2989L143.978 33.166H142.795L141.548 34.9014H141.178V31.2592H140.157Z" fill="#0C66B2"/>
<path d="M144.411 33.1661H146.073V37.7662H145.053V34.0247H144.411V33.1661ZM145.567 31.3856C145.974 31.3856 146.218 31.6297 146.218 31.9821C146.218 32.3346 145.974 32.5877 145.567 32.5877C145.179 32.5877 144.917 32.3346 144.917 31.9821C144.917 31.6297 145.179 31.3856 145.567 31.3856Z" fill="#0C66B2"/>
<path d="M147.41 37.7662V33.1661H148.259L148.367 33.6451H148.394C148.692 33.3649 149.108 33.0757 149.731 33.0757C150.653 33.0757 151.122 33.6632 151.122 34.4495V37.7662H150.102V34.7296C150.102 34.1874 149.867 33.9886 149.442 33.9886C149.018 33.9886 148.665 34.2235 148.431 34.4765V37.7662H147.41Z" fill="#0C66B2"/>
<path d="M154.139 39.5919C153.453 39.5919 152.748 39.3749 152.342 39.0768L152.667 38.2996C152.974 38.5254 153.534 38.7243 154.031 38.7243C154.708 38.7243 154.979 38.3807 154.979 37.8024C154.979 37.5673 154.988 37.4137 155.006 37.2058H154.979C154.726 37.4861 154.329 37.721 153.778 37.721C153.308 37.721 152.911 37.5313 152.685 37.2692C152.314 36.8534 152.224 36.3925 152.224 35.3985C152.224 34.4584 152.324 33.9343 152.703 33.5457C152.992 33.2384 153.398 33.0757 153.949 33.0757C154.419 33.0757 154.817 33.2384 155.087 33.4101L155.142 33.1661H156V37.8024C156 39.0045 155.331 39.5919 154.139 39.5919ZM154.085 36.8353C154.446 36.8353 154.78 36.6636 154.979 36.4106V34.1693C154.717 34.0247 154.446 33.9434 154.13 33.9434C153.895 33.9434 153.669 34.0065 153.498 34.1963C153.299 34.4223 153.245 34.6934 153.245 35.3892C153.245 36.1033 153.299 36.3563 153.471 36.5914C153.606 36.7451 153.805 36.8353 154.085 36.8353Z" fill="#0C66B2"/>
</svg>
