<svg xmlns="http://www.w3.org/2000/svg" width="130" height="40" fill="none"><path fill="#051530" d="M0 23.83V13.67h2.24v4.54a7.5 7.5 0 0 0 4.22-4.54h2.57a8.6 8.6 0 0 1-4.36 4.9v.22c1.93 0 2.97.88 3.69 2.74l.83 2.3H6.65l-.55-1.85c-.46-1.5-1.18-2.08-2.96-2.08h-.9v3.93zM10.69 23.83V13.67h2.29v10.16zM15.25 23.83V13.67h3.64c3.74 0 5.36 1.88 5.36 4.99 0 3.86-2.5 5.17-4.87 5.17zm3.72-8.36H17.5v6.56h1.82c1.75 0 2.62-1.16 2.62-3.25 0-2.3-.95-3.31-2.96-3.31M36.06 17.05l-.12-.08V15.5h2.6v1.48l-.17.08-.32.2.32.24.81.57h1.95v-2.57a2.6 2.6 0 0 0-2.6-2.57h-2.59a2.57 2.57 0 0 0-2.6 2.57v2.57h1.95l.77-.57.33-.24zm4.79 2.93h-2.31l-1.3-.96-1.3.96h-1.46a2.9 2.9 0 0 0 2.76 1.92h3.57v1.29h4.21v-.36l.9-.89-1.87-.04c-1.42 0-2.6-.76-3.2-1.92m6.77 0v-3.2h4.78a3.6 3.6 0 0 0-2.43-2.7l-.73-.23.49-1.85.68.12a7.9 7.9 0 0 1 6.29 7.66 9.26 9.26 0 0 1-8.56 9.18c-.16 0-.36.04-.52.04h-.25l-1.05-.04h-5.15c-5.03 0-9.12-4-9.12-8.98h-.65v-4.49h-.65v-1.92h1.06A4.6 4.6 0 0 1 35.94 11h2.6a4.6 4.6 0 0 1 4.09 2.57h1.1v1.92h-.65v1.28h3.24v1.93H43.4v1.16q.26.12.65.12zm-.25 7.06h.57a2.9 2.9 0 0 0 2.6-2.9V18.7h-.98v2.32l-2.6 2.57v1.52h-10.7c1.3 1.2 3 1.93 4.91 1.93zm5.11-2.9q0 .56-.12.97a7.2 7.2 0 0 0 2.4-5.33 6 6 0 0 0-.33-1.92v.2c0 1.44-.81 2.68-1.95 3.36zm-17.84-9.3c.33 0 .65.33.65.65 0 .36-.32.64-.65.64a.64.64 0 0 1-.65-.64c0-.32.29-.64.65-.64m4.54.65c0-.32.29-.64.65-.64.33 0 .65.32.65.64 0 .36-.32.64-.65.64a.64.64 0 0 1-.65-.64M67.14 24.04c-2.68 0-4.33-1.03-4.44-3.12l1.96-.63c.03 1.4 1.1 2.05 2.59 2.05 1.4 0 2.16-.57 2.16-1.25 0-.8-1.01-1.08-2.38-1.39-2.06-.46-4.14-.97-4.14-3.17 0-1.85 1.48-3.08 4.08-3.08 2.58 0 4.15 1.22 4.23 3.07l-2.02.55c0-1.26-.84-1.9-2.23-1.9-1.23 0-1.95.5-1.95 1.18 0 .84 1.17 1.15 2.57 1.44 1.78.39 3.99.91 3.99 3.2 0 1.85-1.51 3.05-4.42 3.05M75.43 23.83v-8.3h-3.04v-1.86h8.31v1.86h-3.03v8.3zM80.27 23.83l3.52-10.16h3.26l3.52 10.16h-2.43l-.62-2h-4.2l-.62 2zm5.04-8.4-1.5 4.89h3.24l-1.5-4.9zM92 23.83V13.67h4.17c2.78 0 4.37 1.1 4.37 2.98 0 1.45-.92 2.34-2.74 2.56v.23c1.59.19 2.09.9 2.5 2.31l.62 2.08h-2.48l-.48-1.93c-.3-1.23-.9-1.6-2.06-1.6h-1.66v3.53zm2.24-5.19H96c1.4 0 2.21-.52 2.21-1.65q.01-1.62-2.15-1.61h-1.83zM104.7 23.83v-8.3h-3.04v-1.86h8.31v1.86h-3.03v8.3zM111.4 23.83V13.67h7.9v1.78h-5.63v2.42h4.89v1.65h-4.9v2.5h5.67v1.8zM121.08 23.83V13.67h4.17c2.79 0 4.38 1.1 4.38 2.98 0 1.45-.92 2.34-2.74 2.56v.23c1.58.19 2.08.9 2.49 2.31l.62 2.08h-2.47l-.49-1.93c-.3-1.23-.89-1.6-2.05-1.6h-1.67v3.53zm2.24-5.19h1.78c1.4 0 2.2-.52 2.2-1.65q.01-1.62-2.14-1.61h-1.84z"/></svg>