<svg width="130" height="40" viewBox="0 0 130 40" fill="none" xmlns="http://www.w3.org/2000/svg">
<g clip-path="url(#clip0_66465_132532)">
<path d="M1.73633 7.74048H128.264V31.2549H1.73633V7.74048Z" fill="white" stroke="white" stroke-width="15.2201" stroke-miterlimit="3.864"/>
<path d="M1.74707 26.1899H128.264V7.74048H1.74707V26.1899Z" fill="#0066B4"/>
<path d="M106.983 12.23H103.582V13.4334H104.224C104.635 13.4334 104.772 13.6113 104.772 14.0927V20.2669C104.772 20.7588 104.635 20.9367 104.224 20.9367H103.582V22.1401H107.773V20.9367H107.531C107.12 20.9367 106.983 20.7692 106.983 20.2669V19.5553L107.91 18.8646L109.057 20.5076C109.1 20.5599 109.163 20.696 109.163 20.7378C109.163 20.8739 109.047 20.9367 108.773 20.9367H108.405V22.1401H112.711V20.9471H112.406C112.153 20.9471 112.037 20.8634 111.627 20.3088L109.668 17.5775L110.837 16.6984C111.321 16.3531 111.606 16.2484 112.143 16.2484H112.711V15.045H108.12V16.2484H108.826C109.1 16.2484 109.163 16.2798 109.163 16.4368C109.163 16.4996 109.089 16.6252 108.973 16.6984L106.983 18.153V12.23ZM97.3271 15.045H94.0839V16.2484H94.6841C95.0843 16.2484 95.2212 16.4368 95.2212 16.9182V20.2669C95.2212 20.7588 95.0843 20.9367 94.6841 20.9367H94.0839V22.1401H98.3485V20.9367H97.98C97.5693 20.9367 97.4324 20.7588 97.4324 20.2669V18.017C97.4324 16.7822 97.8747 16.238 98.8435 16.238C99.6227 16.238 99.9175 16.6356 99.9175 17.6612V20.2669C99.9175 20.7588 99.7806 20.9367 99.3805 20.9367H98.9803V22.1401H103.308V20.9367H102.687C102.266 20.9367 102.129 20.7588 102.129 20.2669V16.9391C102.129 15.6101 101.244 14.8252 99.7701 14.8252C98.7487 14.8252 98.1485 15.1392 97.285 16.1229L97.3271 15.045ZM92.8204 19.5239V20.3716C92.8204 20.8634 92.7361 21.0413 92.4729 21.0413C92.2623 21.0413 92.178 20.9053 92.178 20.5286V17.2321C92.178 15.5054 91.2198 14.8252 88.84 14.8252C86.8815 14.8252 85.818 15.495 85.818 16.7298C85.818 17.4414 86.3445 17.9751 87.0289 17.9751C87.6712 17.9751 88.124 17.5251 88.124 16.9182C88.124 16.5205 87.9029 16.2694 87.4396 16.0705C87.7344 15.924 87.9029 15.8926 88.303 15.8926C89.3771 15.8926 89.9983 16.3008 89.9983 17.0228C89.9983 17.6403 89.6824 17.9019 88.6084 18.1426L88.303 18.1949L88.0187 18.2577L87.7344 18.3309C87.3448 18.4251 87.0184 18.5088 86.7762 18.603C85.9864 18.8646 85.5547 19.5239 85.5547 20.4239C85.5547 21.6483 86.376 22.3913 87.7239 22.3913C88.661 22.3913 89.4402 22.0146 90.0405 21.3029C90.3669 22.0669 90.925 22.3913 91.9358 22.3913C93.2205 22.3913 93.8207 21.7529 93.8207 20.3716V19.5239H92.8204ZM89.9667 19.9216C89.9667 20.4867 89.3244 21.0099 88.6294 21.0099C88.1135 21.0099 87.7765 20.6855 87.7765 20.1727C87.7765 19.6704 87.9766 19.4821 88.7347 19.2414C88.9664 19.1786 89.1138 19.1158 89.9667 18.8228V19.9216ZM74.4351 12.23V13.4439H75.2143C75.8145 13.4439 76.0251 13.6322 76.0251 14.145V20.2251C76.0251 20.7274 75.8145 20.9158 75.2143 20.9158H74.4351V22.1401H81.248C83.5014 22.1401 84.9124 21.0832 84.9124 19.3984C84.9124 18.0798 84.1437 17.2635 82.6169 16.9391C84.0595 16.4368 84.6386 15.788 84.6386 14.731C84.6386 13.0985 83.4382 12.23 81.1953 12.23H74.4351ZM78.4891 16.4159V13.5067H80.1634C81.5428 13.5067 82.0482 13.8939 82.0482 14.9403C82.0482 15.9659 81.4796 16.4159 80.1423 16.4159H78.4891ZM78.4891 20.9158V17.6926H80.4161C81.606 17.6926 82.2167 18.2472 82.2167 19.2832C82.2167 20.4134 81.6376 20.9158 80.3003 20.9158H78.4891ZM69.8125 19.4507H74.1613V17.5879H69.8125V19.4507ZM68.1382 19.5239V20.3716C68.1382 20.8634 68.0435 21.0413 67.7907 21.0413C67.5801 21.0413 67.4959 20.9053 67.4959 20.5286V17.2321C67.4959 15.5054 66.5377 14.8252 64.1579 14.8252C62.1994 14.8252 61.1358 15.495 61.1358 16.7298C61.1358 17.4414 61.6623 17.9751 62.3468 17.9751C62.9891 17.9751 63.4419 17.5251 63.4419 16.9182C63.4419 16.5205 63.2208 16.2694 62.7574 16.0705C63.0523 15.924 63.2208 15.8926 63.6209 15.8926C64.695 15.8926 65.3162 16.3008 65.3162 17.0228C65.3162 17.6403 65.0003 17.9019 63.9157 18.1426L63.6209 18.1949L63.3366 18.2577L63.0523 18.3309C62.6627 18.4251 62.3362 18.5088 62.0941 18.603C61.3043 18.8646 60.8726 19.5239 60.8726 20.4239C60.8726 21.6483 61.6939 22.3913 63.0417 22.3913C63.9789 22.3913 64.7581 22.0146 65.3583 21.3029C65.6848 22.0669 66.2323 22.3913 67.2537 22.3913C68.5384 22.3913 69.1386 21.7529 69.1386 20.3716V19.5239H68.1382ZM65.2846 19.9216C65.2846 20.4867 64.6423 21.0099 63.9473 21.0099C63.4208 21.0099 63.0944 20.6855 63.0944 20.1727C63.0944 19.6704 63.2945 19.4821 64.0526 19.2414C64.2843 19.1786 64.4317 19.1158 65.2846 18.8228V19.9216ZM59.1457 12.23H55.7129V13.4334H56.3553C56.7554 13.4334 56.8923 13.6113 56.8923 14.0927V15.8403C56.1973 15.0764 55.6603 14.8252 54.8284 14.8252C52.9857 14.8252 51.701 16.4577 51.701 18.7914C51.701 20.9681 52.9225 22.3913 54.7968 22.3913C55.734 22.3913 56.4711 22.046 57.0502 21.3239V22.1401H60.2829V20.9367H59.6827C59.2826 20.9367 59.1457 20.7588 59.1457 20.2669V12.23ZM55.576 16.2694C56.5027 16.2694 57.0397 17.1484 57.0397 18.6344C57.0397 20.1413 56.4395 21.125 55.5023 21.125C54.5546 21.125 54.0597 20.2983 54.0597 18.76C54.0597 17.2007 54.6283 16.2694 55.576 16.2694ZM47.9945 15.045H44.5723V16.2484H45.2462C45.6463 16.2484 45.7832 16.4368 45.7832 16.9182V20.2669C45.7832 20.7588 45.6463 20.9367 45.2462 20.9367H44.5723V22.1401H49.3845V20.9367H48.521C48.1314 20.9367 47.9945 20.7588 47.9945 20.2669V18.4984C47.9945 16.9705 48.5631 15.9136 49.3845 15.9136C49.0896 16.3008 48.9948 16.4996 48.9948 16.7717C48.9948 17.3786 49.4582 17.8391 50.0584 17.8391C50.827 17.8391 51.3009 17.3263 51.3009 16.4787C51.3009 15.5368 50.6902 14.888 49.8162 14.888C49.058 14.888 48.6368 15.1392 47.9208 16.1019L47.9945 15.045ZM43.3508 19.5239V20.3716C43.3508 20.8634 43.256 21.0413 43.0033 21.0413C42.7927 21.0413 42.7085 20.9053 42.7085 20.5286V17.2321C42.7085 15.5054 41.7503 14.8252 39.3705 14.8252C37.4119 14.8252 36.3484 15.495 36.3484 16.7298C36.3484 17.4414 36.8749 17.9751 37.5594 17.9751C38.2017 17.9751 38.6545 17.5251 38.6545 16.9182C38.6545 16.5205 38.4333 16.2694 37.97 16.0705C38.2649 15.924 38.4333 15.8926 38.8335 15.8926C39.9075 15.8926 40.5288 16.3008 40.5288 17.0228C40.5288 17.6403 40.2129 17.9019 39.1388 18.1426L38.8335 18.1949L38.5492 18.2577L38.2649 18.3309C37.8753 18.4251 37.5488 18.5088 37.3066 18.603C36.5169 18.8646 36.0852 19.5239 36.0852 20.4239C36.0852 21.6483 36.9065 22.3913 38.2543 22.3913C39.1915 22.3913 39.9707 22.0146 40.5709 21.3029C40.8973 22.0669 41.4554 22.3913 42.4663 22.3913C43.7509 22.3913 44.3512 21.7529 44.3512 20.3716V19.5239H43.3508ZM40.4972 19.9216C40.4972 20.4867 39.8549 21.0099 39.1599 21.0099C38.6439 21.0099 38.307 20.6855 38.307 20.1727C38.307 19.6704 38.5071 19.4821 39.2652 19.2414C39.4969 19.1786 39.6443 19.1158 40.4972 18.8228V19.9216ZM29.9357 15.045H26.5767V16.2484H27.1874C27.5875 16.2484 27.7244 16.4368 27.7244 16.9182V23.2494C27.7244 23.7412 27.5875 23.9191 27.1874 23.9191H26.5767V25.1226H31.1888V23.9191H30.4727C30.0726 23.9191 29.9357 23.7412 29.9357 23.2494V21.5122C30.5148 22.1192 31.1466 22.3913 31.9996 22.3913C34.0213 22.3913 35.1269 20.9681 35.1269 18.3728C35.1269 16.1647 34.0213 14.8252 32.1786 14.8252C31.1888 14.8252 30.5148 15.1496 29.9041 15.9136L29.9357 15.045ZM31.3678 16.2275C32.2733 16.2275 32.7577 17.0438 32.7577 18.5298C32.7577 20.1623 32.2733 21.0413 31.3467 21.0413C30.3885 21.0413 29.9041 20.2669 29.9041 18.6867C29.9041 17.0961 30.4306 16.2275 31.3678 16.2275ZM25.6921 12.23H24.5128L24.3022 12.8997C23.5125 12.23 22.5858 11.916 21.3854 11.916C18.9004 11.916 17.3314 13.1927 17.3314 15.2229C17.3314 15.9659 17.5315 16.5624 17.9316 17.0438C18.3633 17.5461 18.9635 17.8286 20.2798 18.1216L20.7852 18.2472L21.2801 18.3623L21.7855 18.4775C22.3542 18.603 22.8069 18.7181 23.1228 18.8333C23.6177 19.0007 23.8389 19.2832 23.8389 19.7437C23.8389 20.5495 23.0913 21.0623 21.933 21.0623C20.8589 21.0623 19.7849 20.6123 19.29 19.953C19.0372 19.6286 18.9004 19.2728 18.7108 18.467H17.2998V22.1401H18.4792L18.7951 21.3343C19.7217 22.1087 20.7536 22.4541 22.1646 22.4541C24.6181 22.4541 26.0923 21.1878 26.0923 19.1053C26.0923 17.8914 25.5553 17.0542 24.4917 16.5938C23.8494 16.3322 23.4598 16.238 21.4907 15.8194C19.9323 15.5054 19.4374 15.2124 19.4374 14.5636C19.4374 13.7683 20.2482 13.2032 21.3538 13.2032C23.0175 13.2032 24.0916 14.1555 24.3022 15.788H25.6921V12.23Z" fill="white"/>
<path d="M1.73633 31.2549H128.264V27.655H1.73633V31.2549Z" fill="#F46F21"/>
</g>
<defs>
<clipPath id="clip0_66465_132532">
<rect width="130" height="27" fill="white" transform="translate(0 6)"/>
</clipPath>
</defs>
</svg>
