<svg width="26" height="30" viewBox="0 0 26 30" fill="none" xmlns="http://www.w3.org/2000/svg">
<path fill-rule="evenodd" clip-rule="evenodd" d="M0.648438 16.6814V7.9686C0.648438 7.9686 4.6394 7.22582 7.28841 6.71845C8.82553 6.42433 10.0362 7.29171 10.0362 9.0133V16.4448C10.0362 20.3839 12.781 22.5458 15.8659 22.5458C19.0927 22.5458 21.6477 20.336 21.6477 16.4448V7.39294C21.6477 5.13523 21.5519 4.05819 23.5001 3.64607C23.8265 3.57718 25.353 3.29265 25.353 3.29265V16.6814C25.353 24.846 20.2827 30 13.0247 30C5.48219 30 0.648438 24.846 0.648438 16.6814ZM19.4996 3.30403C19.0271 1.05171 16.8412 -0.387141 14.6168 0.0920757C12.3924 0.570694 10.9724 2.78587 11.445 5.03819C11.9175 7.29171 14.1046 8.72936 16.329 8.25014C18.5534 7.77153 19.9728 5.55754 19.4996 3.30403Z" fill="#00358E"/>
</svg>
