<svg width="130" height="40" viewBox="0 0 130 40" fill="none" xmlns="http://www.w3.org/2000/svg">
<path d="M30.1072 6.99731V6.99785C30.1072 17.7077 21.399 26.42 10.6949 26.42H10.6943V31.6395H10.6949C24.2756 31.6395 35.3244 20.5858 35.3244 6.99785V6.99731H30.1072Z" fill="#0C66B2"/>
<path d="M70.6946 27.6443H69.996V31.4732H68.0213V18.8853H69.996V25.931H70.6946L73.1234 22.5746H75.3951L72.3199 26.7001L75.4998 31.4732H73.141L70.6946 27.6443ZM58.2368 31.4732V22.5746H59.8618L60.0714 23.5009H60.1239C60.7178 22.9591 61.5041 22.3995 62.7274 22.3995C64.5098 22.3995 65.4007 23.5361 65.4007 25.0569V31.4732H63.4263V25.5987C63.4263 24.5501 62.9719 24.1653 62.1508 24.1653C61.3472 24.1653 60.6654 24.6199 60.2115 25.1094V31.4732H58.2368ZM51.8067 30.0571C52.7152 30.0571 53.3622 29.5499 53.6415 29.1654V27.8018C53.1523 27.7839 52.6278 27.7666 52.1564 27.7666C50.8457 27.7666 50.5141 28.1863 50.5141 28.9032C50.5141 29.6722 50.8809 30.0571 51.8067 30.0571ZM51.1952 31.648C49.4655 31.648 48.5394 30.6516 48.5394 29.0082C48.5394 27.3823 49.5004 26.3507 51.8245 26.3507C52.4707 26.3507 53.0822 26.3683 53.6415 26.3856V25.5465C53.6415 24.6026 53.1696 24.0955 52.1037 24.0955C51.1778 24.0955 50.1644 24.4448 49.5704 24.8994L48.9411 23.4311C49.7276 22.8195 51.0905 22.3995 52.3484 22.3995C54.5152 22.3995 55.5987 23.3786 55.5987 25.3192V31.4732H53.9385L53.7289 30.5639H53.6764C53.4144 30.8786 52.6457 31.648 51.1952 31.648ZM40.4841 26.0533V29.7074H42.4239C44.031 29.7074 44.6779 29.078 44.6779 27.8191C44.6779 26.6479 44.031 26.0533 42.6684 26.0533H40.4841ZM40.4841 20.9485V24.4099H42.1266C43.6815 24.4099 44.1186 23.7456 44.1186 22.7142C44.1186 21.5777 43.7516 20.9485 42.0044 20.9485H40.4841ZM38.4748 19.2352H42.1439C44.5901 19.2352 46.0406 19.9518 46.0406 22.4696C46.0406 23.571 45.6735 24.6199 44.7126 25.0044C46.2329 25.4242 46.6873 26.7529 46.6873 27.9593C46.6873 30.4765 45.2019 31.4732 42.5112 31.4732H38.4748V19.2352ZM12.7031 13.8154V17.4695H14.6429C16.25 17.4695 16.8967 16.8403 16.8967 15.5812C16.8967 14.4099 16.25 13.8154 14.8874 13.8154H12.7031ZM12.7031 8.71083V12.172H14.3457C15.9009 12.172 16.3377 11.5079 16.3377 10.4763C16.3377 9.34001 15.9706 8.71083 14.2234 8.71083H12.7031ZM10.6938 6.99731H14.363C16.8091 6.99731 18.2596 7.71417 18.2596 10.2317C18.2596 11.3331 17.8926 12.3822 16.9316 12.7665C18.4517 13.1862 18.906 14.5149 18.906 15.7213C18.906 18.2386 17.4212 19.2352 14.73 19.2352H10.6938V6.99731ZM2.00931 13.8154V17.4695H3.94911C5.55678 17.4695 6.2032 16.8403 6.2032 15.5812C6.2032 14.4099 5.55678 13.8154 4.19388 13.8154H2.00931ZM2.00931 8.71083V12.172H3.65214C5.20733 12.172 5.64414 11.5079 5.64414 10.4763C5.64414 9.34001 5.27711 8.71083 3.52988 8.71083H2.00931ZM0 6.99731H3.66945C6.11584 6.99731 7.56609 7.71417 7.56609 10.2317C7.56609 11.3331 7.19933 12.3822 6.23809 12.7665C7.75839 13.1862 8.21251 14.5149 8.21251 15.7213C8.21251 18.2386 6.72737 19.2352 4.03647 19.2352H0V6.99731Z" fill="black"/>
<path d="M82.1353 26.2093H83.7235C84.7773 26.2093 85.4021 26.5182 85.4021 27.6026C85.4021 27.9716 85.2591 28.5441 84.83 28.6946C85.4849 28.8754 85.6806 29.4479 85.6806 29.9675C85.6806 31.052 85.0333 31.4813 83.8741 31.4813H82.1353V26.2093ZM83.0009 26.9474V28.4386H83.7084C84.3784 28.4386 84.5741 28.1523 84.5741 27.7081C84.5741 27.2185 84.4085 26.9474 83.6558 26.9474H83.0009ZM83.0009 29.1465V30.7206H83.844C84.529 30.7206 84.815 30.4495 84.815 29.9073C84.815 29.4026 84.5365 29.1465 83.9493 29.1465H83.0009Z" fill="#0C66B2"/>
<path d="M89.5268 29.8771H87.2911C87.2986 30.2612 87.3438 30.4269 87.4868 30.5925C87.6148 30.7432 87.8331 30.8261 88.104 30.8261C88.5181 30.8261 88.902 30.6755 89.1354 30.457L89.459 31.067C89.1128 31.3683 88.6385 31.5565 88.0138 31.5565C87.4868 31.5565 87.0955 31.3834 86.8395 31.1123C86.5008 30.7507 86.4331 30.3516 86.4331 29.5683C86.4331 28.7624 86.5309 28.3256 86.8998 27.9717C87.1707 27.7383 87.517 27.5725 88.0063 27.5725C88.4956 27.5725 88.8719 27.7231 89.1202 27.9717C89.5118 28.3709 89.5569 28.9282 89.5268 29.8771ZM87.2837 29.237H88.7063C88.6913 28.8454 88.6611 28.6269 88.5257 28.4838C88.4052 28.3482 88.2246 28.288 88.0063 28.288C87.7879 28.288 87.6073 28.3482 87.4794 28.4838C87.3363 28.642 87.2986 28.8303 87.2837 29.237Z" fill="#0C66B2"/>
<path d="M90.1445 27.6478H90.6263L90.7467 26.6913H91.4543V27.6478H92.4479V28.3633H91.4543V30.4193C91.4543 30.6829 91.5822 30.8035 91.8307 30.8035C92.0566 30.8035 92.2071 30.7507 92.3501 30.6904L92.4856 31.3457C92.2898 31.4512 91.9738 31.5266 91.6124 31.5266C90.9048 31.5266 90.6037 31.1123 90.6037 30.5172V28.3633H90.1445V27.6478Z" fill="#0C66B2"/>
<path d="M92.9438 27.6478H93.4255L93.546 26.6913H94.2536V27.6478H95.2473V28.3633H94.2536V30.4193C94.2536 30.6829 94.3816 30.8035 94.63 30.8035C94.8558 30.8035 95.0064 30.7507 95.1494 30.6904L95.2849 31.3457C95.0892 31.4512 94.773 31.5266 94.4117 31.5266C93.7042 31.5266 93.4032 31.1123 93.4032 30.5172V28.3633H92.9438V27.6478Z" fill="#0C66B2"/>
<path d="M98.9511 29.8771H96.7156C96.723 30.2612 96.7681 30.4269 96.9112 30.5925C97.0392 30.7432 97.2574 30.8261 97.5284 30.8261C97.9424 30.8261 98.3263 30.6755 98.5597 30.457L98.8834 31.067C98.5371 31.3683 98.0628 31.5565 97.4381 31.5565C96.9112 31.5565 96.5198 31.3834 96.2637 31.1123C95.9251 30.7507 95.8574 30.3516 95.8574 29.5683C95.8574 28.7624 95.9552 28.3256 96.324 27.9717C96.5951 27.7383 96.9413 27.5725 97.4306 27.5725C97.9199 27.5725 98.2962 27.7231 98.5446 27.9717C98.9361 28.3709 98.9813 28.9282 98.9511 29.8771ZM96.7079 29.237H98.1307C98.1156 28.8454 98.0855 28.6269 97.9499 28.4838C97.8295 28.3482 97.6489 28.288 97.4306 28.288C97.2122 28.288 97.0316 28.3482 96.9037 28.4838C96.7606 28.642 96.723 28.8303 96.7079 29.237Z" fill="#0C66B2"/>
<path d="M99.8838 31.4813V27.6478H100.591L100.682 28.1148H100.704C100.953 27.806 101.306 27.5725 101.826 27.5725V28.3934C101.306 28.3783 100.953 28.5441 100.734 28.8603V31.4813H99.8838Z" fill="#0C66B2"/>
<path d="M104.273 26.2093H105.861C106.915 26.2093 107.54 26.5182 107.54 27.6026C107.54 27.9716 107.397 28.5441 106.968 28.6946C107.623 28.8754 107.818 29.4479 107.818 29.9675C107.818 31.052 107.171 31.4813 106.012 31.4813H104.273V26.2093ZM105.139 26.9474V28.4386H105.846C106.516 28.4386 106.712 28.1523 106.712 27.7081C106.712 27.2185 106.546 26.9474 105.794 26.9474H105.139ZM105.139 29.1465V30.7206H105.982C106.667 30.7206 106.953 30.4495 106.953 29.9073C106.953 29.4026 106.674 29.1465 106.087 29.1465H105.139Z" fill="#0C66B2"/>
<path d="M109.647 31.5565C108.894 31.5565 108.503 31.1273 108.503 30.4193C108.503 29.7189 108.909 29.2746 109.918 29.2746C110.196 29.2746 110.452 29.2821 110.693 29.2896V28.9282C110.693 28.5214 110.49 28.303 110.038 28.303C109.64 28.303 109.203 28.4537 108.947 28.6494L108.676 28.0168C109.015 27.7532 109.602 27.5724 110.144 27.5724C111.07 27.5724 111.536 27.9942 111.536 28.8303V31.4813H110.829L110.738 31.0897H110.716C110.603 31.2252 110.272 31.5565 109.647 31.5565ZM109.91 30.8712C110.302 30.8712 110.58 30.6527 110.693 30.4872V29.8997C110.483 29.8922 110.257 29.8846 110.061 29.8846C109.497 29.8846 109.353 30.0654 109.353 30.3741C109.353 30.7056 109.512 30.8712 109.91 30.8712Z" fill="#0C66B2"/>
<path d="M112.62 31.4813V27.6478H113.328L113.418 28.047H113.441C113.689 27.8135 114.035 27.5725 114.555 27.5725C115.322 27.5725 115.714 28.0621 115.714 28.7173V31.4813H114.863V28.9507C114.863 28.4989 114.668 28.3332 114.314 28.3332C113.96 28.3332 113.666 28.529 113.471 28.7398V31.4813H112.62Z" fill="#0C66B2"/>
<path d="M116.798 26.0587V31.4812H117.648V29.8319H117.957L119.003 31.4812H120.027L118.65 29.4251L119.982 27.6477H118.996L117.957 29.0939H117.648V26.0587H116.798Z" fill="#0C66B2"/>
<path d="M120.343 27.6478H121.728V31.4812H120.877V28.3633H120.343V27.6478ZM121.306 26.1641C121.645 26.1641 121.848 26.3675 121.848 26.6611C121.848 26.9549 121.645 27.1658 121.306 27.1658C120.983 27.1658 120.764 26.9549 120.764 26.6611C120.764 26.3675 120.983 26.1641 121.306 26.1641Z" fill="#0C66B2"/>
<path d="M122.841 31.4813V27.6478H123.549L123.639 28.047H123.662C123.91 27.8135 124.257 27.5725 124.776 27.5725C125.544 27.5725 125.935 28.0621 125.935 28.7173V31.4813H125.085V28.9507C125.085 28.4989 124.889 28.3332 124.535 28.3332C124.181 28.3332 123.888 28.529 123.692 28.7398V31.4813H122.841Z" fill="#0C66B2"/>
<path d="M128.449 33.0027C127.877 33.0027 127.29 32.8218 126.951 32.5734L127.222 31.9257C127.478 32.1139 127.945 32.2796 128.359 32.2796C128.924 32.2796 129.149 31.9934 129.149 31.5114C129.149 31.3155 129.157 31.1875 129.172 31.0142H129.149C128.939 31.2478 128.607 31.4436 128.148 31.4436C127.757 31.4436 127.426 31.2855 127.237 31.067C126.929 30.7206 126.854 30.3365 126.854 29.5082C126.854 28.7248 126.936 28.2879 127.252 27.9642C127.493 27.7081 127.832 27.5724 128.291 27.5724C128.683 27.5724 129.014 27.7081 129.24 27.8511L129.285 27.6478H130V31.5114C130 32.5132 129.443 33.0027 128.449 33.0027ZM128.404 30.7055C128.705 30.7055 128.984 30.5624 129.149 30.3516V28.4838C128.931 28.3633 128.705 28.2955 128.442 28.2955C128.246 28.2955 128.058 28.3481 127.915 28.5063C127.749 28.6946 127.704 28.9205 127.704 29.5004C127.704 30.0955 127.749 30.3063 127.892 30.5022C128.005 30.6303 128.171 30.7055 128.404 30.7055Z" fill="#0C66B2"/>
</svg>
