<svg xmlns="http://www.w3.org/2000/svg" width="130" height="40" fill="none"><path fill="#fff" fill-rule="evenodd" d="M42.6 35.58h2.35v-11.7H42.6zm12.56 0v-4.44c-.04-1.6-.05-2.5-.56-3.22-.3-.45-.57-.61-.74-.73a3 3 0 0 0-1.68-.43 3.4 3.4 0 0 0-1.82.45c-.11.07-.49.26-.82.63l-.32.4v-1.35h-2.15c.03.78.07 1.33.07 2.1v6.6h2.24v-4.07c.02-1.01.08-1.94.87-2.55.47-.38.96-.4 1.11-.38.31 0 .54.08.66.13q.44.2.63.61c.25.48.28 1.03.3 2.06v4.2zm3.4-8.69h-2.42l3.2 8.7h2.51l3.16-8.7h-2.24l-1.24 3.87c-.12.34-.18.61-.3.96-.23.8-.36 1.36-.5 2.15-.07-.33-.1-.56-.19-.9-.08-.39-.16-.66-.29-1.05-.13-.42-.21-.72-.36-1.13zm15 5.13.01-.88c0-2.34-1.08-4.43-3.86-4.43-1.52 0-2.49.65-3.13 1.41q-.19.2-.33.43c-.01.05-.16.32-.26.52-.2.44-.44 1.19-.44 2.27 0 2.35 1.21 3.6 2.57 4.12.84.32 1.69.3 1.93.3a7 7 0 0 0 2.96-.64l-.03-1.94c-.06.03-.4.26-.65.38-.66.33-1.36.48-2.02.48-.72 0-1.71-.2-2.29-1.16-.21-.33-.3-.81-.3-.86zm-5.85-1.58c.02-.16.05-.73.4-1.3.55-.84 1.47-.84 1.6-.84.2 0 .88.02 1.39.72.34.46.4.94.43 1.42zM80.9 27.1c-.8-.18-1.46-.33-2.26-.33-.17 0-1.72-.05-2.74.93a2.3 2.3 0 0 0-.73 1.74c0 .75.27 1.23.59 1.56.62.7 1.35.84 2.24 1.18.4.14 1.05.34 1.05.92 0 .57-.63.93-1.53.93-1 0-1.75-.38-2.14-.56l-.12 1.89c.95.23 1.56.38 2.51.38.2 0 .95.02 1.62-.22.18-.06.87-.3 1.4-.97.38-.52.5-1.08.5-1.6 0-.26-.02-1.6-1.4-2.25-.25-.12-.62-.23-1.17-.41-.54-.19-.92-.3-1.15-.5a.6.6 0 0 1-.2-.43c0-.6.64-.93 1.55-.93.65-.02 1.16.13 1.83.33zm5.26-2.63-2.14.7v1.73h-1.65v1.7H84v3.64c0 .17-.02.55.03.98.1.91.38 1.5.82 1.87a3 3 0 0 0 2.01.63c.35 0 .72-.05 1.43-.23l-.05-1.77c-.13.03-.43.13-.79.13-.98 0-1.26-.61-1.3-1.44v-3.81h2v-1.7h-2zm16.88 5.9c0-.75-.02-1.48-.41-2.24-.74-1.4-2.02-1.36-2.28-1.36-.21 0-1.46-.05-2.39 1-.13.13-.28.3-.47.63-.1-.22-.15-.34-.28-.55a2.5 2.5 0 0 0-2.15-1.1c-.2 0-1.27.02-2.14.8-.18.15-.31.32-.57.68V26.9H90.2l.05 1.63v7.06h2.22v-4.13c0-1.24.17-2 .8-2.5.4-.32.83-.35.96-.35.08 0 .45 0 .77.27.55.46.54 1.27.54 1.77v4.94h2.2v-3.33c0-.23 0-.4.02-.61.02-.72.02-2 .77-2.66a1.4 1.4 0 0 1 1.74-.1c.54.43.54 1.16.54 2.24v4.46h2.2zm9.81 1.66q.02-.44.02-.88c0-2.34-1-4.43-3.78-4.43-1.52 0-2.57.65-3.21 1.41q-.19.2-.33.43l-.26.52c-.2.44-.44 1.19-.44 2.27 0 2.35 1.2 3.6 2.57 4.12.83.32 1.68.3 1.93.3 1.44 0 2.3-.36 2.96-.64l-.03-1.94c-.07.03-.4.26-.66.38-.65.33-1.36.48-2.01.48-.72 0-1.72-.2-2.3-1.16-.2-.33-.29-.81-.3-.86zM107 30.44c.01-.16.05-.73.39-1.3.56-.84 1.47-.84 1.6-.84.2 0 .89.02 1.4.72.34.46.39.94.42 1.42zm15.78 5.14v-4.44c-.04-1.6-.05-2.5-.56-3.22-.3-.45-.57-.61-.74-.73a3 3 0 0 0-1.68-.43 3.4 3.4 0 0 0-1.82.45c-.11.07-.49.26-.82.63l-.32.4v-1.35h-2.15c.03.78.07 1.33.07 2.1v6.6H117v-4.07c.02-1.01.08-1.94.87-2.55.47-.38.96-.4 1.11-.38.31 0 .54.08.65.13q.45.2.64.61c.25.48.28 1.03.3 2.06v4.2zm5.08-11.12-2.15.7v1.73h-1.65v1.7h1.65v3.64c0 .17-.02.55.04.98.1.91.37 1.5.81 1.87a3 3 0 0 0 2.02.63c.34 0 .72-.05 1.42-.23l-.05-1.77c-.13.03-.42.13-.78.13-.99 0-1.26-.61-1.31-1.44v-3.81h2v-1.7h-2zm-76.03-8.9q.01.57-.04 1.14-.05.7-.3 1.38-.27.68-.8 1.22c-.39.4-.88.7-1.38.88-.7.27-1.44.33-2.2.33-.93 0-2.26-.13-3.2-.83-.22-.15-.33-.28-.43-.38a4 4 0 0 1-.98-2.22q-.1-.94-.12-1.84V8.63h2.34v6.21c.02 1.6.05 2.49.79 3.22.34.33.9.63 1.73.61.15 0 .8 0 1.38-.41.93-.72.96-1.8.96-2.57q.03-.25.02-.5V8.63h2.23zm10.06 4.77v-4.44c-.03-1.6-.05-2.5-.55-3.22-.3-.45-.58-.61-.74-.73a3 3 0 0 0-1.69-.43 3.4 3.4 0 0 0-1.81.45c-.12.06-.5.26-.82.63l-.33.4v-1.35h-2.14c.03.78.06 1.33.06 2.1v6.59h2.25v-4.06c.01-1.01.08-1.94.86-2.55.48-.39.97-.4 1.12-.39.3 0 .54.09.65.14q.45.2.64.61c.24.48.28 1.03.3 2.06v4.19zm1.91 0h2.23v-8.69H63.8zm3.77-4.38a4.3 4.3 0 0 0 4.44 4.53c.24 0 1 0 1.77-.28 1.3-.48 2.7-1.8 2.7-4.21 0-.19 0-.65-.14-1.2A4.2 4.2 0 0 0 74 11.86c-.6-.27-1.3-.38-1.97-.38-1.1 0-1.91.33-2.35.58-.13.08-.44.25-.84.61a4.6 4.6 0 0 0-1.26 3.28m2.34-.01c0-1.11.38-1.9.85-2.3.09-.09.33-.27.61-.37a1.9 1.9 0 0 1 2.01.43c.64.65.72 1.5.74 2.17.02 1.18-.28 1.96-.77 2.42-.25.23-.67.52-1.3.52-.12 0-.5 0-.88-.2-.1-.05-.36-.2-.62-.52a3.6 3.6 0 0 1-.64-2.15m14.03 4.39v-4.2c-.01-1.02-.04-1.57-.29-2.05a1.3 1.3 0 0 0-.64-.61 2 2 0 0 0-.65-.14c-.15-.01-.64 0-1.11.39-.79.6-.86 1.54-.87 2.55v4.06h-2.25v-6.6c0-.76-.03-1.3-.06-2.09h2.14V13l.33-.4c.33-.37.7-.57.82-.63a3.4 3.4 0 0 1 1.82-.45c.81 0 1.34.22 1.68.43.17.12.44.28.74.73.5.71.52 1.63.55 3.22v4.44zM64.91 10.25c.68 0 1.23-.55 1.23-1.24s-.55-1.25-1.23-1.25-1.22.56-1.22 1.25.55 1.24 1.22 1.24M0 22.25V10.61l8.85-1.66c2.05-.4 3.67.76 3.67 3.06v9.9c0 5.26 3.66 8.14 7.77 8.14 4.3 0 7.7-2.95 7.7-8.13V9.86c0-3.01-.12-4.45 2.48-5l2.47-.47v17.85C32.94 33.13 26.18 40 16.5 40 6.45 40 0 33.13 0 22.24M25.13 4.4A5.49 5.49 0 1 0 14.4 6.7a5.49 5.49 0 1 0 10.73-2.3" clip-rule="evenodd"/></svg>