<svg xmlns="http://www.w3.org/2000/svg" width="171" height="52" fill="none"><path fill="#051530" d="M0 31.1V17.54h2.93v6.05c2.75-1.17 4.9-3.71 5.52-6.05h3.36a11.3 11.3 0 0 1-5.7 6.52v.31c2.52 0 3.89 1.17 4.82 3.65l1.08 3.06H8.7L8 28.63c-.62-2-1.56-2.77-3.88-2.77H2.93v5.23zM13.98 31.1V17.54h2.99v13.54zM19.94 31.1V17.54h4.77c4.88 0 7 2.5 7 6.65 0 5.15-3.28 6.9-6.37 6.9zm4.87-11.15h-1.94v8.74h2.39c2.28 0 3.42-1.54 3.42-4.33 0-3.06-1.25-4.41-3.87-4.41M47.16 22.06l-.16-.1v-1.99h3.4v1.98l-.22.1-.42.28.42.32 1.06.75h2.55v-3.43a3.43 3.43 0 0 0-3.4-3.42H47a3.4 3.4 0 0 0-3.38 3.42v3.43h2.54l1-.75.43-.32zm6.25 3.9H50.4l-1.7-1.28-1.7 1.28h-1.9a3.8 3.8 0 0 0 3.6 2.57h4.67v1.7h5.52v-.47l1.16-1.18-2.44-.05a4.6 4.6 0 0 1-4.19-2.57m8.86 0v-4.28h6.26a4.8 4.8 0 0 0-3.19-3.58l-.95-.32.64-2.46.9.16a10.44 10.44 0 0 1 8.22 10.21c0 6.47-4.94 11.71-11.2 12.24-.2 0-.47.06-.68.06h-.32l-1.38-.06h-6.73A11.95 11.95 0 0 1 41.9 25.96h-.85v-5.99h-.85v-2.56h1.38a6.1 6.1 0 0 1 5.4-3.42h3.4c2.34 0 4.4 1.44 5.36 3.42h1.43v2.56h-.85v1.71h4.24v2.57h-3.81v1.55a2 2 0 0 0 .84.16zm-.32 9.4h.74a3.86 3.86 0 0 0 3.4-3.84v-7.27H64.8v3.1l-3.39 3.42v2.03h-14a9.3 9.3 0 0 0 6.42 2.57zm6.68-3.84q0 .71-.16 1.28a9.6 9.6 0 0 0 3.13-7.1q-.02-1.37-.42-2.57v.27a5.3 5.3 0 0 1-2.55 4.49zM45.3 19.12c.43 0 .85.43.85.85 0 .49-.42.86-.85.86a.84.84 0 0 1-.85-.86c0-.42.38-.85.85-.85m5.94.85c0-.42.37-.85.85-.85.42 0 .85.43.85.85 0 .49-.43.86-.85.86a.84.84 0 0 1-.85-.86M87.8 31.38c-3.5 0-5.66-1.38-5.8-4.17l2.56-.84c.04 1.87 1.42 2.73 3.38 2.73 1.83 0 2.83-.76 2.83-1.66 0-1.07-1.33-1.44-3.12-1.85-2.69-.61-5.41-1.3-5.41-4.23 0-2.46 1.93-4.1 5.33-4.1 3.38 0 5.44 1.62 5.54 4.08l-2.65.74c0-1.68-1.1-2.54-2.9-2.54-1.62 0-2.55.67-2.55 1.58 0 1.13 1.52 1.54 3.35 1.93 2.33.51 5.22 1.2 5.22 4.25 0 2.48-1.98 4.08-5.78 4.08M98.64 31.1V20.02h-3.97v-2.48h10.87v2.48h-3.97v11.06zM104.96 31.1l4.6-13.55h4.28l4.6 13.54h-3.17l-.82-2.67h-5.5l-.81 2.67zm6.6-11.21-1.97 6.52h4.25l-1.97-6.52zM120.3 31.1V17.54h5.46c3.64 0 5.72 1.47 5.72 3.98 0 1.93-1.2 3.12-3.59 3.4v.31c2.08.25 2.73 1.21 3.26 3.08l.82 2.77h-3.24l-.63-2.56c-.39-1.65-1.16-2.14-2.69-2.14h-2.18v4.7zm2.93-6.92h2.32c1.84 0 2.9-.7 2.9-2.2q.02-2.18-2.82-2.16h-2.4zM136.9 31.1V20.02h-3.96v-2.48h10.87v2.48h-3.97v11.06zM145.69 31.1V17.54H156v2.38h-7.37v3.22h6.4v2.2h-6.4v3.34h7.41v2.4zM158.33 31.1V17.54h5.46c3.65 0 5.72 1.47 5.72 3.98 0 1.93-1.2 3.12-3.58 3.4v.31c2.07.25 2.73 1.21 3.26 3.08l.81 2.77h-3.24l-.63-2.56c-.38-1.65-1.16-2.14-2.69-2.14h-2.17v4.7zm2.94-6.92h2.32c1.83 0 2.89-.7 2.89-2.2q.01-2.18-2.81-2.16h-2.4z"/></svg>