<svg width="274" height="64" viewBox="0 0 274 64" fill="none" xmlns="http://www.w3.org/2000/svg">
<path d="M56.688 33V10.664H69.168V14.408H61.2V20.04H68.752V23.688H61.2V33H56.688Z" fill="#00358E"/>
<path d="M77.127 13.384H72.839V9.28798H77.127V13.384ZM72.839 33V16.52H77.127V33H72.839Z" fill="#00358E"/>
<path d="M85.9618 19.272H86.0258C87.2418 17.288 89.1298 16.136 91.4978 16.136C95.8818 16.136 97.4178 18.984 97.4178 23.4V33H93.1938V25.064C93.1938 21.896 93.0338 19.56 90.2178 19.56C88.8098 19.56 87.5298 20.424 86.8578 21.704C86.3778 22.632 86.1538 23.912 86.1538 25.544V33H81.9298V21.64C81.9298 20.04 81.8978 18.28 81.7698 16.52H85.8338C85.8978 17.224 85.9618 18.408 85.9618 19.272Z" fill="#00358E"/>
<path d="M102.664 20.744L102.504 17.416C104.168 16.552 106.472 16.136 108.424 16.136C113.544 16.136 115.56 18.76 115.56 22.856C115.56 24.104 115.496 26.504 115.496 27.752C115.496 29.704 115.624 31.912 115.72 33H111.976C111.944 32.744 111.912 32.168 111.912 31.688C111.912 31.304 111.944 30.76 111.976 30.248H111.912C110.792 32.104 109 33.32 106.248 33.32C103.048 33.32 100.744 31.4 100.744 28.2C100.744 24.744 103.784 22.824 109.224 22.824C109.896 22.824 110.792 22.856 111.56 22.92C111.56 20.392 110.376 19.272 107.688 19.272C105.96 19.272 104.104 19.88 102.664 20.744ZM111.624 25.416C111.016 25.352 110.696 25.352 110.216 25.352C106.824 25.352 104.968 26.056 104.968 27.976C104.968 29.416 105.896 30.216 107.528 30.216C109.768 30.216 111.624 28.808 111.624 25.416Z" fill="#00358E"/>
<path d="M123.837 19.272H123.901C125.117 17.288 127.005 16.136 129.373 16.136C133.757 16.136 135.293 18.984 135.293 23.4V33H131.069V25.064C131.069 21.896 130.909 19.56 128.093 19.56C126.685 19.56 125.405 20.424 124.733 21.704C124.253 22.632 124.029 23.912 124.029 25.544V33H119.805V21.64C119.805 20.04 119.773 18.28 119.645 16.52H123.709C123.773 17.224 123.837 18.408 123.837 19.272Z" fill="#00358E"/>
<path d="M152.283 19.944C146.491 26.664 144.315 28.936 143.483 29.768H152.571V33H138.619V29.416C144.763 22.408 146.811 20.328 147.419 19.72H138.907V16.52H152.283V19.944Z" fill="#00358E"/>
<path d="M167.704 10.664L176.6 33H171.704L169.752 27.848H160.44L158.488 33H153.848L162.616 10.664H167.704ZM168.536 24.456L166.68 19.24C166.2 17.896 165.432 15.336 165.144 14.184H165.08C164.76 15.336 163.928 17.896 163.448 19.24L161.592 24.456H168.536Z" fill="#00358E"/>
<path d="M186.41 19.432C184.138 19.432 182.602 21.672 182.602 24.616C182.602 27.56 184.074 29.64 186.442 29.64C188.874 29.64 190.506 27.464 190.506 24.584C190.506 21.672 188.874 19.432 186.41 19.432ZM190.762 16.52H194.73V31.72C194.73 36.648 192.074 40.104 186.058 40.104C183.818 40.104 181.642 39.816 179.498 39.016L179.818 35.368C181.866 36.456 183.85 36.904 185.706 36.904C188.586 36.904 190.57 35.272 190.57 31.72C190.57 31.176 190.57 30.6 190.634 30.024H190.57C189.578 31.688 187.882 33 185.29 33C181.002 33 178.186 29.704 178.186 24.84C178.186 19.72 181.034 16.136 185.546 16.136C188.106 16.136 189.77 17.384 190.762 19.144H190.826C190.762 18.12 190.762 17.352 190.762 16.52Z" fill="#00358E"/>
<path d="M213.735 25.96H202.695C202.759 28.488 204.807 30.12 207.783 30.12C209.607 30.12 211.207 29.64 212.583 28.776L212.647 32.296C211.239 32.968 209.351 33.384 207.271 33.384C201.863 33.384 198.311 30.216 198.311 24.68C198.311 19.72 201.607 16.136 206.567 16.136C211.335 16.136 213.799 18.984 213.799 24.936C213.799 25.192 213.767 25.736 213.735 25.96ZM202.631 23.016H209.863C209.863 20.328 208.519 19.176 206.407 19.176C204.519 19.176 202.855 20.456 202.631 23.016Z" fill="#00358E"/>
<path d="M221.399 19.272H221.463C222.679 17.288 224.567 16.136 226.935 16.136C231.319 16.136 232.855 18.984 232.855 23.4V33H228.631V25.064C228.631 21.896 228.471 19.56 225.655 19.56C224.247 19.56 222.967 20.424 222.295 21.704C221.815 22.632 221.591 23.912 221.591 25.544V33H217.367V21.64C217.367 20.04 217.335 18.28 217.207 16.52H221.271C221.335 17.224 221.399 18.408 221.399 19.272Z" fill="#00358E"/>
<path d="M252.918 8.80798V28.072C252.918 29.8 252.95 31.624 253.078 33H249.174C249.11 32.232 249.078 31.208 249.078 30.12H249.014C247.83 32.232 246.07 33.384 243.51 33.384C239.094 33.384 236.374 29.992 236.374 24.776C236.374 19.688 239.222 16.136 243.542 16.136C246.006 16.136 247.702 17.288 248.726 19.08H248.79C248.726 17.832 248.694 16.104 248.694 14.504V8.80798H252.918ZM244.662 19.432C242.294 19.432 240.79 21.704 240.79 24.776C240.79 27.848 242.294 30.088 244.694 30.088C247.158 30.088 248.758 27.816 248.758 24.808C248.758 21.704 247.158 19.432 244.662 19.432Z" fill="#00358E"/>
<path d="M258.321 20.744L258.161 17.416C259.825 16.552 262.129 16.136 264.081 16.136C269.201 16.136 271.217 18.76 271.217 22.856C271.217 24.104 271.153 26.504 271.153 27.752C271.153 29.704 271.281 31.912 271.377 33H267.633C267.601 32.744 267.569 32.168 267.569 31.688C267.569 31.304 267.601 30.76 267.633 30.248H267.569C266.449 32.104 264.656 33.32 261.905 33.32C258.705 33.32 256.401 31.4 256.401 28.2C256.401 24.744 259.441 22.824 264.881 22.824C265.553 22.824 266.449 22.856 267.217 22.92C267.217 20.392 266.033 19.272 263.345 19.272C261.617 19.272 259.761 19.88 258.321 20.744ZM267.281 25.416C266.673 25.352 266.353 25.352 265.873 25.352C262.481 25.352 260.625 26.056 260.625 27.976C260.625 29.416 261.552 30.216 263.185 30.216C265.424 30.216 267.281 28.808 267.281 25.416Z" fill="#00358E"/>
<path d="M1.35803 49.228H3.41603C6.70603 49.228 9.19803 50.6 9.19803 54.142C9.19803 57.614 6.56603 59 3.41603 59H1.35803V49.228ZM2.56203 50.25V57.978H3.29003C6.04803 57.978 7.95203 56.928 7.95203 54.128C7.95203 51.146 5.99203 50.25 3.29003 50.25H2.56203Z" fill="#00358E"/>
<path d="M12.4578 49.102V50.418H11.1698V49.102H12.4578ZM12.3878 51.874V59H11.2398V51.874H12.3878Z" fill="#00358E"/>
<path d="M17.6212 52.658C16.3892 52.658 15.5212 53.834 15.5212 55.43C15.5212 57.012 16.3332 58.076 17.6072 58.076C18.8672 58.076 19.7912 56.956 19.7912 55.402C19.7912 53.848 18.9092 52.658 17.6212 52.658ZM19.8472 51.874H20.8972V58.664C20.8972 60.61 19.9032 62.108 17.4812 62.108C16.5432 62.108 15.7312 61.968 14.8772 61.632L14.9892 60.498C15.8152 60.946 16.5992 61.142 17.4392 61.142C19.1612 61.142 19.8052 60.092 19.8052 58.51C19.8052 58.258 19.8052 57.894 19.8332 57.614H19.8052C19.3712 58.398 18.5872 59 17.4252 59C15.5492 59 14.3172 57.572 14.3172 55.458C14.3172 53.246 15.5912 51.72 17.5092 51.72C18.6432 51.72 19.4132 52.266 19.8472 53.036H19.8752C19.8472 52.588 19.8472 52.238 19.8472 51.874Z" fill="#00358E"/>
<path d="M24.5848 49.102V50.418H23.2968V49.102H24.5848ZM24.5148 51.874V59H23.3668V51.874H24.5148Z" fill="#00358E"/>
<path d="M28.5862 49.886V51.916H30.4902V52.826H28.5862V56.354C28.5862 57.488 28.8382 58.174 29.8182 58.174C30.0842 58.174 30.3222 58.118 30.5742 58.006L30.6162 58.916C30.3082 59.014 29.9442 59.084 29.5802 59.084C27.9002 59.084 27.4662 58.09 27.4662 56.62V52.826H25.8842V51.916H27.4662V50.264L28.5862 49.886Z" fill="#00358E"/>
<path d="M32.4785 53.344L32.4085 52.322C33.0805 51.916 33.9485 51.72 34.7465 51.72C36.7345 51.72 37.4905 52.882 37.4905 54.52C37.4905 55.43 37.4625 56.536 37.4625 56.872C37.4625 57.656 37.4905 58.496 37.5465 59H36.5105C36.4965 58.888 36.4825 58.622 36.4825 58.412C36.4825 58.23 36.4965 57.95 36.5105 57.754H36.4825C36.0485 58.58 35.2225 59.098 34.1025 59.098C32.6185 59.098 31.6525 58.272 31.6525 56.984C31.6525 55.486 32.9965 54.674 35.4185 54.674C35.7125 54.674 36.1045 54.688 36.4125 54.716V54.59C36.4125 53.386 35.8525 52.658 34.5645 52.658C33.8505 52.658 33.0945 52.91 32.4785 53.344ZM36.4265 55.528C36.2445 55.514 35.9785 55.5 35.6425 55.5C33.8085 55.5 32.8565 55.948 32.8565 56.984C32.8565 57.74 33.4445 58.216 34.3265 58.216C35.6985 58.216 36.4265 57.376 36.4265 55.528Z" fill="#00358E"/>
<path d="M41.0441 48.416V59H39.8961V48.416H41.0441Z" fill="#00358E"/>
<path d="M46.9401 49.228H49.1381C51.3501 49.228 52.9041 49.942 52.9041 52.098C52.9041 54.24 51.1541 54.982 49.0961 54.982H48.1441V59H46.9401V49.228ZM48.1441 50.25V53.946H49.0261C50.7341 53.946 51.6861 53.512 51.6861 52.112C51.6861 50.74 50.7481 50.25 48.9981 50.25H48.1441Z" fill="#00358E"/>
<path d="M59.535 57.768H59.507C58.989 58.622 58.163 59.154 57.085 59.154C55.111 59.154 54.509 57.824 54.509 55.962V51.874H55.657V55.514C55.657 57.138 55.923 58.202 57.351 58.202C58.583 58.202 59.479 57.334 59.479 55.36V51.874H60.627V56.872C60.627 57.628 60.641 58.398 60.697 59H59.591C59.563 58.664 59.535 58.146 59.535 57.768Z" fill="#00358E"/>
<path d="M64.1753 57.698H64.1473C64.1473 58.16 64.1193 58.72 64.0913 59H63.0273C63.0833 58.398 63.0973 57.6 63.0973 56.844V48.416H64.2453V51.258C64.2453 51.958 64.2313 52.742 64.2033 53.148H64.2313C64.7213 52.28 65.6173 51.72 66.6813 51.72C68.5713 51.72 69.7193 53.316 69.7193 55.36C69.7193 57.53 68.5573 59.154 66.5833 59.154C65.5193 59.154 64.6513 58.566 64.1753 57.698ZM66.4153 58.216C67.7033 58.216 68.5153 57.054 68.5153 55.43C68.5153 53.848 67.7593 52.658 66.4293 52.658C65.2113 52.658 64.2173 53.848 64.2173 55.444C64.2173 56.998 65.1413 58.216 66.4153 58.216Z" fill="#00358E"/>
<path d="M72.8039 48.416V59H71.6559V48.416H72.8039Z" fill="#00358E"/>
<path d="M76.4832 49.102V50.418H75.1952V49.102H76.4832ZM76.4132 51.874V59H75.2652V51.874H76.4132Z" fill="#00358E"/>
<path d="M83.5366 52.028L83.4526 53.05C83.0046 52.854 82.5426 52.77 82.0386 52.77C80.5546 52.77 79.5606 53.848 79.5606 55.402C79.5606 56.984 80.5126 58.104 82.0526 58.104C82.5846 58.104 83.0186 58.006 83.5506 57.74L83.6346 58.776C83.1446 58.986 82.6126 59.084 81.9826 59.084C79.7566 59.084 78.3426 57.628 78.3426 55.444C78.3426 53.316 79.7846 51.776 81.9686 51.776C82.5286 51.776 83.0606 51.846 83.5366 52.028Z" fill="#00358E"/>
<path d="M92.8803 49.228L97.0523 59H95.7223L94.6723 56.452H89.8283L88.7923 59H87.5043L91.6343 49.228H92.8803ZM94.2663 55.472L92.9223 52.112C92.7543 51.692 92.3903 50.768 92.2363 50.25H92.2083C92.0403 50.768 91.7043 51.65 91.5223 52.112L90.2063 55.472H94.2663Z" fill="#00358E"/>
<path d="M106.642 48.472L106.558 49.396C106.32 49.34 106.082 49.312 105.872 49.312C104.99 49.312 104.682 49.872 104.682 50.992V51.916H106.53V52.826H104.682V59H103.562V52.826H100.258V59H99.1381V52.826H97.5001V51.916H99.1381V51.02C99.1381 49.438 99.7261 48.36 101.308 48.36C101.63 48.36 101.896 48.388 102.218 48.472L102.134 49.396C101.896 49.34 101.658 49.312 101.448 49.312C100.566 49.312 100.258 49.872 100.258 50.992V51.916H103.562V51.02C103.562 49.438 104.15 48.36 105.732 48.36C106.054 48.36 106.32 48.388 106.642 48.472Z" fill="#00358E"/>
<path d="M108.043 53.344L107.973 52.322C108.645 51.916 109.513 51.72 110.311 51.72C112.299 51.72 113.055 52.882 113.055 54.52C113.055 55.43 113.027 56.536 113.027 56.872C113.027 57.656 113.055 58.496 113.111 59H112.075C112.061 58.888 112.047 58.622 112.047 58.412C112.047 58.23 112.061 57.95 112.075 57.754H112.047C111.613 58.58 110.787 59.098 109.667 59.098C108.183 59.098 107.217 58.272 107.217 56.984C107.217 55.486 108.561 54.674 110.983 54.674C111.277 54.674 111.669 54.688 111.977 54.716V54.59C111.977 53.386 111.417 52.658 110.129 52.658C109.415 52.658 108.659 52.91 108.043 53.344ZM111.991 55.528C111.809 55.514 111.543 55.5 111.207 55.5C109.373 55.5 108.421 55.948 108.421 56.984C108.421 57.74 109.009 58.216 109.891 58.216C111.263 58.216 111.991 57.376 111.991 55.528Z" fill="#00358E"/>
<path d="M116.679 49.102V50.418H115.391V49.102H116.679ZM116.609 51.874V59H115.461V51.874H116.609Z" fill="#00358E"/>
<path d="M120.176 53.162H120.204C120.554 52.322 121.282 51.72 122.192 51.72C122.444 51.72 122.654 51.748 122.836 51.804V52.854C122.654 52.798 122.444 52.77 122.178 52.77C120.96 52.77 120.218 53.848 120.218 55.556V59H119.07V54.002C119.07 53.246 119.056 52.476 119 51.874H120.12C120.162 52.252 120.176 52.798 120.176 53.162Z" fill="#00358E"/>
<path d="M123.649 58.804L123.747 57.768C124.307 58.076 124.895 58.23 125.511 58.23C126.295 58.23 126.953 57.852 126.953 57.124C126.953 56.494 126.561 56.214 125.413 55.696C124.293 55.192 123.733 54.716 123.733 53.736C123.733 52.462 124.755 51.72 126.141 51.72C126.743 51.72 127.331 51.832 127.779 52.014L127.681 52.98C127.163 52.728 126.673 52.63 126.155 52.63C125.441 52.63 124.853 52.98 124.853 53.652C124.853 54.268 125.301 54.548 126.267 54.94C127.569 55.458 128.101 56.074 128.101 57.026C128.101 58.454 126.981 59.154 125.581 59.154C124.853 59.154 124.251 59.042 123.649 58.804Z" fill="#00358E"/>
<path d="M133.416 51.874L134.942 56.396C135.096 56.844 135.32 57.628 135.446 58.104H135.474C135.614 57.628 135.866 56.816 136.006 56.396L137.532 51.874H138.68L136.076 59H134.746L132.184 51.874H133.416Z" fill="#00358E"/>
<path d="M143.122 51.72C145.152 51.72 146.608 53.26 146.608 55.472C146.608 57.656 145.152 59.154 143.066 59.154C141.008 59.154 139.524 57.642 139.524 55.472C139.524 53.246 140.994 51.72 143.122 51.72ZM143.038 52.658C141.666 52.658 140.728 53.792 140.728 55.472C140.728 57.138 141.666 58.216 143.066 58.216C144.452 58.216 145.404 57.124 145.404 55.458C145.404 53.778 144.452 52.658 143.038 52.658Z" fill="#00358E"/>
<path d="M149.638 53.106H149.666C150.184 52.252 151.01 51.72 152.088 51.72C154.062 51.72 154.664 53.05 154.664 54.912V59H153.516V55.36C153.516 53.736 153.25 52.672 151.822 52.672C150.59 52.672 149.694 53.54 149.694 55.514V59H148.546V54.002C148.546 53.246 148.532 52.476 148.476 51.874H149.582C149.61 52.21 149.638 52.728 149.638 53.106Z" fill="#00358E"/>
<path d="M167.751 49.228V54.884C167.751 57.46 166.603 59.154 163.985 59.154C161.227 59.154 160.345 57.348 160.345 54.884V49.228H161.549V54.716C161.549 56.732 162.067 58.174 164.041 58.174C166.043 58.174 166.547 56.732 166.547 54.702V49.228H167.751Z" fill="#00358E"/>
<path d="M171.295 53.106H171.323C171.841 52.252 172.667 51.72 173.745 51.72C175.719 51.72 176.321 53.05 176.321 54.912V59H175.173V55.36C175.173 53.736 174.907 52.672 173.479 52.672C172.247 52.672 171.351 53.54 171.351 55.514V59H170.203V54.002C170.203 53.246 170.189 52.476 170.133 51.874H171.239C171.267 52.21 171.295 52.728 171.295 53.106Z" fill="#00358E"/>
<path d="M179.911 49.102V50.418H178.623V49.102H179.911ZM179.841 51.874V59H178.693V51.874H179.841Z" fill="#00358E"/>
<path d="M185.368 51.72C187.398 51.72 188.854 53.26 188.854 55.472C188.854 57.656 187.398 59.154 185.312 59.154C183.254 59.154 181.77 57.642 181.77 55.472C181.77 53.246 183.24 51.72 185.368 51.72ZM185.284 52.658C183.912 52.658 182.974 53.792 182.974 55.472C182.974 57.138 183.912 58.216 185.312 58.216C186.698 58.216 187.65 57.124 187.65 55.458C187.65 53.778 186.698 52.658 185.284 52.658Z" fill="#00358E"/>
<path d="M191.885 53.106H191.913C192.431 52.252 193.257 51.72 194.335 51.72C196.309 51.72 196.911 53.05 196.911 54.912V59H195.763V55.36C195.763 53.736 195.497 52.672 194.069 52.672C192.837 52.672 191.941 53.54 191.941 55.514V59H190.793V54.002C190.793 53.246 190.779 52.476 190.723 51.874H191.829C191.857 52.21 191.885 52.728 191.885 53.106Z" fill="#00358E"/>
<path d="M203.921 49.228V59H202.717V49.228H203.921Z" fill="#00358E"/>
<path d="M207.607 53.106H207.635C208.153 52.252 208.979 51.72 210.057 51.72C212.031 51.72 212.633 53.05 212.633 54.912V59H211.485V55.36C211.485 53.736 211.219 52.672 209.791 52.672C208.559 52.672 207.663 53.54 207.663 55.514V59H206.515V54.002C206.515 53.246 206.501 52.476 206.445 51.874H207.551C207.579 52.21 207.607 52.728 207.607 53.106Z" fill="#00358E"/>
<path d="M215.173 51.874L216.699 56.396C216.853 56.844 217.077 57.628 217.203 58.104H217.231C217.371 57.628 217.623 56.816 217.763 56.396L219.289 51.874H220.437L217.833 59H216.503L213.941 51.874H215.173Z" fill="#00358E"/>
<path d="M227.54 55.682H222.444C222.472 57.25 223.466 58.202 224.992 58.202C225.762 58.202 226.378 58.02 227.008 57.684L227.05 58.734C226.42 59.014 225.734 59.154 224.936 59.154C222.598 59.154 221.282 57.726 221.282 55.388C221.282 53.162 222.626 51.72 224.6 51.72C226.434 51.72 227.568 52.854 227.568 55.192C227.568 55.318 227.554 55.528 227.54 55.682ZM222.472 54.8H226.448C226.448 53.316 225.706 52.602 224.572 52.602C223.438 52.602 222.584 53.386 222.472 54.8Z" fill="#00358E"/>
<path d="M228.84 58.804L228.938 57.768C229.498 58.076 230.086 58.23 230.702 58.23C231.486 58.23 232.144 57.852 232.144 57.124C232.144 56.494 231.752 56.214 230.604 55.696C229.484 55.192 228.924 54.716 228.924 53.736C228.924 52.462 229.946 51.72 231.332 51.72C231.934 51.72 232.522 51.832 232.97 52.014L232.872 52.98C232.354 52.728 231.864 52.63 231.346 52.63C230.632 52.63 230.044 52.98 230.044 53.652C230.044 54.268 230.492 54.548 231.458 54.94C232.76 55.458 233.292 56.074 233.292 57.026C233.292 58.454 232.172 59.154 230.772 59.154C230.044 59.154 229.442 59.042 228.84 58.804Z" fill="#00358E"/>
<path d="M236.74 49.886V51.916H238.644V52.826H236.74V56.354C236.74 57.488 236.992 58.174 237.972 58.174C238.238 58.174 238.476 58.118 238.728 58.006L238.77 58.916C238.462 59.014 238.098 59.084 237.734 59.084C236.054 59.084 235.62 58.09 235.62 56.62V52.826H234.038V51.916H235.62V50.264L236.74 49.886Z" fill="#00358E"/>
<path d="M241.431 53.106H241.459C241.879 52.28 242.705 51.72 243.741 51.72C244.791 51.72 245.477 52.322 245.757 53.274C246.233 52.294 247.059 51.72 248.151 51.72C249.803 51.72 250.475 52.84 250.475 54.73V59H249.327V55.248C249.327 53.652 249.131 52.672 247.885 52.672C246.695 52.672 245.995 53.61 245.995 55.626V59H244.847V54.912C244.847 53.316 244.469 52.672 243.489 52.672C242.313 52.672 241.515 53.68 241.515 55.57V59H240.367V54.002C240.367 53.246 240.353 52.476 240.297 51.874H241.389C241.417 52.21 241.431 52.742 241.431 53.106Z" fill="#00358E"/>
<path d="M258.575 55.682H253.479C253.507 57.25 254.501 58.202 256.027 58.202C256.797 58.202 257.413 58.02 258.043 57.684L258.085 58.734C257.455 59.014 256.769 59.154 255.971 59.154C253.633 59.154 252.317 57.726 252.317 55.388C252.317 53.162 253.661 51.72 255.635 51.72C257.469 51.72 258.603 52.854 258.603 55.192C258.603 55.318 258.589 55.528 258.575 55.682ZM253.507 54.8H257.483C257.483 53.316 256.741 52.602 255.607 52.602C254.473 52.602 253.619 53.386 253.507 54.8Z" fill="#00358E"/>
<path d="M261.611 53.106H261.639C262.157 52.252 262.983 51.72 264.061 51.72C266.035 51.72 266.637 53.05 266.637 54.912V59H265.489V55.36C265.489 53.736 265.223 52.672 263.795 52.672C262.563 52.672 261.667 53.54 261.667 55.514V59H260.519V54.002C260.519 53.246 260.505 52.476 260.449 51.874H261.555C261.583 52.21 261.611 52.728 261.611 53.106Z" fill="#00358E"/>
<path d="M270.619 49.886V51.916H272.523V52.826H270.619V56.354C270.619 57.488 270.871 58.174 271.851 58.174C272.117 58.174 272.355 58.118 272.607 58.006L272.649 58.916C272.341 59.014 271.977 59.084 271.613 59.084C269.933 59.084 269.499 58.09 269.499 56.62V52.826H267.917V51.916H269.499V50.264L270.619 49.886Z" fill="#00358E"/>
</svg>
