<svg width="170" height="56" viewBox="0 0 170 56" fill="none" xmlns="http://www.w3.org/2000/svg">
<path fill-rule="evenodd" clip-rule="evenodd" d="M55.6662 46.2333H58.7242V31.0262H55.6662V46.2333ZM72.0656 46.2333V40.46C72.0223 38.3926 72.0007 37.2074 71.3382 36.2817C70.9529 35.7005 70.5902 35.4847 70.3759 35.3342C69.9267 35.054 69.2426 34.7738 68.1731 34.7738C67.3396 34.7738 66.6554 34.8817 65.7993 35.356C65.6499 35.4421 65.1584 35.7005 64.7309 36.1738C64.5598 36.3679 64.4527 36.4965 64.3033 36.6906V34.946H61.5019C61.5441 35.959 61.5874 36.6699 61.5874 37.6599V46.2333H64.5165V40.956C64.5382 39.6422 64.6237 38.4352 65.6499 37.6392C66.2701 37.1431 66.912 37.1213 67.1036 37.1431C67.5106 37.1431 67.8094 37.251 67.9598 37.3154C68.3658 37.5095 68.6007 37.7461 68.7933 38.1124C69.1138 38.7372 69.157 39.4481 69.1787 40.7838V46.2333H72.0656ZM76.5165 34.946H73.3514L77.5427 46.2333H80.8139L84.9413 34.946H82.0121L80.3863 39.9649C80.2369 40.4174 80.1514 40.762 80.002 41.2145C79.7022 42.2481 79.5312 42.9808 79.3385 44.0145C79.253 43.5838 79.2107 43.2818 79.1036 42.8511C78.9964 42.3343 78.8903 41.9897 78.7193 41.4729C78.5472 40.9342 78.4411 40.5461 78.2484 40.0085L76.5165 34.946ZM96.1025 41.6016C96.1232 41.2145 96.1232 40.8481 96.1232 40.46C96.1232 37.4233 94.7127 34.7094 91.0767 34.7094C89.0882 34.7094 87.8272 35.549 86.9926 36.5401C86.8216 36.7124 86.6938 36.9065 86.565 37.1006C86.5434 37.1649 86.3507 37.5095 86.223 37.7679C85.9664 38.349 85.646 39.3184 85.646 40.7184C85.646 43.7779 87.2275 45.3927 89.0027 46.0818C90.0938 46.4917 91.2055 46.4699 91.5259 46.4699C93.4083 46.4699 94.5416 45.9957 95.3968 45.6304L95.3535 43.1095C95.268 43.1531 94.8404 43.4541 94.4984 43.6056C93.6432 44.0363 92.7232 44.2293 91.868 44.2293C90.9273 44.2293 89.623 43.9709 88.8739 42.7224C88.5968 42.2917 88.4896 41.6669 88.468 41.6016H96.1025ZM88.468 39.556C88.4896 39.3402 88.5319 38.6075 88.9811 37.8758C89.7085 36.7768 90.9057 36.7768 91.0767 36.7768C91.3333 36.7768 92.2317 36.7985 92.8942 37.7035C93.3434 38.3065 93.4083 38.9313 93.4505 39.556H88.468ZM105.68 35.2045C104.632 34.9678 103.777 34.7738 102.729 34.7738C102.515 34.7738 100.483 34.7094 99.1584 35.9797C98.4094 36.7124 98.1961 37.5095 98.1961 38.2421C98.1961 39.2115 98.5588 39.8352 98.9658 40.2669C99.7787 41.1709 100.74 41.3649 101.895 41.7956C102.408 41.9897 103.264 42.2481 103.264 43.0016C103.264 43.7343 102.451 44.2085 101.275 44.2085C99.9703 44.2085 98.9874 43.7125 98.4733 43.4759L98.3239 45.9313C99.5644 46.2333 100.356 46.4264 101.596 46.4264C101.853 46.4264 102.836 46.4482 103.712 46.1472C103.948 46.0611 104.846 45.759 105.531 44.8759C106.044 44.2085 106.193 43.4759 106.193 42.8085C106.193 42.464 106.172 40.7184 104.354 39.8788C104.034 39.7283 103.563 39.5768 102.836 39.3402C102.131 39.1035 101.638 38.9531 101.34 38.6936C101.169 38.5431 101.083 38.3065 101.083 38.1342C101.083 37.359 101.917 36.9283 103.093 36.9283C103.948 36.9065 104.611 37.1006 105.488 37.359L105.68 35.2045ZM112.564 31.7797L109.763 32.6847V34.946H107.603V37.1431H109.763V41.8818C109.763 42.0976 109.742 42.5927 109.806 43.1531C109.934 44.3372 110.297 45.0917 110.875 45.5868C111.388 46.0393 112.265 46.4056 113.505 46.4056C113.954 46.4056 114.446 46.3402 115.365 46.1036L115.301 43.7986C115.13 43.8422 114.745 43.9709 114.275 43.9709C112.991 43.9709 112.629 43.1738 112.564 42.0976V37.1431H115.194V34.946H112.564V31.7797ZM134.607 39.4481C134.607 38.4788 134.585 37.5312 134.072 36.5401C133.11 34.7312 131.442 34.7738 131.1 34.7738C130.822 34.7738 129.197 34.7094 127.978 36.0658C127.807 36.2381 127.614 36.454 127.358 36.8847C127.229 36.6045 127.165 36.454 126.994 36.1738C126.224 35.0322 125.091 34.752 124.193 34.752C123.936 34.752 122.525 34.7738 121.391 35.7867C121.156 35.9797 120.985 36.1956 120.643 36.6699V34.946H117.864C117.884 35.7213 117.906 36.2817 117.927 37.057V46.2333H120.835V40.8699C120.835 39.254 121.049 38.2629 121.883 37.6174C122.397 37.2074 122.952 37.1649 123.123 37.1649C123.23 37.1649 123.722 37.1649 124.129 37.5095C124.855 38.1124 124.835 39.1679 124.835 39.8144V46.2333H127.722V41.9036C127.722 41.6016 127.722 41.3867 127.742 41.1065C127.764 40.1808 127.764 38.5213 128.748 37.6599C128.983 37.4659 129.368 37.2074 129.967 37.2074C130.074 37.2074 130.565 37.2074 131.014 37.5312C131.72 38.0906 131.72 39.0392 131.72 40.4392V46.2333H134.607V39.4481ZM147.43 41.6016C147.452 41.2145 147.452 40.8481 147.452 40.46C147.452 37.4233 146.154 34.7094 142.519 34.7094C140.53 34.7094 139.155 35.549 138.32 36.5401C138.149 36.7124 138.021 36.9065 137.893 37.1006C137.872 37.1649 137.679 37.5095 137.551 37.7679C137.294 38.349 136.974 39.3184 136.974 40.7184C136.974 43.7779 138.556 45.3927 140.33 46.0818C141.421 46.4917 142.533 46.4699 142.854 46.4699C144.736 46.4699 145.869 45.9957 146.724 45.6304L146.682 43.1095C146.597 43.1531 146.168 43.4541 145.826 43.6056C144.971 44.0363 144.052 44.2293 143.196 44.2293C142.255 44.2293 140.951 43.9709 140.203 42.7224C139.924 42.2917 139.817 41.6669 139.796 41.6016H147.43ZM139.796 39.556C139.817 39.3402 139.861 38.6075 140.31 37.8758C141.036 36.7768 142.234 36.7768 142.405 36.7768C142.662 36.7768 143.559 36.7985 144.223 37.7035C144.672 38.3065 144.736 38.9313 144.778 39.556H139.796ZM160.413 46.2333V40.46C160.37 38.3926 160.348 37.2074 159.686 36.2817C159.3 35.7005 158.938 35.4847 158.723 35.3342C158.274 35.054 157.59 34.7738 156.521 34.7738C155.687 34.7738 155.003 34.8817 154.148 35.356C153.997 35.4421 153.506 35.7005 153.078 36.1738C152.907 36.3679 152.8 36.4965 152.651 36.6906V34.946H149.849C149.892 35.959 149.935 36.6699 149.935 37.6599V46.2333H152.864V40.956C152.886 39.6422 152.971 38.4352 153.997 37.6392C154.618 37.1431 155.259 37.1213 155.452 37.1431C155.858 37.1431 156.157 37.251 156.307 37.3154C156.713 37.5095 156.948 37.7461 157.141 38.1124C157.462 38.7372 157.504 39.4481 157.526 40.7838V46.2333H160.413ZM167.049 31.7797L164.248 32.6847V34.946H162.088V37.1431H164.248V41.8818C164.248 42.0976 164.226 42.5927 164.291 43.1531C164.419 44.3372 164.783 45.0917 165.36 45.5868C165.873 46.0393 166.749 46.4056 167.99 46.4056C168.439 46.4056 168.931 46.3402 169.851 46.1036L169.787 43.7986C169.616 43.8422 169.23 43.9709 168.76 43.9709C167.477 43.9709 167.113 43.1738 167.049 42.0976V37.1431H169.68V34.946H167.049V31.7797ZM67.7136 20.2132C67.7136 20.7083 67.7136 21.2043 67.6713 21.6994C67.6281 22.3023 67.5003 22.9053 67.286 23.4875C67.0511 24.0687 66.6874 24.6291 66.2382 25.0806C65.7251 25.5984 65.0842 25.9856 64.4207 26.2222C63.5017 26.5678 62.5394 26.6539 61.5555 26.6539C60.3366 26.6539 58.6047 26.4816 57.3642 25.5767C57.086 25.3826 56.9366 25.2103 56.8078 25.0806C55.9321 24.1766 55.6539 23.0994 55.5251 22.1944C55.4179 21.3766 55.3973 20.6003 55.3757 19.8043V11.2091H58.4336V19.2865C58.4553 21.3548 58.4975 22.5182 59.4598 23.4657C59.909 23.8964 60.6364 24.2846 61.7265 24.2628C61.9192 24.2628 62.7743 24.2628 63.5223 23.7242C64.7411 22.7974 64.7844 21.3766 64.7844 20.3855C64.8061 20.1489 64.8061 19.9766 64.8061 19.7389V11.2091H67.7136V20.2132ZM80.8675 26.4162V20.6439C80.8242 18.5766 80.8025 17.3914 80.1401 16.4657C79.7547 15.8835 79.3921 15.6686 79.1778 15.5171C78.7285 15.2379 78.0444 14.9577 76.975 14.9577C76.1414 14.9577 75.4573 15.0646 74.6012 15.5389C74.4518 15.625 73.9603 15.8835 73.5327 16.3577C73.3617 16.5518 73.2545 16.6805 73.1051 16.8746V15.13H70.3038C70.346 16.1419 70.3893 16.8528 70.3893 17.8439V26.4162H73.3184V21.139C73.3401 19.8251 73.4256 18.6191 74.4518 17.8221C75.072 17.3271 75.7139 17.3053 75.9055 17.3271C76.3125 17.3271 76.6113 17.434 76.7617 17.4993C77.1676 17.6934 77.4025 17.93 77.5952 18.2964C77.9156 18.9211 77.9589 19.632 77.9805 20.9667V26.4162H80.8675ZM83.3598 26.4162H86.2683V15.129H83.3598V26.4162ZM88.2867 20.7301C88.265 23.939 90.2535 25.6846 91.9855 26.2876C92.6696 26.5242 93.3753 26.6103 94.0811 26.6103C94.4025 26.6103 95.3855 26.6103 96.391 26.244C98.1013 25.6192 99.9188 23.8964 99.9188 20.7736C99.9188 20.536 99.9188 19.933 99.7478 19.2221C99.62 18.6191 99.042 16.4657 96.6692 15.4102C95.8779 15.0646 94.9795 14.9141 94.1027 14.9141C92.6696 14.9141 91.6012 15.3448 91.0231 15.6686C90.8521 15.7755 90.4462 15.9914 89.9331 16.4657C89.0779 17.3053 88.3073 18.7053 88.2867 20.7301ZM91.3446 20.7083C91.3446 19.2657 91.8361 18.2528 92.4563 17.7142C92.5635 17.6073 92.8839 17.3696 93.2476 17.2409C93.5258 17.133 93.8245 17.0686 94.1244 17.0686C94.9795 17.0686 95.4926 17.4132 95.8779 17.8003C96.7115 18.6409 96.8186 19.7607 96.8402 20.6221C96.8608 22.1519 96.4765 23.1637 95.8347 23.7667C95.5142 24.0687 94.9579 24.4351 94.1244 24.4351C93.9739 24.4351 93.4825 24.4351 92.991 24.1766C92.8622 24.1113 92.5202 23.9182 92.1781 23.5083C91.7722 23.0133 91.3446 22.0014 91.3446 20.7083ZM109.678 26.4162V20.9667C109.657 19.632 109.614 18.9211 109.294 18.2964C109.101 17.93 108.866 17.6934 108.459 17.4993C108.31 17.434 108.011 17.3271 107.604 17.3271C107.411 17.3053 106.77 17.3271 106.15 17.8221C105.124 18.6191 105.038 19.8251 105.017 21.139V26.4162H102.087V17.8439C102.087 16.8528 102.044 16.1419 102.001 15.13H104.802V16.8746C104.953 16.6805 105.059 16.5518 105.23 16.3577C105.658 15.8835 106.15 15.625 106.299 15.5389C107.155 15.0646 107.839 14.9577 108.673 14.9577C109.743 14.9577 110.427 15.2379 110.876 15.5171C111.089 15.6686 111.453 15.8835 111.838 16.4657C112.501 17.3914 112.522 18.5766 112.565 20.6439V26.4162H109.678ZM84.8135 13.3232C85.7006 13.3232 86.4198 12.5988 86.4198 11.7052C86.4198 10.8117 85.7006 10.0873 84.8135 10.0873C83.9264 10.0873 83.2073 10.8117 83.2073 11.7052C83.2073 12.5988 83.9264 13.3232 84.8135 13.3232ZM0 28.9008V13.8058C0 13.8058 6.95248 12.5189 11.5672 11.6398C14.245 11.1303 16.354 12.633 16.354 15.6157V28.4908C16.354 35.3155 21.1356 39.061 26.5097 39.061C32.131 39.061 36.5819 35.2325 36.5819 28.4908V12.8084C36.5819 8.89689 36.415 7.0309 39.8088 6.31688C40.3776 6.19753 43.0368 5.70457 43.0368 5.70457V28.9008C43.0368 43.0462 34.204 51.9756 21.5601 51.9756C8.42067 51.9756 0 43.0462 0 28.9008ZM32.8399 5.72429C32.0167 1.8221 28.2087 -0.670729 24.3337 0.159523C20.4587 0.988737 17.985 4.82658 18.8082 8.72876C19.6314 12.633 23.4415 15.1238 27.3164 14.2935C31.1914 13.4643 33.6641 9.62855 32.8399 5.72429Z" fill="#00358E"/>
</svg>
