<svg width="124" height="54" viewBox="0 0 124 54" fill="none" xmlns="http://www.w3.org/2000/svg">
<path d="M1.51196 20V7.43603H8.53196V9.54203H4.04996V12.71H8.29796V14.762H4.04996V20H1.51196Z" fill="#00358E"/>
<path d="M13.0089 8.96603H10.5969V6.66203H13.0089V8.96603ZM10.5969 20V10.73H13.0089V20H10.5969Z" fill="#00358E"/>
<path d="M17.9784 12.278H18.0144C18.6984 11.162 19.7604 10.514 21.0924 10.514C23.5584 10.514 24.4224 12.116 24.4224 14.6V20H22.0464V15.536C22.0464 13.754 21.9564 12.44 20.3724 12.44C19.5804 12.44 18.8604 12.926 18.4824 13.646C18.2124 14.168 18.0864 14.888 18.0864 15.806V20H15.7104V13.61C15.7104 12.71 15.6924 11.72 15.6204 10.73H17.9064C17.9424 11.126 17.9784 11.792 17.9784 12.278Z" fill="#00358E"/>
<path d="M27.3736 13.106L27.2836 11.234C28.2196 10.748 29.5156 10.514 30.6136 10.514C33.4936 10.514 34.6276 11.99 34.6276 14.294C34.6276 14.996 34.5916 16.346 34.5916 17.048C34.5916 18.146 34.6636 19.388 34.7176 20H32.6116C32.5936 19.856 32.5756 19.532 32.5756 19.262C32.5756 19.046 32.5936 18.74 32.6116 18.452H32.5756C31.9456 19.496 30.9376 20.18 29.3896 20.18C27.5896 20.18 26.2936 19.1 26.2936 17.3C26.2936 15.356 28.0036 14.276 31.0636 14.276C31.4416 14.276 31.9456 14.294 32.3776 14.33C32.3776 12.908 31.7116 12.278 30.1996 12.278C29.2276 12.278 28.1836 12.62 27.3736 13.106ZM32.4136 15.734C32.0716 15.698 31.8916 15.698 31.6216 15.698C29.7136 15.698 28.6696 16.094 28.6696 17.174C28.6696 17.984 29.1916 18.434 30.1096 18.434C31.3696 18.434 32.4136 17.642 32.4136 15.734Z" fill="#00358E"/>
<path d="M39.2831 12.278H39.3191C40.0031 11.162 41.0651 10.514 42.3971 10.514C44.8631 10.514 45.7271 12.116 45.7271 14.6V20H43.3511V15.536C43.3511 13.754 43.2611 12.44 41.6771 12.44C40.8851 12.44 40.1651 12.926 39.7871 13.646C39.5171 14.168 39.3911 14.888 39.3911 15.806V20H37.0151V13.61C37.0151 12.71 36.9971 11.72 36.9251 10.73H39.2111C39.2471 11.126 39.2831 11.792 39.2831 12.278Z" fill="#00358E"/>
<path d="M55.2843 12.656C52.0263 16.436 50.8023 17.714 50.3343 18.182H55.4463V20H47.5983V17.984C51.0543 14.042 52.2063 12.872 52.5483 12.53H47.7603V10.73H55.2843V12.656Z" fill="#00358E"/>
<path d="M63.9586 7.43603L68.9626 20H66.2086L65.1106 17.102H59.8726L58.7746 20H56.1646L61.0966 7.43603H63.9586ZM64.4266 15.194L63.3826 12.26C63.1126 11.504 62.6806 10.064 62.5186 9.41603H62.4826C62.3026 10.064 61.8346 11.504 61.5646 12.26L60.5206 15.194H64.4266Z" fill="#00358E"/>
<path d="M74.4807 12.368C73.2027 12.368 72.3387 13.628 72.3387 15.284C72.3387 16.94 73.1667 18.11 74.4987 18.11C75.8667 18.11 76.7847 16.886 76.7847 15.266C76.7847 13.628 75.8667 12.368 74.4807 12.368ZM76.9287 10.73H79.1607V19.28C79.1607 22.052 77.6667 23.996 74.2827 23.996C73.0227 23.996 71.7987 23.834 70.5927 23.384L70.7727 21.332C71.9247 21.944 73.0407 22.196 74.0847 22.196C75.7047 22.196 76.8207 21.278 76.8207 19.28C76.8207 18.974 76.8207 18.65 76.8567 18.326H76.8207C76.2627 19.262 75.3087 20 73.8507 20C71.4387 20 69.8547 18.146 69.8547 15.41C69.8547 12.53 71.4567 10.514 73.9947 10.514C75.4347 10.514 76.3707 11.216 76.9287 12.206H76.9647C76.9287 11.63 76.9287 11.198 76.9287 10.73Z" fill="#00358E"/>
<path d="M89.8506 16.04H83.6406C83.6766 17.462 84.8286 18.38 86.5026 18.38C87.5286 18.38 88.4286 18.11 89.2026 17.624L89.2386 19.604C88.4466 19.982 87.3846 20.216 86.2146 20.216C83.1726 20.216 81.1746 18.434 81.1746 15.32C81.1746 12.53 83.0286 10.514 85.8186 10.514C88.5006 10.514 89.8866 12.116 89.8866 15.464C89.8866 15.608 89.8686 15.914 89.8506 16.04ZM83.6046 14.384H87.6726C87.6726 12.872 86.9166 12.224 85.7286 12.224C84.6666 12.224 83.7306 12.944 83.6046 14.384Z" fill="#00358E"/>
<path d="M94.162 12.278H94.198C94.882 11.162 95.944 10.514 97.276 10.514C99.742 10.514 100.606 12.116 100.606 14.6V20H98.23V15.536C98.23 13.754 98.14 12.44 96.556 12.44C95.764 12.44 95.044 12.926 94.666 13.646C94.396 14.168 94.27 14.888 94.27 15.806V20H91.894V13.61C91.894 12.71 91.876 11.72 91.804 10.73H94.09C94.126 11.126 94.162 11.792 94.162 12.278Z" fill="#00358E"/>
<path d="M111.891 6.39203V17.228C111.891 18.2 111.909 19.226 111.981 20H109.785C109.749 19.568 109.731 18.992 109.731 18.38H109.695C109.029 19.568 108.039 20.216 106.599 20.216C104.115 20.216 102.585 18.308 102.585 15.374C102.585 12.512 104.187 10.514 106.617 10.514C108.003 10.514 108.957 11.162 109.533 12.17H109.569C109.533 11.468 109.515 10.496 109.515 9.59603V6.39203H111.891ZM107.247 12.368C105.915 12.368 105.069 13.646 105.069 15.374C105.069 17.102 105.915 18.362 107.265 18.362C108.651 18.362 109.551 17.084 109.551 15.392C109.551 13.646 108.651 12.368 107.247 12.368Z" fill="#00358E"/>
<path d="M114.93 13.106L114.84 11.234C115.776 10.748 117.072 10.514 118.17 10.514C121.05 10.514 122.184 11.99 122.184 14.294C122.184 14.996 122.148 16.346 122.148 17.048C122.148 18.146 122.22 19.388 122.274 20H120.168C120.15 19.856 120.132 19.532 120.132 19.262C120.132 19.046 120.15 18.74 120.168 18.452H120.132C119.502 19.496 118.494 20.18 116.946 20.18C115.146 20.18 113.85 19.1 113.85 17.3C113.85 15.356 115.56 14.276 118.62 14.276C118.998 14.276 119.502 14.294 119.934 14.33C119.934 12.908 119.268 12.278 117.756 12.278C116.784 12.278 115.74 12.62 114.93 13.106ZM119.97 15.734C119.628 15.698 119.448 15.698 119.178 15.698C117.27 15.698 116.226 16.094 116.226 17.174C116.226 17.984 116.748 18.434 117.666 18.434C118.926 18.434 119.97 17.642 119.97 15.734Z" fill="#00358E"/>
<path d="M11.6809 30.02H13.1509C15.5009 30.02 17.2809 31 17.2809 33.53C17.2809 36.01 15.4009 37 13.1509 37H11.6809V30.02ZM12.5409 30.75V36.27H13.0609C15.0309 36.27 16.3909 35.52 16.3909 33.52C16.3909 31.39 14.9909 30.75 13.0609 30.75H12.5409Z" fill="#00358E"/>
<path d="M19.6093 29.93V30.87H18.6893V29.93H19.6093ZM19.5593 31.91V37H18.7393V31.91H19.5593Z" fill="#00358E"/>
<path d="M23.2975 32.47C22.4175 32.47 21.7975 33.31 21.7975 34.45C21.7975 35.58 22.3775 36.34 23.2875 36.34C24.1875 36.34 24.8475 35.54 24.8475 34.43C24.8475 33.32 24.2175 32.47 23.2975 32.47ZM24.8875 31.91H25.6375V36.76C25.6375 38.15 24.9275 39.22 23.1975 39.22C22.5275 39.22 21.9475 39.12 21.3375 38.88L21.4175 38.07C22.0075 38.39 22.5675 38.53 23.1675 38.53C24.3975 38.53 24.8575 37.78 24.8575 36.65C24.8575 36.47 24.8575 36.21 24.8775 36.01H24.8575C24.5475 36.57 23.9875 37 23.1575 37C21.8175 37 20.9375 35.98 20.9375 34.47C20.9375 32.89 21.8475 31.8 23.2175 31.8C24.0275 31.8 24.5775 32.19 24.8875 32.74H24.9075C24.8875 32.42 24.8875 32.17 24.8875 31.91Z" fill="#00358E"/>
<path d="M28.2714 29.93V30.87H27.3514V29.93H28.2714ZM28.2214 31.91V37H27.4014V31.91H28.2214Z" fill="#00358E"/>
<path d="M31.1296 30.49V31.94H32.4896V32.59H31.1296V35.11C31.1296 35.92 31.3096 36.41 32.0096 36.41C32.1996 36.41 32.3696 36.37 32.5496 36.29L32.5796 36.94C32.3596 37.01 32.0996 37.06 31.8396 37.06C30.6396 37.06 30.3296 36.35 30.3296 35.3V32.59H29.1996V31.94H30.3296V30.76L31.1296 30.49Z" fill="#00358E"/>
<path d="M33.9098 32.96L33.8598 32.23C34.3398 31.94 34.9598 31.8 35.5298 31.8C36.9498 31.8 37.4898 32.63 37.4898 33.8C37.4898 34.45 37.4698 35.24 37.4698 35.48C37.4698 36.04 37.4898 36.64 37.5298 37H36.7898C36.7798 36.92 36.7698 36.73 36.7698 36.58C36.7698 36.45 36.7798 36.25 36.7898 36.11H36.7698C36.4598 36.7 35.8698 37.07 35.0698 37.07C34.0098 37.07 33.3198 36.48 33.3198 35.56C33.3198 34.49 34.2798 33.91 36.0098 33.91C36.2198 33.91 36.4998 33.92 36.7198 33.94V33.85C36.7198 32.99 36.3198 32.47 35.3998 32.47C34.8898 32.47 34.3498 32.65 33.9098 32.96ZM36.7298 34.52C36.5998 34.51 36.4098 34.5 36.1698 34.5C34.8598 34.5 34.1798 34.82 34.1798 35.56C34.1798 36.1 34.5998 36.44 35.2298 36.44C36.2098 36.44 36.7298 35.84 36.7298 34.52Z" fill="#00358E"/>
<path d="M40.0281 29.44V37H39.2081V29.44H40.0281Z" fill="#00358E"/>
<path d="M44.2395 30.02H45.8095C47.3895 30.02 48.4995 30.53 48.4995 32.07C48.4995 33.6 47.2495 34.13 45.7795 34.13H45.0995V37H44.2395V30.02ZM45.0995 30.75V33.39H45.7295C46.9495 33.39 47.6295 33.08 47.6295 32.08C47.6295 31.1 46.9595 30.75 45.7095 30.75H45.0995Z" fill="#00358E"/>
<path d="M53.2359 36.12H53.2159C52.8459 36.73 52.2559 37.11 51.4859 37.11C50.0759 37.11 49.6459 36.16 49.6459 34.83V31.91H50.4659V34.51C50.4659 35.67 50.6559 36.43 51.6759 36.43C52.5559 36.43 53.1959 35.81 53.1959 34.4V31.91H54.0159V35.48C54.0159 36.02 54.0259 36.57 54.0659 37H53.2759C53.2559 36.76 53.2359 36.39 53.2359 36.12Z" fill="#00358E"/>
<path d="M56.5504 36.07H56.5304C56.5304 36.4 56.5104 36.8 56.4904 37H55.7304C55.7704 36.57 55.7804 36 55.7804 35.46V29.44H56.6004V31.47C56.6004 31.97 56.5904 32.53 56.5704 32.82H56.5904C56.9403 32.2 57.5804 31.8 58.3404 31.8C59.6903 31.8 60.5104 32.94 60.5104 34.4C60.5104 35.95 59.6804 37.11 58.2704 37.11C57.5104 37.11 56.8904 36.69 56.5504 36.07ZM58.1504 36.44C59.0704 36.44 59.6504 35.61 59.6504 34.45C59.6504 33.32 59.1104 32.47 58.1604 32.47C57.2904 32.47 56.5804 33.32 56.5804 34.46C56.5804 35.57 57.2404 36.44 58.1504 36.44Z" fill="#00358E"/>
<path d="M62.7136 29.44V37H61.8936V29.44H62.7136Z" fill="#00358E"/>
<path d="M65.3418 29.93V30.87H64.4218V29.93H65.3418ZM65.2918 31.91V37H64.4718V31.91H65.2918Z" fill="#00358E"/>
<path d="M70.3799 32.02L70.3199 32.75C69.9999 32.61 69.6699 32.55 69.3099 32.55C68.2499 32.55 67.5399 33.32 67.5399 34.43C67.5399 35.56 68.2199 36.36 69.3199 36.36C69.6999 36.36 70.0099 36.29 70.3899 36.1L70.4499 36.84C70.0999 36.99 69.7199 37.06 69.2699 37.06C67.6799 37.06 66.6699 36.02 66.6699 34.46C66.6699 32.94 67.6999 31.84 69.2599 31.84C69.6599 31.84 70.0399 31.89 70.3799 32.02Z" fill="#00358E"/>
<path d="M77.0539 30.02L80.0339 37H79.0839L78.3339 35.18H74.8739L74.1339 37H73.2139L76.1639 30.02H77.0539ZM78.0439 34.48L77.0839 32.08C76.9639 31.78 76.7039 31.12 76.5939 30.75H76.5739C76.4539 31.12 76.2139 31.75 76.0839 32.08L75.1439 34.48H78.0439Z" fill="#00358E"/>
<path d="M86.8838 29.48L86.8238 30.14C86.6538 30.1 86.4838 30.08 86.3338 30.08C85.7038 30.08 85.4838 30.48 85.4838 31.28V31.94H86.8038V32.59H85.4838V37H84.6838V32.59H82.3238V37H81.5238V32.59H80.3538V31.94H81.5238V31.3C81.5238 30.17 81.9438 29.4 83.0738 29.4C83.3038 29.4 83.4938 29.42 83.7238 29.48L83.6638 30.14C83.4938 30.1 83.3238 30.08 83.1738 30.08C82.5438 30.08 82.3238 30.48 82.3238 31.28V31.94H84.6838V31.3C84.6838 30.17 85.1038 29.4 86.2338 29.4C86.4638 29.4 86.6538 29.42 86.8838 29.48Z" fill="#00358E"/>
<path d="M87.8844 32.96L87.8344 32.23C88.3144 31.94 88.9344 31.8 89.5044 31.8C90.9244 31.8 91.4644 32.63 91.4644 33.8C91.4644 34.45 91.4444 35.24 91.4444 35.48C91.4444 36.04 91.4644 36.64 91.5044 37H90.7644C90.7544 36.92 90.7444 36.73 90.7444 36.58C90.7444 36.45 90.7544 36.25 90.7644 36.11H90.7444C90.4344 36.7 89.8444 37.07 89.0444 37.07C87.9844 37.07 87.2944 36.48 87.2944 35.56C87.2944 34.49 88.2544 33.91 89.9844 33.91C90.1944 33.91 90.4744 33.92 90.6944 33.94V33.85C90.6944 32.99 90.2944 32.47 89.3744 32.47C88.8644 32.47 88.3244 32.65 87.8844 32.96ZM90.7044 34.52C90.5744 34.51 90.3844 34.5 90.1444 34.5C88.8344 34.5 88.1544 34.82 88.1544 35.56C88.1544 36.1 88.5744 36.44 89.2044 36.44C90.1844 36.44 90.7044 35.84 90.7044 34.52Z" fill="#00358E"/>
<path d="M94.0527 29.93V30.87H93.1327V29.93H94.0527ZM94.0027 31.91V37H93.1827V31.91H94.0027Z" fill="#00358E"/>
<path d="M96.5508 32.83H96.5708C96.8208 32.23 97.3408 31.8 97.9908 31.8C98.1708 31.8 98.3208 31.82 98.4508 31.86V32.61C98.3208 32.57 98.1708 32.55 97.9808 32.55C97.1108 32.55 96.5808 33.32 96.5808 34.54V37H95.7608V33.43C95.7608 32.89 95.7508 32.34 95.7108 31.91H96.5108C96.5408 32.18 96.5508 32.57 96.5508 32.83Z" fill="#00358E"/>
<path d="M99.0313 36.86L99.1013 36.12C99.5013 36.34 99.9213 36.45 100.361 36.45C100.921 36.45 101.391 36.18 101.391 35.66C101.391 35.21 101.111 35.01 100.291 34.64C99.4913 34.28 99.0913 33.94 99.0913 33.24C99.0913 32.33 99.8213 31.8 100.811 31.8C101.241 31.8 101.661 31.88 101.981 32.01L101.911 32.7C101.541 32.52 101.191 32.45 100.821 32.45C100.311 32.45 99.8913 32.7 99.8913 33.18C99.8913 33.62 100.211 33.82 100.901 34.1C101.831 34.47 102.211 34.91 102.211 35.59C102.211 36.61 101.411 37.11 100.411 37.11C99.8913 37.11 99.4613 37.03 99.0313 36.86Z" fill="#00358E"/>
<path d="M106.008 31.91L107.098 35.14C107.208 35.46 107.368 36.02 107.458 36.36H107.478C107.578 36.02 107.758 35.44 107.858 35.14L108.948 31.91H109.768L107.908 37H106.958L105.128 31.91H106.008Z" fill="#00358E"/>
<path d="M112.941 31.8C114.391 31.8 115.431 32.9 115.431 34.48C115.431 36.04 114.391 37.11 112.901 37.11C111.431 37.11 110.371 36.03 110.371 34.48C110.371 32.89 111.421 31.8 112.941 31.8ZM112.881 32.47C111.901 32.47 111.231 33.28 111.231 34.48C111.231 35.67 111.901 36.44 112.901 36.44C113.891 36.44 114.571 35.66 114.571 34.47C114.571 33.27 113.891 32.47 112.881 32.47Z" fill="#00358E"/>
<path d="M117.596 32.79H117.616C117.986 32.18 118.576 31.8 119.346 31.8C120.756 31.8 121.186 32.75 121.186 34.08V37H120.366V34.4C120.366 33.24 120.176 32.48 119.156 32.48C118.276 32.48 117.636 33.1 117.636 34.51V37H116.816V33.43C116.816 32.89 116.806 32.34 116.766 31.91H117.556C117.576 32.15 117.596 32.52 117.596 32.79Z" fill="#00358E"/>
<path d="M46.8125 44.02V48.06C46.8125 49.9 45.9925 51.11 44.1225 51.11C42.1525 51.11 41.5225 49.82 41.5225 48.06V44.02H42.3825V47.94C42.3825 49.38 42.7525 50.41 44.1625 50.41C45.5925 50.41 45.9525 49.38 45.9525 47.93V44.02H46.8125Z" fill="#00358E"/>
<path d="M49.3436 46.79H49.3636C49.7336 46.18 50.3236 45.8 51.0936 45.8C52.5036 45.8 52.9336 46.75 52.9336 48.08V51H52.1136V48.4C52.1136 47.24 51.9236 46.48 50.9036 46.48C50.0236 46.48 49.3836 47.1 49.3836 48.51V51H48.5636V47.43C48.5636 46.89 48.5536 46.34 48.5136 45.91H49.3036C49.3236 46.15 49.3436 46.52 49.3436 46.79Z" fill="#00358E"/>
<path d="M55.498 43.93V44.87H54.578V43.93H55.498ZM55.448 45.91V51H54.628V45.91H55.448Z" fill="#00358E"/>
<path d="M59.3961 45.8C60.8461 45.8 61.8861 46.9 61.8861 48.48C61.8861 50.04 60.8461 51.11 59.3561 51.11C57.8861 51.11 56.8261 50.03 56.8261 48.48C56.8261 46.89 57.8761 45.8 59.3961 45.8ZM59.3361 46.47C58.3561 46.47 57.6861 47.28 57.6861 48.48C57.6861 49.67 58.3561 50.44 59.3561 50.44C60.3461 50.44 61.0261 49.66 61.0261 48.47C61.0261 47.27 60.3461 46.47 59.3361 46.47Z" fill="#00358E"/>
<path d="M64.0506 46.79H64.0706C64.4406 46.18 65.0306 45.8 65.8006 45.8C67.2106 45.8 67.6406 46.75 67.6406 48.08V51H66.8206V48.4C66.8206 47.24 66.6306 46.48 65.6106 46.48C64.7306 46.48 64.0906 47.1 64.0906 48.51V51H63.2706V47.43C63.2706 46.89 63.2606 46.34 63.2206 45.91H64.0106C64.0306 46.15 64.0506 46.52 64.0506 46.79Z" fill="#00358E"/>
<path d="M72.6483 44.02V51H71.7883V44.02H72.6483Z" fill="#00358E"/>
<path d="M75.2811 46.79H75.3011C75.6711 46.18 76.2611 45.8 77.0311 45.8C78.4411 45.8 78.8711 46.75 78.8711 48.08V51H78.0511V48.4C78.0511 47.24 77.8611 46.48 76.8411 46.48C75.9611 46.48 75.3211 47.1 75.3211 48.51V51H74.5011V47.43C74.5011 46.89 74.4911 46.34 74.4511 45.91H75.2411C75.2611 46.15 75.2811 46.52 75.2811 46.79Z" fill="#00358E"/>
<path d="M80.6855 45.91L81.7755 49.14C81.8855 49.46 82.0455 50.02 82.1355 50.36H82.1555C82.2555 50.02 82.4355 49.44 82.5355 49.14L83.6255 45.91H84.4455L82.5855 51H81.6355L79.8055 45.91H80.6855Z" fill="#00358E"/>
<path d="M89.5188 48.63H85.8788C85.8988 49.75 86.6088 50.43 87.6988 50.43C88.2488 50.43 88.6888 50.3 89.1388 50.06L89.1688 50.81C88.7188 51.01 88.2288 51.11 87.6588 51.11C85.9888 51.11 85.0488 50.09 85.0488 48.42C85.0488 46.83 86.0088 45.8 87.4188 45.8C88.7288 45.8 89.5388 46.61 89.5388 48.28C89.5388 48.37 89.5288 48.52 89.5188 48.63ZM85.8988 48H88.7388C88.7388 46.94 88.2088 46.43 87.3988 46.43C86.5888 46.43 85.9788 46.99 85.8988 48Z" fill="#00358E"/>
<path d="M90.4473 50.86L90.5173 50.12C90.9173 50.34 91.3373 50.45 91.7773 50.45C92.3373 50.45 92.8073 50.18 92.8073 49.66C92.8073 49.21 92.5273 49.01 91.7073 48.64C90.9073 48.28 90.5073 47.94 90.5073 47.24C90.5073 46.33 91.2373 45.8 92.2273 45.8C92.6573 45.8 93.0773 45.88 93.3973 46.01L93.3273 46.7C92.9573 46.52 92.6073 46.45 92.2373 46.45C91.7273 46.45 91.3073 46.7 91.3073 47.18C91.3073 47.62 91.6273 47.82 92.3173 48.1C93.2473 48.47 93.6273 48.91 93.6273 49.59C93.6273 50.61 92.8273 51.11 91.8273 51.11C91.3073 51.11 90.8773 51.03 90.4473 50.86Z" fill="#00358E"/>
<path d="M96.0905 44.49V45.94H97.4505V46.59H96.0905V49.11C96.0905 49.92 96.2705 50.41 96.9705 50.41C97.1605 50.41 97.3305 50.37 97.5105 50.29L97.5405 50.94C97.3205 51.01 97.0605 51.06 96.8005 51.06C95.6005 51.06 95.2905 50.35 95.2905 49.3V46.59H94.1605V45.94H95.2905V44.76L96.0905 44.49Z" fill="#00358E"/>
<path d="M99.4407 46.79H99.4607C99.7607 46.2 100.351 45.8 101.091 45.8C101.841 45.8 102.331 46.23 102.531 46.91C102.871 46.21 103.461 45.8 104.241 45.8C105.421 45.8 105.901 46.6 105.901 47.95V51H105.081V48.32C105.081 47.18 104.941 46.48 104.051 46.48C103.201 46.48 102.701 47.15 102.701 48.59V51H101.881V48.08C101.881 46.94 101.611 46.48 100.911 46.48C100.071 46.48 99.5007 47.2 99.5007 48.55V51H98.6807V47.43C98.6807 46.89 98.6707 46.34 98.6307 45.91H99.4107C99.4307 46.15 99.4407 46.53 99.4407 46.79Z" fill="#00358E"/>
<path d="M111.687 48.63H108.047C108.067 49.75 108.777 50.43 109.867 50.43C110.417 50.43 110.857 50.3 111.307 50.06L111.337 50.81C110.887 51.01 110.397 51.11 109.827 51.11C108.157 51.11 107.217 50.09 107.217 48.42C107.217 46.83 108.177 45.8 109.587 45.8C110.897 45.8 111.707 46.61 111.707 48.28C111.707 48.37 111.697 48.52 111.687 48.63ZM108.067 48H110.907C110.907 46.94 110.377 46.43 109.567 46.43C108.757 46.43 108.147 46.99 108.067 48Z" fill="#00358E"/>
<path d="M113.855 46.79H113.875C114.245 46.18 114.835 45.8 115.605 45.8C117.015 45.8 117.445 46.75 117.445 48.08V51H116.625V48.4C116.625 47.24 116.435 46.48 115.415 46.48C114.535 46.48 113.895 47.1 113.895 48.51V51H113.075V47.43C113.075 46.89 113.065 46.34 113.025 45.91H113.815C113.835 46.15 113.855 46.52 113.855 46.79Z" fill="#00358E"/>
<path d="M120.29 44.49V45.94H121.65V46.59H120.29V49.11C120.29 49.92 120.47 50.41 121.17 50.41C121.36 50.41 121.53 50.37 121.71 50.29L121.74 50.94C121.52 51.01 121.26 51.06 121 51.06C119.8 51.06 119.49 50.35 119.49 49.3V46.59H118.36V45.94H119.49V44.76L120.29 44.49Z" fill="#00358E"/>
</svg>
