<svg xmlns="http://www.w3.org/2000/svg" width="171" height="52" fill="none"><path fill="#fff" fill-opacity=".01" fill-rule="evenodd" d="M0 10.12h49.66v31.73H0z" clip-rule="evenodd"/><path fill="#fff" fill-rule="evenodd" d="M1 11.05h47.66v29.87H1z" clip-rule="evenodd"/><path fill="#f60" fill-rule="evenodd" d="M48.66 40.92v-5.28H30.49l-1.08 5.28zM1 35.64v5.28h19.14l-1.28-5.28z" clip-rule="evenodd"/><path fill="#0066b3" fill-rule="evenodd" d="m10.44 23.27-1.39-5.43H20.9l3.91 15.92 2.5-10.32c1.2-4.53 1.67-5.6 8.53-5.6h4.93s-1 4.18-2.24 8.72c-.47 1.72-4.59 1.52-4.38-.1.02-.16.21-1.38.37-2.25.22-1.24-1.33-1.4-1.62-.17-.2.9-1.1 5.27-1.95 9.39h17.72V11.05H1v22.38h17.33l-2.46-10.15z" clip-rule="evenodd"/><path fill="#0066b3" d="m61.06 10.95 2.6 7.59c.17.53.49 1.41.66 2.01h.04c.17-.6.45-1.5.63-2.01l2.63-7.59h2.49L65.74 22.6h-3l-4.33-11.64zM75.06 13.8c2.75 0 4.68 1.79 4.68 4.52 0 2.68-1.93 4.47-4.75 4.47-2.8 0-4.75-1.82-4.75-4.49 0-2.76 1.93-4.5 4.82-4.5M75 15.45c-1.4 0-2.24 1.04-2.24 2.87 0 1.68.87 2.77 2.22 2.77 1.4 0 2.3-1.09 2.3-2.85 0-1.77-.86-2.79-2.28-2.79M81.78 22.59V9.99h2.35v12.6zM92.5 22.59l-1.75-2.25a62 62 0 0 1-1.54-2.12h-.03v4.37h-2.39V9.99h2.39v7.65h.03a39 39 0 0 1 1.58-1.92L92.33 14h2.7l-3.64 3.82 4.05 4.77zM96.16 22.34l.12-1.77c.88.4 1.76.58 2.55.58s1.47-.3 1.47-.91c0-.6-.34-.84-1.77-1.32-1.72-.57-2.4-1.22-2.4-2.48 0-1.64 1.42-2.64 3.57-2.64q1.42 0 2.46.4l-.2 1.67a5 5 0 0 0-2.15-.48c-.8 0-1.37.31-1.37.9 0 .58.37.78 1.65 1.18 1.6.5 2.56 1.12 2.56 2.58 0 1.77-1.51 2.74-3.7 2.74a8 8 0 0 1-2.79-.45M106.79 21.2h-.04c0 .49-.03 1.05-.07 1.39h-2.17c.07-.72.09-1.67.09-2.57V10h2.31v2.96c0 .84-.02 1.74-.05 2.39h.03a3.5 3.5 0 0 1 3.04-1.54c2.31 0 3.75 1.84 3.75 4.42 0 2.67-1.5 4.57-3.93 4.57-1.37 0-2.36-.6-2.96-1.59m2.38-5.66c-1.35 0-2.24 1.18-2.24 2.76 0 1.59.88 2.75 2.22 2.75s2.14-1.15 2.14-2.76c0-1.64-.73-2.75-2.12-2.75M116.02 16.2l-.08-1.73a8 8 0 0 1 3.24-.67c2.8 0 3.9 1.37 3.9 3.5l-.03 2.55c0 1.02.07 2.17.13 2.74h-2.05a6 6 0 0 1 0-1.44h-.04c-.61.97-1.6 1.6-3.1 1.6-1.75 0-3.02-1-3.02-2.66 0-1.8 1.67-2.8 4.65-2.8.37 0 .86.01 1.28.05 0-1.32-.65-1.9-2.12-1.9a6 6 0 0 0-2.76.76m4.91 2.44c-.33-.04-.5-.04-.77-.04-1.86 0-2.87.37-2.87 1.37 0 .75.5 1.17 1.4 1.17 1.23 0 2.24-.74 2.24-2.5M127.62 15.44h.04a3.4 3.4 0 0 1 3-1.64c2.4 0 3.24 1.49 3.24 3.79v5h-2.31v-4.14c0-1.65-.1-2.86-1.63-2.86-.78 0-1.48.45-1.85 1.11a4 4 0 0 0-.38 2v3.89h-2.32v-5.92c0-.83-.01-1.75-.08-2.67h2.22c.04.37.07.99.07 1.44M142.16 22.59l-1.76-2.25a63 63 0 0 1-1.54-2.12h-.04v4.37h-2.38V9.99h2.38v7.65h.04c.37-.5 1.09-1.35 1.58-1.92l1.54-1.72h2.7l-3.65 3.82 4.05 4.77zM63.02 35.7v6.07h-2.44v-12.6h2.44v5.49h.04c.48-.65 1.62-2.13 2.09-2.71l2.27-2.78h3.02l-5.1 5.88 5.59 6.72h-3.29l-2.66-3.4a46 46 0 0 1-1.92-2.67zM75.9 32.26c2.72 0 4.62 1.93 4.62 4.89 0 2.9-1.9 4.84-4.69 4.84-2.77 0-4.69-1.97-4.69-4.86 0-3 1.9-4.87 4.76-4.87m-.07 1.78c-1.38 0-2.21 1.12-2.21 3.1 0 1.83.86 3 2.2 3 1.38 0 2.26-1.17 2.26-3.08s-.85-3.02-2.25-3.02m2.84-5.54v2.11h-2V28.5zm-5.57 2.11V28.5h1.99v2.11zM82.53 41.77V28.12h2.32v13.65zM89.63 34.03h.03a3.3 3.3 0 0 1 2.96-1.77c2.37 0 3.2 1.6 3.2 4.1v5.41h-2.28V37.3c0-1.78-.09-3.1-1.61-3.1-.76 0-1.46.49-1.82 1.2a5 5 0 0 0-.38 2.17v4.21h-2.28v-6.4q0-1.38-.09-2.9h2.2c.03.4.07 1.07.07 1.56M102.81 41.77v-12.6h3.7c2.7 0 4.49.9 4.49 3.23 0 1.44-.83 2.53-2.51 2.89v.04c1.76.23 2.82 1.33 2.82 3 0 2.61-2.35 3.44-4.74 3.44zm2.36-10.72v3.43h.64c1.66 0 2.8-.3 2.8-1.74 0-1.39-1.16-1.7-2.56-1.7zm0 5.2v3.63h.8c1.97 0 2.9-.53 2.9-1.85 0-1.28-.97-1.78-3.03-1.78zM117.63 32.26c2.71 0 4.62 1.93 4.62 4.89 0 2.9-1.9 4.84-4.7 4.84-2.76 0-4.68-1.97-4.68-4.86 0-3 1.9-4.87 4.75-4.87m-.07 1.78c-1.39 0-2.22 1.12-2.22 3.1 0 1.83.87 3 2.2 3 1.38 0 2.27-1.17 2.27-3.08s-.85-3.02-2.25-3.02M126.37 34.03h.03a3.3 3.3 0 0 1 2.96-1.77c2.37 0 3.2 1.6 3.2 4.1v5.41h-2.28V37.3c0-1.78-.09-3.1-1.61-3.1-.76 0-1.46.49-1.82 1.2a5 5 0 0 0-.38 2.17v4.21h-2.28v-6.4q.01-1.38-.1-2.9h2.2c.04.4.08 1.07.08 1.56M137.22 34.03h.03a3.3 3.3 0 0 1 2.96-1.77c2.37 0 3.2 1.6 3.2 4.1v5.41h-2.28V37.3c0-1.78-.09-3.1-1.61-3.1-.76 0-1.46.49-1.82 1.2a5 5 0 0 0-.38 2.17v4.21h-2.28v-6.4a42 42 0 0 0-.1-2.9h2.2c.04.4.08 1.07.08 1.56M157.96 37.8H152c.04 1.43 1.15 2.35 2.75 2.35q1.5-.01 2.6-.76l.04 1.98c-.77.38-1.79.62-2.91.62-2.93 0-4.85-1.79-4.85-4.91 0-2.8 1.78-4.82 4.47-4.82 2.58 0 3.9 1.6 3.9 4.96 0 .15 0 .45-.03.58m-6-1.66h3.91c0-1.52-.73-2.17-1.87-2.17-1.02 0-1.92.72-2.04 2.17M169.69 29.53l-.18 2.26c-.74-.4-1.95-.7-3.2-.7-2.56 0-4.22 1.67-4.22 4.34 0 2.62 1.5 4.37 4.17 4.37.5 0 1.04-.05 1.42-.18v-3.14h-2.58v-2.02h4.9v6.77q-1.97.69-4.07.67c-3.7 0-6.45-2.46-6.45-6.48 0-3.92 2.66-6.38 6.85-6.38 1.2 0 2.37.13 3.36.49"/></svg>