<svg xmlns="http://www.w3.org/2000/svg" width="130" height="40" fill="none"><path fill="#fff" fill-opacity=".01" fill-rule="evenodd" d="M0 8.1h37.98v23.8H0z" clip-rule="evenodd"/><path fill="#fff" fill-rule="evenodd" d="M.76 8.8h36.45v22.4H.76z" clip-rule="evenodd"/><path fill="#f60" fill-rule="evenodd" d="M37.21 31.2v-3.96h-13.9l-.82 3.96zM.76 27.24v3.96H15.4l-.98-3.96z" clip-rule="evenodd"/><path fill="#0066b3" fill-rule="evenodd" d="M7.99 17.96 6.92 13.9h9.05l3 11.94 1.9-7.74c.93-3.4 1.29-4.2 6.53-4.2h3.77s-.76 3.13-1.71 6.54c-.36 1.3-3.51 1.14-3.35-.07.01-.13.16-1.04.28-1.69.17-.93-1.02-1.05-1.24-.13l-1.49 7.04h13.55V8.8H.76v16.78h13.25l-1.87-7.61z" clip-rule="evenodd"/><path fill="#0066b3" d="m46.7 8.73 1.98 5.68c.13.4.37 1.06.5 1.52h.03c.14-.46.35-1.13.49-1.52l2-5.68h1.91l-3.34 8.72h-2.29l-3.31-8.72zM57.4 10.86c2.1 0 3.58 1.34 3.58 3.39 0 2.01-1.48 3.35-3.63 3.35s-3.64-1.36-3.64-3.36c0-2.08 1.48-3.38 3.69-3.38m-.05 1.24c-1.08 0-1.72.78-1.72 2.15 0 1.26.67 2.07 1.7 2.07 1.08 0 1.76-.8 1.76-2.13s-.66-2.09-1.74-2.09M62.54 17.45V8h1.8v9.45zM70.74 17.45l-1.34-1.69c-.36-.46-.87-1.15-1.18-1.58h-.03v3.27h-1.82V8h1.82v5.74h.03c.28-.38.83-1.02 1.2-1.44l1.19-1.29h2.06l-2.79 2.87 3.1 3.57zM73.53 17.26l.1-1.32q1.02.45 1.94.44c.6 0 1.13-.23 1.13-.7 0-.44-.26-.62-1.36-.98-1.3-.42-1.83-.91-1.83-1.86 0-1.23 1.08-1.98 2.73-1.98q1.1 0 1.88.3l-.15 1.25a4 4 0 0 0-1.65-.36c-.6 0-1.04.24-1.04.67s.28.6 1.26.9c1.22.37 1.95.83 1.95 1.93 0 1.32-1.15 2.05-2.82 2.05q-1.11.01-2.14-.34M81.66 16.41h-.02c0 .36-.03.79-.06 1.04h-1.66c.05-.54.07-1.25.07-1.92V8h1.77v2.22c0 .63-.02 1.3-.04 1.8h.02a2.7 2.7 0 0 1 2.32-1.16c1.77 0 2.87 1.38 2.87 3.32 0 2-1.14 3.42-3 3.42a2.5 2.5 0 0 1-2.27-1.19m1.83-4.25c-1.04 0-1.72.89-1.72 2.08s.67 2.06 1.7 2.06 1.64-.86 1.64-2.08-.57-2.06-1.62-2.06M88.72 12.66l-.06-1.3c.7-.33 1.66-.5 2.48-.5 2.14 0 2.99 1.03 2.99 2.63l-.03 1.91c0 .76.05 1.62.1 2.05h-1.57a5 5 0 0 1 0-1.07h-.03c-.47.72-1.22 1.2-2.37 1.2-1.34 0-2.31-.75-2.31-2 0-1.36 1.27-2.1 3.55-2.1.28 0 .66 0 .98.03 0-.98-.5-1.42-1.62-1.42-.72 0-1.5.23-2.1.57m3.76 1.83c-.26-.03-.4-.03-.6-.03-1.41 0-2.19.28-2.19 1.03 0 .56.39.87 1.07.87.94 0 1.72-.55 1.72-1.87M97.6 12.09h.02c.51-.78 1.3-1.23 2.3-1.23 1.83 0 2.47 1.12 2.47 2.84v3.75h-1.77v-3.1c0-1.24-.06-2.15-1.24-2.15-.6 0-1.13.34-1.41.84q-.3.54-.3 1.5v2.91H95.9v-4.44q.02-.95-.06-2h1.7c.03.28.05.74.05 1.08M108.7 17.45l-1.33-1.69a46 46 0 0 1-1.18-1.58h-.03v3.27h-1.82V8h1.82v5.74h.03c.28-.38.83-1.02 1.2-1.44l1.18-1.29h2.07l-2.8 2.87 3.1 3.57zM48.2 27.29v4.55h-1.87v-9.45h1.86v4.11h.03c.37-.49 1.24-1.6 1.6-2.03l1.73-2.08h2.32l-3.9 4.41 4.27 5.04h-2.51l-2.04-2.55a35 35 0 0 1-1.47-2zM58.04 24.7c2.08 0 3.53 1.45 3.53 3.67 0 2.18-1.45 3.63-3.58 3.63s-3.59-1.48-3.59-3.64c0-2.25 1.46-3.66 3.64-3.66M58 26.04c-1.06 0-1.7.84-1.7 2.33 0 1.37.67 2.25 1.69 2.25 1.05 0 1.73-.88 1.73-2.32 0-1.43-.65-2.26-1.72-2.26m2.17-4.16v1.59h-1.52v-1.59zm-4.26 1.59v-1.59h1.52v1.59zM63.11 31.84V21.6h1.77v10.24zM68.54 26.03h.02a2.6 2.6 0 0 1 2.27-1.33c1.81 0 2.45 1.2 2.45 3.07v4.07h-1.75v-3.36c0-1.34-.07-2.33-1.23-2.33a1.6 1.6 0 0 0-1.4.9q-.28.6-.28 1.63v3.16h-1.75v-4.81q.01-1.03-.07-2.17h1.69c.02.3.05.8.05 1.17M78.62 31.84v-9.45h2.83c2.07 0 3.43.67 3.43 2.42 0 1.08-.63 1.9-1.92 2.17V27c1.35.18 2.16 1 2.16 2.25 0 1.96-1.8 2.59-3.63 2.59zm1.8-8.05v2.58h.5c1.26 0 2.13-.22 2.13-1.3 0-1.05-.88-1.28-1.95-1.28zm0 3.9v2.73h.61c1.5 0 2.22-.4 2.22-1.39 0-.96-.74-1.34-2.31-1.34zM89.95 24.7c2.08 0 3.53 1.45 3.53 3.67 0 2.18-1.45 3.63-3.58 3.63s-3.59-1.48-3.59-3.64c0-2.25 1.46-3.66 3.64-3.66m-.05 1.34c-1.06 0-1.7.84-1.7 2.33 0 1.37.66 2.25 1.68 2.25 1.06 0 1.74-.88 1.74-2.32 0-1.43-.65-2.26-1.72-2.26M96.63 26.03h.03a2.6 2.6 0 0 1 2.26-1.33c1.81 0 2.45 1.2 2.45 3.07v4.07h-1.75v-3.36c0-1.34-.06-2.33-1.23-2.33a1.6 1.6 0 0 0-1.39.9q-.3.6-.29 1.63v3.16h-1.74v-4.81q0-1.03-.07-2.17h1.68c.03.3.05.8.05 1.17M104.93 26.03h.03a2.6 2.6 0 0 1 2.26-1.33c1.81 0 2.45 1.2 2.45 3.07v4.07h-1.75v-3.36c0-1.34-.07-2.33-1.23-2.33a1.6 1.6 0 0 0-1.39.9q-.3.6-.3 1.63v3.16h-1.74v-4.81q0-1.03-.06-2.17h1.68c.02.3.05.8.05 1.17M120.8 28.86h-4.57c.03 1.07.87 1.76 2.1 1.76q1.14 0 1.99-.57l.03 1.49c-.59.28-1.37.46-2.23.46-2.23 0-3.7-1.34-3.7-3.68 0-2.1 1.36-3.62 3.41-3.62 1.97 0 3 1.2 3 3.73zm-4.6-1.25h3c0-1.13-.56-1.62-1.44-1.62-.78 0-1.46.54-1.56 1.62M129.76 22.66l-.13 1.69c-.57-.3-1.5-.53-2.45-.53-1.96 0-3.23 1.26-3.23 3.26 0 1.97 1.15 3.28 3.2 3.28.38 0 .79-.04 1.08-.13v-2.36h-1.97v-1.52H130v5.08q-1.51.51-3.11.5c-2.83 0-4.94-1.84-4.94-4.86 0-2.94 2.04-4.78 5.24-4.78.92 0 1.82.1 2.57.37"/></svg>