<svg width="123" height="20" viewBox="0 0 123 20" fill="none" xmlns="http://www.w3.org/2000/svg">
<g clip-path="url(#clip0_65704_1785)">
<path d="M8.67844 15.6237C8.21353 15.6237 7.82389 15.2746 7.79732 14.8233C7.73533 14.2657 8.13825 14.1379 8.44377 13.9549C8.90868 13.7335 10.2193 12.7203 10.3565 12.3159C10.3875 12.2265 10.4053 11.9796 10.2326 11.8987C10.0953 11.8093 9.65254 11.8433 9.30275 12.0179C9.22305 12.0562 9.13892 12.1073 9.04594 12.1584C8.62531 12.3925 8.04527 12.7118 7.37226 12.8353C5.94653 13.1035 3.90977 12.7842 3.82121 12.7714C1.96599 12.4947 1.15572 10.4342 1.07159 10.2001C0.907765 9.75735 1.15129 9.27204 1.61178 9.11452C2.07226 8.95701 2.57702 9.19115 2.74085 9.62964C2.86925 9.97447 3.40058 10.9834 4.10016 11.0856C4.60935 11.1665 6.11035 11.3325 7.03132 11.1579C7.41653 11.0856 7.82831 10.8557 8.16039 10.6726C8.27551 10.6088 8.37735 10.5534 8.47476 10.5066C9.24519 10.115 10.3875 9.95318 11.2111 10.4768C12.0479 11.0047 12.2206 12.1243 12.0745 12.7118C12.0214 12.9204 11.8664 13.5505 10.5204 14.6105C9.70124 15.2576 9.09907 15.5939 8.72714 15.6152H8.67401V15.6237H8.67844Z" fill="#00358E"/>
<path d="M21.0585 16.9264L20.0756 15.5087C20.8283 15.0277 21.612 14.4317 21.7537 14.2359C21.8644 14.0656 21.9662 13.5462 21.9883 13.1716V7.92253C21.7714 7.98639 21.519 8.12261 21.2666 8.3823C20.5449 9.1273 20.8061 10.2341 20.8061 10.2469C20.8681 10.4981 20.8061 10.7663 20.6423 10.9706C20.4785 11.175 20.2261 11.2984 19.9604 11.3027C19.0926 11.3155 18.3045 11.6943 17.565 12.4649C16.9452 13.1035 17.0293 14.321 17.1134 14.7382C17.1621 14.9894 17.0957 15.249 16.9274 15.4449C16.7592 15.6407 16.5068 15.7556 16.2456 15.7556H6.48242V14.0528H15.2892C15.2892 13.2482 15.4663 12.1328 16.2677 11.3069C17.0868 10.4598 17.999 9.92338 18.9908 9.71052C18.9996 9.0081 19.1856 8.04173 19.9693 7.22862C21.1249 6.03236 22.5197 6.07068 23.1573 6.27928C23.5159 6.39848 23.755 6.72202 23.755 7.08387V13.2397C23.7462 13.444 23.6665 14.4998 23.2458 15.1469C22.865 15.7301 21.5854 16.5815 21.0541 16.9221H21.0585V16.9264Z" fill="#00358E"/>
<path d="M18.7206 11.4006H18.7117L14.7888 11.3623C14.0139 11.3325 13.1239 11.2218 12.1764 10.6003C11.1315 9.91486 10.7418 8.39932 10.6754 8.10132C10.5691 7.64155 10.8747 7.18604 11.3529 7.08813C11.831 6.99021 12.3004 7.2797 12.4067 7.73521C12.5129 8.18647 12.8273 8.96552 13.1771 9.19115C13.7837 9.58706 14.3283 9.63815 14.8375 9.65943L18.7339 9.69349C19.8585 9.69349 19.615 10.0851 19.6106 10.5534C19.6106 11.0217 19.2121 11.3963 18.725 11.3963H18.7206V11.4006Z" fill="#00358E"/>
<path d="M16.3649 11.4943C16.1745 11.4943 16.2232 11.1111 16.0638 10.9919C15.6786 10.7067 15.3642 10.4938 15.6609 10.1235C15.8513 9.8808 16.3826 9.13155 16.5287 8.56535C16.7767 7.58621 16.7678 7.38186 16.6128 6.99021C16.604 6.96466 16.3605 6.36441 15.7583 6.48361C15.5458 6.52618 15.4041 6.77309 15.3952 6.88804C15.3864 6.96892 15.4041 7.11792 15.4174 7.25841C15.4616 7.66283 15.5192 8.22052 15.2314 8.73989C14.9436 9.25926 14.089 10.1192 13.8322 10.3704C13.4913 10.7067 12.929 10.7109 12.5792 10.3831C12.2294 10.0553 12.225 9.51469 12.5659 9.17837C13.0042 8.7484 13.5533 8.14389 13.6684 7.93955C13.7038 7.86292 13.6684 7.59046 13.6551 7.42869C13.633 7.21584 13.6064 6.97318 13.633 6.73052C13.7083 5.9387 14.3414 5.02767 15.3996 4.81481C16.8342 4.52959 17.8969 5.4321 18.2732 6.38995C18.6186 7.27969 18.5256 7.88421 18.2511 8.96977C17.9899 9.99149 17.1619 11.043 17.0689 11.1622C16.8962 11.3793 16.6306 11.4943 16.3693 11.4943H16.3649Z" fill="#00358E"/>
<path d="M1.54971 2.08179H0V3.78464H1.54971V2.08179Z" fill="#00358E"/>
<path d="M13.7702 2.08179H12.1895V3.78464H13.7702V2.08179Z" fill="#00358E"/>
<path d="M4.10484 6.01111C4.66972 6.01111 5.12764 5.57082 5.12764 5.02771C5.12764 4.48459 4.66972 4.04431 4.10484 4.04431C3.53996 4.04431 3.08203 4.48459 3.08203 5.02771C3.08203 5.57082 3.53996 6.01111 4.10484 6.01111Z" fill="#00358E"/>
<path d="M9.68785 6.01111C10.2527 6.01111 10.7107 5.57082 10.7107 5.02771C10.7107 4.48459 10.2527 4.04431 9.68785 4.04431C9.12296 4.04431 8.66504 4.48459 8.66504 5.02771C8.66504 5.57082 9.12296 6.01111 9.68785 6.01111Z" fill="#00358E"/>
<path d="M9.01535 9.851C8.18293 9.851 7.48778 9.55726 6.97859 9.20392C6.14175 9.77012 4.77801 10.1788 3.03791 9.45083C1.35094 8.74415 0.261719 7.08387 0.261719 5.21073C0.261719 2.33716 3.23716 0 6.89889 0C10.5606 0 13.5361 2.33716 13.5361 5.21073C13.5361 6.90932 12.5575 8.48446 10.9857 9.31886C10.2728 9.69774 9.60866 9.84674 9.01535 9.84674V9.851ZM6.97859 7.18604H6.98745C7.26639 7.18604 7.53648 7.31375 7.70031 7.53086C7.84643 7.70966 8.66999 8.61218 10.1267 7.83312C11.1362 7.29672 11.765 6.29204 11.765 5.21073C11.765 3.27373 9.5821 1.70285 6.89889 1.70285C4.21568 1.70285 2.03281 3.27799 2.03281 5.21073C2.03281 6.18561 2.56414 7.39464 3.74635 7.88846C5.38461 8.57386 6.1816 7.63729 6.27015 7.53086C6.43841 7.31801 6.70407 7.18604 6.98302 7.18604H6.97859Z" fill="#00358E"/>
<path d="M14.7002 20C12.8893 20 10.9455 19.9404 8.98401 19.5105C8.90431 19.4934 1.04066 17.5437 0.987526 9.70204C0.983098 9.01664 1.04509 8.35253 1.17349 7.73525L2.90916 8.0673C2.8029 8.5739 2.75419 9.11882 2.75862 9.68927C2.8029 16.1942 9.31609 17.8332 9.37808 17.8502C11.4148 18.2972 13.549 18.2972 14.7002 18.2972C15.661 18.2972 18.2158 18.2972 19.9161 17.8587C21.0186 17.5735 26.5311 15.8323 26.571 9.68927C26.5798 8.34402 26.2787 7.25845 25.7961 6.38574C25.8094 6.56879 25.8094 6.75611 25.7873 6.94342C25.4286 10.1533 23.1483 10.8387 23.0553 10.8685L22.5506 9.23801C22.586 9.22524 23.7992 8.79953 24.0295 6.76462C24.2154 5.08731 20.9477 3.2908 19.7877 2.79698C19.3892 2.62669 19.1811 2.20524 19.2918 1.80081C19.4025 1.39638 19.7965 1.12818 20.2393 1.17075C20.319 1.17927 28.3908 2.06475 28.3421 9.70204C28.2978 17.0796 21.7005 19.1614 20.3766 19.502C18.6675 19.9447 16.4447 20 14.7002 20Z" fill="#00358E"/>
<path d="M6.98205 7.15199C6.92006 7.15199 6.85807 7.14773 6.80051 7.13496C5.75557 6.9221 5.53861 6.41976 5.54303 6.03662C5.54303 5.87485 5.61831 5.05322 6.97319 5.05322C8.32808 5.05322 8.42549 5.87911 8.42549 6.04513C8.42549 6.36868 8.26166 6.93913 7.1503 7.13922C7.09717 7.14773 7.03961 7.15199 6.98648 7.15199H6.98205Z" fill="#2D9D00"/>
<path d="M37.6389 16.1558H35V3.60577H37.6389V9.07193H37.6743C38.1968 8.42485 39.4322 6.95188 39.9369 6.37291L42.3855 3.60577H45.6576L40.1406 9.46784L46.18 16.1558H42.6246L39.7465 12.7756C39.2595 12.218 38.3606 11.0685 37.6699 10.1149H37.6345V16.1558H37.6389Z" fill="#00358E"/>
<path d="M47.4863 5.13416V2.83105H49.9924V5.13416H47.4863ZM47.4863 6.89662H49.9924V16.1559H47.4863V6.89662Z" fill="#00358E"/>
<path d="M61.6325 13.3844C61.6325 14.3551 61.6503 15.381 61.7255 16.1516H59.4452C59.4098 15.7216 59.3877 15.1426 59.3877 14.5339H59.3523C58.6615 15.7216 57.6299 16.3687 56.1377 16.3687C53.5564 16.3687 51.9668 14.4615 51.9668 11.5326C51.9668 8.60367 53.6316 6.67945 56.1554 6.67945C57.5944 6.67945 58.5863 7.32653 59.184 8.33547H59.2194C59.184 7.63305 59.1619 6.66242 59.1619 5.76417V2.56281H61.6325V13.3887V13.3844ZM54.5482 11.5326C54.5482 13.2567 55.4293 14.5168 56.8285 14.5168C58.2276 14.5168 59.2017 13.2397 59.2017 11.5496C59.2017 9.85953 58.2675 8.52704 56.8063 8.52704C55.3452 8.52704 54.5437 9.80418 54.5437 11.5283L54.5482 11.5326Z" fill="#00358E"/>
<path d="M71.3385 5.88773C70.3113 5.49182 69.4877 5.34707 68.6818 5.34707C67.3004 5.34707 66.4193 5.90476 66.4193 6.76896C66.4193 7.54375 66.8488 8.02907 68.7748 8.69318C71.2057 9.51906 72.2329 10.6004 72.2329 12.4522C72.2329 14.8618 70.3245 16.373 67.3137 16.373C66.0606 16.373 64.9404 16.1942 63.8556 15.8324L64.0991 13.6187C65.2194 14.138 66.251 14.3381 67.1676 14.3381C68.549 14.3381 69.5408 13.7805 69.5408 12.7758C69.5408 11.8222 68.9962 11.3198 67.017 10.6174C64.6969 9.80855 63.7051 8.79961 63.7051 7.02013C63.7051 4.78939 65.5957 3.38879 68.3808 3.38879C69.5408 3.38879 70.5105 3.51651 71.5422 3.84005L71.3385 5.88773Z" fill="#2D9D00"/>
<path d="M72.6533 8.67607V6.89659H74.544V4.95534L76.8995 4.18054V6.89659H79.2019V8.67607H76.8995V12.2904C76.8995 13.691 77.1785 14.321 78.3961 14.321C78.6972 14.321 79.0337 14.2657 79.3126 14.1763L79.3702 16.0281C78.9009 16.1899 78.2854 16.2623 77.6478 16.2623C75.4428 16.2623 74.5041 15.2193 74.5041 12.7757V8.67607H72.6533Z" fill="#2D9D00"/>
<path d="M81.4071 7.3989C82.3812 6.91359 83.7273 6.67944 84.8652 6.67944C87.8583 6.67944 89.0361 8.15241 89.0361 10.4555C89.0361 11.1579 89.0007 12.5032 89.0007 13.2056C89.0007 14.304 89.0759 15.5428 89.1291 16.1558H86.9418C86.9241 16.0111 86.9064 15.6875 86.9064 15.4193C86.9064 15.2022 86.9241 14.8957 86.9418 14.6105H86.9064C86.2511 15.6535 85.2061 16.3346 83.5944 16.3346C81.7259 16.3346 80.3799 15.2576 80.3799 13.4568C80.3799 11.5155 82.1554 10.4342 85.3345 10.4342C85.7286 10.4342 86.2511 10.4513 86.6983 10.4896C86.6983 9.06769 86.0075 8.4419 84.4357 8.4419C83.4262 8.4419 82.3414 8.78247 81.5001 9.26778L81.4071 7.3989ZM85.9146 11.8561C83.9309 11.8561 82.8461 12.252 82.8461 13.3291C82.8461 14.1379 83.3907 14.5892 84.3427 14.5892C85.6533 14.5892 86.7381 13.7974 86.7381 11.8944C86.3839 11.8604 86.1979 11.8604 85.9146 11.8604V11.8561Z" fill="#2D9D00"/>
<path d="M93.685 8.65901C94.1898 7.43721 95.0886 6.67944 96.4523 6.67944C96.7534 6.67944 97.0147 6.69647 97.2759 6.78587L97.2183 8.85484C96.9394 8.76544 96.6782 8.73138 96.3594 8.73138C94.6768 8.73138 93.8533 9.97021 93.8533 12.3797V16.1558H91.3117V9.64666C91.3117 8.67604 91.294 7.6671 91.2188 6.89656H93.5743C93.6097 7.3095 93.6496 8.15667 93.6496 8.65901H93.685Z" fill="#2D9D00"/>
<path d="M97.9805 8.67607V6.89659H99.8711V4.95534L102.227 4.18054V6.89659H104.529V8.67607H102.227V12.2904C102.227 13.691 102.506 14.321 103.723 14.321C104.024 14.321 104.361 14.2657 104.64 14.1763L104.697 16.0281C104.228 16.1899 103.613 16.2623 102.975 16.2623C100.77 16.2623 99.8313 15.2193 99.8313 12.7757V8.67607H97.9805Z" fill="#2D9D00"/>
<path d="M108.053 12.201C108.089 13.6228 109.289 14.5381 111.029 14.5381C112.096 14.5381 113.03 14.2699 113.832 13.7846L113.867 15.7642C113.044 16.1431 111.941 16.3772 110.723 16.3772C107.562 16.3772 105.485 14.5977 105.485 11.4858C105.485 8.69734 107.411 6.68372 110.312 6.68372C113.212 6.68372 114.54 8.2844 114.54 11.6305C114.54 11.7752 114.522 12.0818 114.505 12.2052H108.053V12.201ZM112.242 10.5449C112.242 9.03365 111.458 8.38657 110.223 8.38657C109.121 8.38657 108.146 9.10602 108.018 10.5449H112.247H112.242Z" fill="#2D9D00"/>
<path d="M118.813 8.65901C119.318 7.43721 120.217 6.67944 121.58 6.67944C121.881 6.67944 122.143 6.69647 122.404 6.78587L122.346 8.85484C122.067 8.76544 121.802 8.73138 121.487 8.73138C119.805 8.73138 118.981 9.97021 118.981 12.3797V16.1558H116.44V9.64666C116.44 8.67604 116.422 7.6671 116.347 6.89656H118.702C118.738 7.3095 118.778 8.15667 118.778 8.65901H118.813Z" fill="#2D9D00"/>
</g>
<defs>
<clipPath id="clip0_65704_1785">
<rect width="122.5" height="20" fill="white"/>
</clipPath>
</defs>
</svg>
