<svg xmlns="http://www.w3.org/2000/svg" width="170" height="52" fill="none"><path fill="#fff" fill-rule="evenodd" d="M55.67 46.23h3.05v-15.2h-3.05zm16.4 0v-5.77c-.05-2.07-.07-3.25-.73-4.18-.39-.58-.75-.8-.96-.95a4 4 0 0 0-2.2-.56c-.84 0-1.52.11-2.38.59-.15.08-.64.34-1.07.81l-.43.52v-1.74h-2.8c.04 1 .09 1.72.09 2.71v8.57h2.93v-5.27c.02-1.32.1-2.52 1.13-3.32.62-.5 1.26-.52 1.45-.5.41 0 .7.11.86.18.4.19.64.43.83.8.32.62.37 1.33.39 2.66v5.45zm4.45-11.28h-3.17l4.2 11.28h3.26l4.13-11.28h-2.93l-1.62 5.01-.39 1.25a27 27 0 0 0-.66 2.8c-.09-.43-.13-.73-.24-1.16-.1-.52-.21-.86-.38-1.38-.17-.54-.28-.92-.47-1.46zM96.1 41.6q.02-.57.02-1.14c0-3.04-1.4-5.75-5.04-5.75-2 0-3.25.84-4.09 1.83q-.25.27-.42.56l-.35.67a7 7 0 0 0-.57 2.95c0 3.06 1.58 4.67 3.35 5.36 1.1.41 2.2.39 2.53.39 1.88 0 3.01-.47 3.87-.84l-.05-2.52c-.08.04-.51.34-.85.5-.86.43-1.78.62-2.63.62-.94 0-2.25-.26-3-1.5-.27-.44-.38-1.06-.4-1.13zm-7.63-2.04c.02-.22.06-.95.51-1.68.73-1.1 1.93-1.1 2.1-1.1.25 0 1.15.02 1.81.92.45.6.52 1.23.56 1.86zm17.21-4.36c-1.05-.23-1.9-.43-2.95-.43-.22 0-2.25-.06-3.57 1.21a3 3 0 0 0-.96 2.26c0 .97.36 1.6.77 2.03.8.9 1.77 1.1 2.92 1.53.52.19 1.37.45 1.37 1.2 0 .73-.8 1.2-1.98 1.2-1.31 0-2.3-.49-2.8-.72l-.16 2.45c1.24.3 2.04.5 3.28.5.25 0 1.24.02 2.11-.28.24-.09 1.14-.4 1.82-1.27.51-.67.66-1.4.66-2.07 0-.35-.02-2.1-1.84-2.93-.32-.15-.79-.3-1.51-.54-.7-.24-1.2-.39-1.5-.65a.8.8 0 0 1-.26-.56c0-.77.84-1.2 2.01-1.2a7 7 0 0 1 2.4.43zm6.88-3.42-2.8.9v2.27h-2.16v2.2h2.16v4.73c0 .22-.02.71.05 1.27.12 1.19.49 1.94 1.06 2.44.52.45 1.4.82 2.63.82.45 0 .95-.07 1.86-.3l-.06-2.31c-.17.04-.55.17-1.02.17-1.29 0-1.65-.8-1.72-1.87v-4.96h2.63v-2.2h-2.63zm22.05 7.67c0-.97-.03-1.92-.54-2.91-.96-1.8-2.63-1.77-2.97-1.77-.28 0-1.9-.06-3.12 1.3-.17.17-.37.38-.62.81a3.23 3.23 0 0 0-3.17-2.13c-.25 0-1.66.02-2.8 1.04-.23.19-.4.4-.75.88v-1.72h-2.78l.07 2.1v9.18h2.9v-5.36c0-1.62.22-2.6 1.05-3.25a2 2 0 0 1 1.24-.46c.11 0 .6 0 1 .35.73.6.71 1.66.71 2.3v6.42h2.9V41.9l.01-.8c.02-.92.02-2.58 1-3.44a1.84 1.84 0 0 1 2.27-.13c.71.56.71 1.5.71 2.9v5.8h2.89zm12.82 2.15q.02-.57.02-1.14c0-3.04-1.3-5.75-4.93-5.75a5.3 5.3 0 0 0-4.63 2.4l-.34.66a7 7 0 0 0-.58 2.95c0 3.06 1.59 4.67 3.36 5.36 1.1.41 2.2.39 2.52.39 1.89 0 3.02-.47 3.87-.84l-.04-2.52c-.08.04-.51.34-.85.5-.86.43-1.78.62-2.63.62-.94 0-2.25-.26-3-1.5-.28-.44-.38-1.06-.4-1.13zm-7.63-2.04c.02-.22.06-.95.51-1.68.73-1.1 1.92-1.1 2.1-1.1.25 0 1.15.02 1.81.92.45.6.52 1.23.56 1.86zm20.61 6.67v-5.77c-.04-2.07-.06-3.25-.72-4.18-.39-.58-.75-.8-.97-.95a4 4 0 0 0-2.2-.56c-.83 0-1.52.11-2.37.59-.15.08-.64.34-1.07.81l-.43.52v-1.74h-2.8c.04 1 .09 1.72.09 2.71v8.57h2.92v-5.27c.03-1.32.11-2.52 1.14-3.32.62-.5 1.26-.52 1.45-.5.4 0 .7.11.86.18.4.19.64.43.83.8.32.62.36 1.33.39 2.66v5.45zm6.64-14.45-2.8.9v2.27h-2.16v2.2h2.16v4.73c0 .22-.02.71.04 1.27.13 1.19.5 1.94 1.07 2.44.51.45 1.39.82 2.63.82.45 0 .94-.07 1.86-.3l-.06-2.31c-.17.04-.56.17-1.03.17-1.28 0-1.65-.8-1.71-1.87v-4.96h2.63v-2.2h-2.63zM67.7 20.21q.01.75-.04 1.49-.06.9-.38 1.79a4.9 4.9 0 0 1-2.87 2.73c-.92.35-1.88.43-2.86.43-1.22 0-2.96-.17-4.2-1.07-.27-.2-.42-.37-.55-.5a5 5 0 0 1-1.28-2.89c-.11-.81-.13-1.59-.15-2.39v-8.6h3.05v8.09c.03 2.06.07 3.23 1.03 4.18.45.43 1.18.81 2.27.8.19 0 1.04 0 1.8-.55 1.21-.92 1.25-2.34 1.25-3.33.03-.24.03-.41.03-.65V11.2h2.9zm13.16 6.2v-5.77c-.05-2.06-.07-3.25-.73-4.17-.39-.59-.75-.8-.96-.95a4 4 0 0 0-2.2-.56c-.84 0-1.52.1-2.38.58-.15.09-.64.34-1.07.82-.17.2-.28.32-.42.51v-1.74h-2.8c.04 1.01.08 1.72.08 2.71v8.58h2.93v-5.28c.02-1.31.1-2.52 1.13-3.32.62-.5 1.26-.51 1.46-.5.4 0 .7.11.85.18.4.2.64.43.84.8.32.62.36 1.33.38 2.67v5.45zm2.49 0h2.9V15.14h-2.9zm4.93-5.68a5.6 5.6 0 0 0 5.8 5.88c.31 0 1.3 0 2.3-.37 1.71-.62 3.53-2.34 3.53-5.47 0-.23 0-.84-.17-1.55-.13-.6-.7-2.75-3.08-3.81-.8-.35-1.7-.5-2.57-.5-1.43 0-2.5.43-3.08.76-.17.1-.57.32-1.09.8a6 6 0 0 0-1.64 4.26m3.05-.02c0-1.44.5-2.46 1.12-3 .1-.1.42-.34.79-.47a2.4 2.4 0 0 1 2.63.56c.83.84.94 1.96.96 2.82.02 1.53-.36 2.54-1 3.15-.33.3-.88.67-1.72.67-.15 0-.64 0-1.13-.26a3 3 0 0 1-.81-.67 4.6 4.6 0 0 1-.84-2.8m18.34 5.7v-5.44c-.02-1.34-.07-2.05-.39-2.67-.19-.37-.42-.6-.83-.8a2 2 0 0 0-.86-.17c-.19-.02-.83 0-1.45.5-1.03.79-1.11 2-1.13 3.3v5.29h-2.93v-8.58c0-.99-.05-1.7-.09-2.71h2.8v1.74l.43-.51c.43-.48.92-.73 1.07-.82a4.5 4.5 0 0 1 2.37-.58c1.07 0 1.76.28 2.2.56.22.15.58.36.97.95.66.92.68 2.1.72 4.17v5.78zM84.8 13.33a1.61 1.61 0 0 0 0-3.24c-.88 0-1.6.73-1.6 1.63s.72 1.61 1.6 1.61M0 28.9V13.8s6.95-1.28 11.57-2.16c2.67-.51 4.78 1 4.78 3.98v12.87c0 6.83 4.79 10.57 10.16 10.57 5.62 0 10.07-3.83 10.07-10.57V12.81c0-3.91-.16-5.78 3.23-6.5l3.23-.6v23.2c0 14.14-8.84 23.07-21.48 23.07C8.42 51.98 0 43.05 0 28.9M32.84 5.72a7.17 7.17 0 1 0-14.03 3 7.17 7.17 0 1 0 14.03-3" clip-rule="evenodd"/></svg>