<svg width="171" height="52" viewBox="0 0 171 52" fill="none" xmlns="http://www.w3.org/2000/svg">
<path d="M39.3704 8.98431V8.98501C39.3704 22.9902 27.9828 34.3832 13.9851 34.3832H13.9844V41.2086H13.9851C31.7444 41.2086 46.1929 26.7539 46.1929 8.98501V8.98431H39.3704Z" fill="#0C66B2"/>
<path d="M92.4467 35.9841H91.5331V40.9912H88.9508V24.5302H91.5331V33.7437H92.4467L95.6228 29.3546H98.5935L94.572 34.7495L98.7303 40.9912H95.6458L92.4467 35.9841ZM76.1557 40.9912V29.3546H78.2807L78.5548 30.5659H78.6234C79.4001 29.8574 80.4283 29.1256 82.028 29.1256C84.3589 29.1256 85.5239 30.6119 85.5239 32.6007V40.9912H82.942V33.3092C82.942 31.9379 82.3478 31.4347 81.274 31.4347C80.2232 31.4347 79.3315 32.0292 78.738 32.6694V40.9912H76.1557ZM67.7471 39.1393C68.9352 39.1393 69.7812 38.4761 70.1465 37.9733V36.1901C69.5067 36.1667 68.8209 36.1441 68.2044 36.1441C66.4905 36.1441 66.0568 36.693 66.0568 37.6304C66.0568 38.6361 66.5364 39.1393 67.7471 39.1393ZM66.9474 41.2198C64.6856 41.2198 63.4746 39.9168 63.4746 37.7677C63.4746 35.6416 64.7312 34.2926 67.7705 34.2926C68.6154 34.2926 69.4151 34.3156 70.1465 34.3383V33.2409C70.1465 32.0065 69.5294 31.3434 68.1355 31.3434C66.9248 31.3434 65.5995 31.8002 64.8228 32.3948L63.9998 30.4746C65.0283 29.6748 66.8106 29.1256 68.4556 29.1256C71.289 29.1256 72.7058 30.406 72.7058 32.9436V40.9912H70.5349L70.2608 39.8021H70.1922C69.8494 40.2137 68.8443 41.2198 66.9474 41.2198ZM52.9406 33.9037V38.6821H55.4773C57.5789 38.6821 58.4249 37.859 58.4249 36.2127C58.4249 34.6812 57.5789 33.9037 55.797 33.9037H52.9406ZM52.9406 27.2281V31.7546H55.0886C57.1219 31.7546 57.6935 30.8858 57.6935 29.5372C57.6935 28.0509 57.2135 27.2281 54.9287 27.2281H52.9406ZM50.3131 24.9877H55.1112C58.31 24.9877 60.2068 25.9248 60.2068 29.2173C60.2068 30.6576 59.7269 32.0292 58.4702 32.5321C60.4583 33.0809 61.0525 34.8185 61.0525 36.396C61.0525 39.6878 59.11 40.9912 55.5915 40.9912H50.3131V24.9877ZM16.6117 17.9003V22.6787H19.1484C21.25 22.6787 22.0957 21.8559 22.0957 20.2093C22.0957 18.6777 21.25 17.9003 19.4681 17.9003H16.6117ZM16.6117 11.2251V15.7512H18.7597C20.7934 15.7512 21.3646 14.8828 21.3646 13.5338C21.3646 12.0478 20.8847 11.2251 18.5998 11.2251H16.6117ZM13.9842 8.98431H18.7823C21.9811 8.98431 23.8779 9.92174 23.8779 13.2139C23.8779 14.6541 23.398 16.0261 22.1413 16.5286C24.1291 17.0775 24.7232 18.815 24.7232 20.3926C24.7232 23.6844 22.7815 24.9877 19.2623 24.9877H13.9842V8.98431ZM2.62756 17.9003V22.6787H5.16422C7.26654 22.6787 8.11186 21.8559 8.11186 20.2093C8.11186 18.6777 7.26654 17.9003 5.4843 17.9003H2.62756ZM2.62756 11.2251V15.7512H4.77586C6.80958 15.7512 7.38078 14.8828 7.38078 13.5338C7.38078 12.0478 6.90083 11.2251 4.61599 11.2251H2.62756ZM0 8.98431H4.7985C7.99762 8.98431 9.8941 9.92174 9.8941 13.2139C9.8941 14.6541 9.4145 16.0261 8.15749 16.5286C10.1456 17.0775 10.7394 18.815 10.7394 20.3926C10.7394 23.6844 8.79731 24.9877 5.27846 24.9877H0V8.98431Z" fill="black"/>
<path d="M107.408 34.1076H109.485C110.863 34.1076 111.68 34.5116 111.68 35.9296C111.68 36.4122 111.493 37.1608 110.932 37.3576C111.788 37.5941 112.044 38.3427 112.044 39.0222C112.044 40.4404 111.197 41.0017 109.682 41.0017H107.408V34.1076ZM108.54 35.0728V37.0228H109.465C110.341 37.0228 110.597 36.6485 110.597 36.0676C110.597 35.4273 110.38 35.0728 109.396 35.0728H108.54ZM108.54 37.9486V40.007H109.642C110.538 40.007 110.912 39.6525 110.912 38.9434C110.912 38.2834 110.548 37.9486 109.78 37.9486H108.54Z" fill="#0C66B2"/>
<path d="M117.073 38.904H114.15C114.16 39.4063 114.219 39.6229 114.406 39.8395C114.573 40.0365 114.859 40.145 115.213 40.145C115.754 40.145 116.256 39.948 116.562 39.6623L116.985 40.46C116.532 40.854 115.912 41.1001 115.095 41.1001C114.406 41.1001 113.894 40.8737 113.559 40.5193C113.116 40.0463 113.028 39.5245 113.028 38.5001C113.028 37.4463 113.156 36.8751 113.638 36.4123C113.992 36.1071 114.445 35.8903 115.085 35.8903C115.725 35.8903 116.217 36.0872 116.542 36.4123C117.054 36.9343 117.113 37.6631 117.073 38.904ZM114.14 38.0669H116C115.981 37.5548 115.941 37.2691 115.764 37.082C115.607 36.9046 115.371 36.826 115.085 36.826C114.8 36.826 114.563 36.9046 114.396 37.082C114.209 37.2888 114.16 37.5351 114.14 38.0669Z" fill="#0C66B2"/>
<path d="M117.881 35.9888H118.511L118.668 34.738H119.594V35.9888H120.893V36.9245H119.594V39.6131C119.594 39.9577 119.761 40.1154 120.086 40.1154C120.381 40.1154 120.578 40.0464 120.765 39.9676L120.942 40.8245C120.686 40.9624 120.273 41.061 119.8 41.061C118.875 41.061 118.481 40.5193 118.481 39.7411V36.9245H117.881V35.9888Z" fill="#0C66B2"/>
<path d="M121.542 35.9888H122.172L122.33 34.738H123.255V35.9888H124.555V36.9245H123.255V39.6131C123.255 39.9577 123.423 40.1154 123.747 40.1154C124.043 40.1154 124.24 40.0464 124.427 39.9676L124.604 40.8245C124.348 40.9624 123.934 41.061 123.462 41.061C122.537 41.061 122.143 40.5193 122.143 39.7411V36.9245H121.542V35.9888Z" fill="#0C66B2"/>
<path d="M129.397 38.904H126.474C126.483 39.4063 126.542 39.6229 126.73 39.8395C126.897 40.0365 127.182 40.145 127.537 40.145C128.078 40.145 128.58 39.948 128.885 39.6623L129.309 40.46C128.856 40.854 128.236 41.1001 127.419 41.1001C126.73 41.1001 126.218 40.8737 125.883 40.5193C125.44 40.0463 125.352 39.5245 125.352 38.5001C125.352 37.4463 125.479 36.8751 125.962 36.4123C126.316 36.1071 126.769 35.8903 127.409 35.8903C128.049 35.8903 128.541 36.0872 128.866 36.4123C129.378 36.9343 129.437 37.6631 129.397 38.904ZM126.464 38.0669H128.324C128.305 37.5548 128.265 37.2691 128.088 37.082C127.93 36.9046 127.694 36.826 127.409 36.826C127.123 36.826 126.887 36.9046 126.72 37.082C126.533 37.2888 126.483 37.5351 126.464 38.0669Z" fill="#0C66B2"/>
<path d="M130.618 41.0017V35.9888H131.543L131.661 36.5994H131.691C132.015 36.1956 132.478 35.8903 133.157 35.8903V36.9637C132.478 36.944 132.015 37.1608 131.73 37.5743V41.0017H130.618Z" fill="#0C66B2"/>
<path d="M136.356 34.1076H138.434C139.812 34.1076 140.629 34.5116 140.629 35.9296C140.629 36.4122 140.442 37.1608 139.88 37.3576C140.737 37.5941 140.993 38.3427 140.993 39.0222C140.993 40.4404 140.146 41.0017 138.63 41.0017H136.356V34.1076ZM137.488 35.0728V37.0228H138.414C139.29 37.0228 139.546 36.6485 139.546 36.0676C139.546 35.4273 139.329 35.0728 138.345 35.0728H137.488ZM137.488 37.9486V40.007H138.591C139.487 40.007 139.861 39.6525 139.861 38.9434C139.861 38.2834 139.497 37.9486 138.729 37.9486H137.488Z" fill="#0C66B2"/>
<path d="M143.384 41.1002C142.4 41.1002 141.888 40.5389 141.888 39.6131C141.888 38.6972 142.42 38.1161 143.739 38.1161C144.103 38.1161 144.437 38.126 144.753 38.1358V37.6632C144.753 37.1312 144.487 36.8456 143.896 36.8456C143.374 36.8456 142.803 37.0426 142.469 37.2986L142.114 36.4713C142.557 36.1266 143.325 35.8901 144.034 35.8901C145.245 35.8901 145.855 36.4418 145.855 37.5351V41.0018H144.93L144.812 40.4897H144.782C144.634 40.6669 144.201 41.1002 143.384 41.1002ZM143.729 40.204C144.241 40.204 144.605 39.9183 144.753 39.7018V38.9335C144.477 38.9238 144.182 38.9138 143.926 38.9138C143.187 38.9138 143 39.1503 143 39.554C143 39.9874 143.207 40.204 143.729 40.204Z" fill="#0C66B2"/>
<path d="M147.272 41.0017V35.9888H148.197L148.315 36.5108H148.345C148.67 36.2054 149.123 35.8903 149.802 35.8903C150.806 35.8903 151.318 36.5305 151.318 37.3874V41.0017H150.205V37.6926C150.205 37.1017 149.949 36.8851 149.487 36.8851C149.024 36.8851 148.64 37.1411 148.384 37.4168V41.0017H147.272Z" fill="#0C66B2"/>
<path d="M152.735 33.9107V41.0016H153.848V38.845H154.251L155.619 41.0016H156.958L155.157 38.313L156.899 35.9887H155.61L154.251 37.8798H153.848V33.9107H152.735Z" fill="#0C66B2"/>
<path d="M157.371 35.9888H159.182V41.0017H158.07V36.9245H157.371V35.9888ZM158.631 34.0485C159.074 34.0485 159.34 34.3145 159.34 34.6985C159.34 35.0826 159.074 35.3585 158.631 35.3585C158.208 35.3585 157.922 35.0826 157.922 34.6985C157.922 34.3145 158.208 34.0485 158.631 34.0485Z" fill="#0C66B2"/>
<path d="M160.639 41.0017V35.9888H161.564L161.682 36.5108H161.712C162.037 36.2054 162.489 35.8903 163.169 35.8903C164.173 35.8903 164.684 36.5305 164.684 37.3874V41.0017H163.572V37.6926C163.572 37.1017 163.316 36.8851 162.853 36.8851C162.391 36.8851 162.007 37.1411 161.751 37.4168V41.0017H160.639Z" fill="#0C66B2"/>
<path d="M167.972 42.9913C167.224 42.9913 166.456 42.7548 166.013 42.43L166.368 41.583C166.702 41.829 167.313 42.0458 167.854 42.0458C168.592 42.0458 168.888 41.6714 168.888 41.0412C168.888 40.785 168.897 40.6176 168.917 40.391H168.888C168.612 40.6965 168.179 40.9525 167.578 40.9525C167.066 40.9525 166.633 40.7458 166.387 40.4601C165.984 40.007 165.885 39.5047 165.885 38.4216C165.885 37.3971 165.994 36.8259 166.407 36.4025C166.722 36.0676 167.165 35.8902 167.765 35.8902C168.277 35.8902 168.71 36.0676 169.006 36.2547L169.065 35.9888H170V41.0412C170 42.3512 169.271 42.9913 167.972 42.9913ZM167.913 39.9873C168.307 39.9873 168.671 39.8002 168.888 39.5245V37.082C168.602 36.9245 168.307 36.8358 167.962 36.8358C167.706 36.8358 167.46 36.9046 167.273 37.1114C167.057 37.3577 166.998 37.6531 166.998 38.4114C166.998 39.1896 167.057 39.4653 167.244 39.7215C167.391 39.889 167.608 39.9873 167.913 39.9873Z" fill="#0C66B2"/>
</svg>
