<svg width="156" height="48" viewBox="0 0 156 48" fill="none" xmlns="http://www.w3.org/2000/svg">
<g clip-path="url(#clip0_66465_132530)">
<path d="M2.08398 9.1272H153.917V37.867H2.08398V9.1272Z" fill="white" stroke="white" stroke-width="15.2201" stroke-miterlimit="3.864"/>
<path d="M2.0957 31.6765H153.916V9.1272H2.0957V31.6765Z" fill="#0066B4"/>
<path d="M128.38 14.6142H124.298V16.0851H125.069C125.562 16.0851 125.726 16.3025 125.726 16.8909V24.4371C125.726 25.0383 125.562 25.2557 125.069 25.2557H124.298V26.7266H129.327V25.2557H129.037C128.544 25.2557 128.38 25.0511 128.38 24.4371V23.5674L129.492 22.7232L130.869 24.7313C130.92 24.7953 130.995 24.9615 130.995 25.0127C130.995 25.179 130.856 25.2557 130.528 25.2557H130.086V26.7266H135.254V25.2685H134.887C134.584 25.2685 134.445 25.1662 133.952 24.4883L131.602 21.15L133.004 20.0756C133.586 19.6536 133.927 19.5257 134.571 19.5257H135.254V18.0548H129.744V19.5257H130.591C130.92 19.5257 130.995 19.564 130.995 19.7559C130.995 19.8326 130.907 19.9861 130.768 20.0756L128.38 21.8535V14.6142ZM116.793 18.0548H112.901V19.5257H113.621C114.101 19.5257 114.265 19.7559 114.265 20.3442V24.4371C114.265 25.0383 114.101 25.2557 113.621 25.2557H112.901V26.7266H118.018V25.2557H117.576C117.083 25.2557 116.919 25.0383 116.919 24.4371V21.6872C116.919 20.178 117.45 19.5129 118.612 19.5129C119.547 19.5129 119.901 19.9989 119.901 21.2524V24.4371C119.901 25.0383 119.737 25.2557 119.257 25.2557H118.776V26.7266H123.97V25.2557H123.224C122.719 25.2557 122.555 25.0383 122.555 24.4371V20.3698C122.555 18.7455 121.493 17.7862 119.724 17.7862C118.498 17.7862 117.778 18.1699 116.742 19.3722L116.793 18.0548ZM111.384 23.529V24.5651C111.384 25.1662 111.283 25.3836 110.967 25.3836C110.715 25.3836 110.614 25.2174 110.614 24.7569V20.728C110.614 18.6175 109.464 17.7862 106.608 17.7862C104.258 17.7862 102.982 18.6048 102.982 20.114C102.982 20.9838 103.613 21.6361 104.435 21.6361C105.205 21.6361 105.749 21.0861 105.749 20.3442C105.749 19.8582 105.483 19.5512 104.927 19.3082C105.281 19.1292 105.483 19.0908 105.964 19.0908C107.252 19.0908 107.998 19.5896 107.998 20.4721C107.998 21.2268 107.619 21.5465 106.33 21.8407L105.964 21.9047L105.622 21.9814L105.281 22.0709C104.814 22.186 104.422 22.2884 104.131 22.4035C103.184 22.7232 102.666 23.529 102.666 24.629C102.666 26.1255 103.651 27.0336 105.269 27.0336C106.393 27.0336 107.328 26.5731 108.049 25.7034C108.44 26.6371 109.11 27.0336 110.323 27.0336C111.865 27.0336 112.585 26.2534 112.585 24.5651V23.529H111.384ZM107.96 24.0151C107.96 24.7057 107.189 25.3453 106.355 25.3453C105.736 25.3453 105.332 24.9488 105.332 24.322C105.332 23.7081 105.572 23.4779 106.482 23.1837C106.76 23.1069 106.937 23.0302 107.96 22.6721V24.0151ZM89.3221 14.6142V16.0979H90.2572C90.9774 16.0979 91.2302 16.3281 91.2302 16.9548V24.386C91.2302 24.9999 90.9774 25.2301 90.2572 25.2301H89.3221V26.7266H97.4976C100.202 26.7266 101.895 25.4348 101.895 23.3755C101.895 21.764 100.972 20.7663 99.1402 20.3698C100.871 19.7559 101.566 18.9629 101.566 17.6711C101.566 15.6758 100.126 14.6142 97.4344 14.6142H89.3221ZM94.187 19.7303V16.1746H96.1961C97.8514 16.1746 98.4579 16.6478 98.4579 17.9269C98.4579 19.1803 97.7756 19.7303 96.1708 19.7303H94.187ZM94.187 25.2301V21.2907H96.4993C97.9272 21.2907 98.6601 21.9686 98.6601 23.2349C98.6601 24.6162 97.9651 25.2301 96.3603 25.2301H94.187ZM83.775 23.4395H88.9936V21.1628H83.775V23.4395ZM81.7659 23.529V24.5651C81.7659 25.1662 81.6521 25.3836 81.3489 25.3836C81.0962 25.3836 80.9951 25.2174 80.9951 24.7569V20.728C80.9951 18.6175 79.8452 17.7862 76.9895 17.7862C74.6392 17.7862 73.363 18.6048 73.363 20.114C73.363 20.9838 73.9948 21.6361 74.8161 21.6361C75.5869 21.6361 76.1303 21.0861 76.1303 20.3442C76.1303 19.8582 75.8649 19.5512 75.3089 19.3082C75.6627 19.1292 75.8649 19.0908 76.3451 19.0908C77.6339 19.0908 78.3795 19.5896 78.3795 20.4721C78.3795 21.2268 78.0004 21.5465 76.6989 21.8407L76.3451 21.9047L76.0039 21.9814L75.6627 22.0709C75.1952 22.186 74.8035 22.2884 74.5129 22.4035C73.5652 22.7232 73.0471 23.529 73.0471 24.629C73.0471 26.1255 74.0327 27.0336 75.6501 27.0336C76.7747 27.0336 77.7097 26.5731 78.43 25.7034C78.8217 26.6371 79.4788 27.0336 80.7045 27.0336C82.246 27.0336 82.9663 26.2534 82.9663 24.5651V23.529H81.7659ZM78.3415 24.0151C78.3415 24.7057 77.5708 25.3453 76.7368 25.3453C76.105 25.3453 75.7133 24.9488 75.7133 24.322C75.7133 23.7081 75.9534 23.4779 76.8631 23.1837C77.1411 23.1069 77.318 23.0302 78.3415 22.6721V24.0151ZM70.9748 14.6142H66.8555V16.0851H67.6263C68.1065 16.0851 68.2707 16.3025 68.2707 16.8909V19.0268C67.4368 18.0931 66.7923 17.7862 65.7941 17.7862C63.5828 17.7862 62.0412 19.7815 62.0412 22.6337C62.0412 25.2941 63.507 27.0336 65.7562 27.0336C66.8808 27.0336 67.7653 26.6115 68.4603 25.729V26.7266H72.3395V25.2557H71.6192C71.1391 25.2557 70.9748 25.0383 70.9748 24.4371V14.6142ZM66.6912 19.5512C67.8032 19.5512 68.4476 20.6256 68.4476 22.4419C68.4476 24.2837 67.7274 25.4859 66.6028 25.4859C65.4656 25.4859 64.8717 24.4755 64.8717 22.5953C64.8717 20.6896 65.554 19.5512 66.6912 19.5512ZM57.5934 18.0548H53.4867V19.5257H54.2954C54.7756 19.5257 54.9399 19.7559 54.9399 20.3442V24.4371C54.9399 25.0383 54.7756 25.2557 54.2954 25.2557H53.4867V26.7266H59.2613V25.2557H58.2252C57.7577 25.2557 57.5934 25.0383 57.5934 24.4371V22.2756C57.5934 20.4082 58.2757 19.1164 59.2613 19.1164C58.9075 19.5896 58.7938 19.8326 58.7938 20.1652C58.7938 20.907 59.3498 21.4698 60.07 21.4698C60.9925 21.4698 61.5611 20.8431 61.5611 19.807C61.5611 18.6559 60.8282 17.8629 59.7794 17.8629C58.8696 17.8629 58.3642 18.1699 57.505 19.3466L57.5934 18.0548ZM52.021 23.529V24.5651C52.021 25.1662 51.9073 25.3836 51.604 25.3836C51.3513 25.3836 51.2502 25.2174 51.2502 24.7569V20.728C51.2502 18.6175 50.1003 17.7862 47.2446 17.7862C44.8943 17.7862 43.6181 18.6048 43.6181 20.114C43.6181 20.9838 44.2499 21.6361 45.0712 21.6361C45.842 21.6361 46.3854 21.0861 46.3854 20.3442C46.3854 19.8582 46.12 19.5512 45.564 19.3082C45.9178 19.1292 46.12 19.0908 46.6002 19.0908C47.889 19.0908 48.6346 19.5896 48.6346 20.4721C48.6346 21.2268 48.2555 21.5465 46.9666 21.8407L46.6002 21.9047L46.259 21.9814L45.9178 22.0709C45.4503 22.186 45.0586 22.2884 44.768 22.4035C43.8203 22.7232 43.3022 23.529 43.3022 24.629C43.3022 26.1255 44.2878 27.0336 45.9052 27.0336C47.0298 27.0336 47.9648 26.5731 48.6851 25.7034C49.0768 26.6371 49.7465 27.0336 50.9596 27.0336C52.5011 27.0336 53.2214 26.2534 53.2214 24.5651V23.529H52.021ZM48.5966 24.0151C48.5966 24.7057 47.8259 25.3453 46.9919 25.3453C46.3727 25.3453 45.9684 24.9488 45.9684 24.322C45.9684 23.7081 46.2085 23.4779 47.1182 23.1837C47.3962 23.1069 47.5731 23.0302 48.5966 22.6721V24.0151ZM35.9228 18.0548H31.892V19.5257H32.6249C33.105 19.5257 33.2693 19.7559 33.2693 20.3442V28.0824C33.2693 28.6835 33.105 28.901 32.6249 28.901H31.892V30.3719H37.4265V28.901H36.5673C36.0871 28.901 35.9228 28.6835 35.9228 28.0824V25.9592C36.6178 26.701 37.376 27.0336 38.3995 27.0336C40.8256 27.0336 42.1523 25.2941 42.1523 22.1221C42.1523 19.4233 40.8256 17.7862 38.6143 17.7862C37.4265 17.7862 36.6178 18.1827 35.8849 19.1164L35.9228 18.0548ZM37.6413 19.5001C38.728 19.5001 39.3093 20.4977 39.3093 22.3139C39.3093 24.3092 38.728 25.3836 37.6161 25.3836C36.4662 25.3836 35.8849 24.4371 35.8849 22.5058C35.8849 20.5617 36.5167 19.5001 37.6413 19.5001ZM30.8306 14.6142H29.4154L29.1626 15.4328C28.2149 14.6142 27.103 14.2305 25.6625 14.2305C22.6804 14.2305 20.7977 15.7909 20.7977 18.2722C20.7977 19.1803 21.0378 19.9094 21.5179 20.4977C22.036 21.1117 22.7562 21.457 24.3357 21.8151L24.9422 21.9686L25.5361 22.1093L26.1427 22.25C26.825 22.4035 27.3683 22.5442 27.7474 22.6849C28.3413 22.8895 28.6067 23.2349 28.6067 23.7976C28.6067 24.7825 27.7095 25.4092 26.3196 25.4092C25.0307 25.4092 23.7418 24.8592 23.1479 24.0534C22.8447 23.6569 22.6804 23.2221 22.453 22.2372H20.7598V26.7266H22.175L22.5541 25.7418C23.666 26.6882 24.9043 27.1103 26.5975 27.1103C29.5417 27.1103 31.3107 25.5627 31.3107 23.0174C31.3107 21.5337 30.6663 20.5105 29.3901 19.9477C28.6193 19.628 28.1518 19.5129 25.7889 19.0013C23.9187 18.6175 23.3249 18.2594 23.3249 17.4664C23.3249 16.4943 24.2978 15.8037 25.6246 15.8037C27.6211 15.8037 28.9099 16.9676 29.1626 18.9629H30.8306V14.6142Z" fill="white"/>
<path d="M2.08398 37.8671H153.917V33.4673H2.08398V37.8671Z" fill="#F46F21"/>
</g>
<defs>
<clipPath id="clip0_66465_132530">
<rect width="156" height="33" fill="white" transform="translate(0 7)"/>
</clipPath>
</defs>
</svg>
