<svg width="130" height="40" viewBox="0 0 130 40" fill="none" xmlns="http://www.w3.org/2000/svg">
<path fill-rule="evenodd" clip-rule="evenodd" d="M42.6057 35.5808H44.9462V23.8775H42.6057V35.5808ZM55.1574 35.5808V31.1377C55.1243 29.5467 55.1078 28.6346 54.6007 27.9221C54.3058 27.4749 54.0282 27.3087 53.8642 27.1929C53.5204 26.9773 52.9968 26.7616 52.1782 26.7616C51.5403 26.7616 51.0167 26.8447 50.3613 27.2097C50.247 27.276 49.8709 27.4749 49.5436 27.8391C49.4127 27.9884 49.3307 28.0875 49.2163 28.2368V26.8942H47.0722C47.1045 27.6737 47.1377 28.2208 47.1377 28.9828V35.5808H49.3796V31.5195C49.3961 30.5083 49.4616 29.5794 50.247 28.9668C50.7217 28.5851 51.213 28.5683 51.3597 28.5851C51.6712 28.5851 51.8999 28.6681 52.015 28.7176C52.3257 28.867 52.5055 29.0491 52.6529 29.331C52.8982 29.8118 52.9313 30.359 52.9479 31.3869V35.5808H55.1574ZM58.5641 26.8942H56.1416L59.3495 35.5808H61.8532L65.0122 26.8942H62.7703L61.5259 30.7567C61.4116 31.1049 61.3462 31.3701 61.2318 31.7183C61.0023 32.5138 60.8714 33.0777 60.724 33.8732C60.6585 33.5418 60.6262 33.3093 60.5442 32.9779C60.4622 32.5801 60.3809 32.315 60.25 31.9172C60.1183 31.5027 60.0371 31.204 59.8897 30.7903L58.5641 26.8942ZM73.5548 32.0162C73.5706 31.7183 73.5706 31.4364 73.5706 31.1377C73.5706 28.8007 72.491 26.7121 69.7082 26.7121C68.1862 26.7121 67.221 27.3583 66.5823 28.121C66.4514 28.2536 66.3536 28.403 66.255 28.5523C66.2384 28.6018 66.091 28.867 65.9932 29.0659C65.7968 29.5131 65.5516 30.2591 65.5516 31.3366C65.5516 33.6911 66.7621 34.9339 68.1208 35.4642C68.9559 35.7797 69.8067 35.7629 70.052 35.7629C71.4927 35.7629 72.3601 35.3979 73.0146 35.1168L72.9815 33.1768C72.9161 33.2103 72.5888 33.4419 72.327 33.5585C71.6725 33.89 70.9683 34.0385 70.3138 34.0385C69.5938 34.0385 68.5955 33.8397 68.0222 32.8788C67.8101 32.5474 67.7281 32.0666 67.7115 32.0162H73.5548ZM67.7115 30.442C67.7281 30.2759 67.7604 29.712 68.1042 29.1489C68.6609 28.3031 69.5773 28.3031 69.7082 28.3031C69.9045 28.3031 70.5922 28.3199 71.0992 29.0163C71.443 29.4804 71.4927 29.9612 71.525 30.442H67.7115ZM80.8854 27.0931C80.0834 26.911 79.4289 26.7616 78.6269 26.7616C78.4629 26.7616 76.9078 26.7121 75.8937 27.6897C75.3204 28.2536 75.1572 28.867 75.1572 29.4309C75.1572 30.1769 75.4348 30.6569 75.7463 30.9891C76.3684 31.6848 77.1042 31.8341 77.9882 32.1656C78.3809 32.315 79.0362 32.5138 79.0362 33.0937C79.0362 33.6576 78.414 34.0226 77.5135 34.0226C76.5151 34.0226 75.7628 33.6408 75.3693 33.4587L75.255 35.3484C76.2044 35.5808 76.81 35.7294 77.7595 35.7294C77.9558 35.7294 78.7081 35.7462 79.3792 35.5145C79.5598 35.4482 80.2466 35.2158 80.771 34.5361C81.1637 34.0226 81.2781 33.4587 81.2781 32.9451C81.2781 32.68 81.2615 31.3366 79.8705 30.6904C79.6252 30.5746 79.2649 30.458 78.7081 30.2759C78.1688 30.0938 77.7918 29.978 77.5631 29.7783C77.4322 29.6625 77.3668 29.4804 77.3668 29.3478C77.3668 28.7512 78.0047 28.4197 78.9053 28.4197C79.5598 28.403 80.0668 28.5523 80.7379 28.7512L80.8854 27.0931ZM86.1538 24.4574L84.0105 25.1539V26.8942H82.3569V28.5851H84.0105V32.2319C84.0105 32.398 83.9939 32.779 84.0428 33.2103C84.1414 34.1216 84.419 34.7023 84.8614 35.0832C85.2541 35.4315 85.9251 35.7134 86.8746 35.7134C87.2176 35.7134 87.5946 35.6631 88.298 35.481L88.2491 33.7071C88.1182 33.7406 87.8232 33.8397 87.4636 33.8397C86.4811 33.8397 86.2035 33.2263 86.1538 32.398V28.5851H88.1671V26.8942H86.1538V24.4574ZM103.025 30.359C103.025 29.613 103.009 28.8838 102.616 28.121C101.88 26.7289 100.603 26.7616 100.341 26.7616C100.128 26.7616 98.8845 26.7121 97.9517 27.756C97.8207 27.8886 97.6733 28.0547 97.4769 28.3862C97.3784 28.1705 97.3295 28.0547 97.1986 27.8391C96.6095 26.9605 95.7421 26.7449 95.0544 26.7449C94.8581 26.7449 93.7777 26.7616 92.9103 27.5412C92.7305 27.6897 92.5996 27.8558 92.3378 28.2208V26.8942H90.2102C90.226 27.4908 90.2426 27.9221 90.2591 28.5188V35.5808H92.4845V31.4532C92.4845 30.2096 92.6485 29.4468 93.2865 28.9501C93.68 28.6346 94.105 28.6018 94.2359 28.6018C94.3179 28.6018 94.6941 28.6018 95.0055 28.867C95.5615 29.331 95.5457 30.1433 95.5457 30.6409V35.5808H97.7553V32.2487C97.7553 32.0162 97.7553 31.8509 97.7711 31.6353C97.7876 30.9228 97.7876 29.6457 98.5407 28.9828C98.7205 28.8334 99.0154 28.6346 99.4736 28.6346C99.5556 28.6346 99.9318 28.6346 100.276 28.8838C100.816 29.3143 100.816 30.0443 100.816 31.1217V35.5808H103.025V30.359ZM112.84 32.0162C112.856 31.7183 112.856 31.4364 112.856 31.1377C112.856 28.8007 111.863 26.7121 109.081 26.7121C107.559 26.7121 106.506 27.3583 105.867 28.121C105.736 28.2536 105.639 28.403 105.54 28.5523C105.524 28.6018 105.377 28.867 105.278 29.0659C105.082 29.5131 104.837 30.2591 104.837 31.3366C104.837 33.6911 106.048 34.9339 107.406 35.4642C108.241 35.7797 109.092 35.7629 109.337 35.7629C110.778 35.7629 111.645 35.3979 112.3 35.1168L112.267 33.1768C112.202 33.2103 111.874 33.4419 111.612 33.5585C110.958 33.89 110.254 34.0385 109.599 34.0385C108.879 34.0385 107.881 33.8397 107.308 32.8788C107.095 32.5474 107.013 32.0666 106.997 32.0162H112.84ZM106.997 30.442C107.013 30.2759 107.046 29.712 107.39 29.1489C107.946 28.3031 108.863 28.3031 108.994 28.3031C109.19 28.3031 109.877 28.3199 110.385 29.0163C110.729 29.4804 110.778 29.9612 110.81 30.442H106.997ZM122.777 35.5808V31.1377C122.744 29.5467 122.727 28.6346 122.22 27.9221C121.925 27.4749 121.647 27.3087 121.483 27.1929C121.14 26.9773 120.616 26.7616 119.797 26.7616C119.16 26.7616 118.636 26.8447 117.981 27.2097C117.866 27.276 117.49 27.4749 117.163 27.8391C117.032 27.9884 116.95 28.0875 116.836 28.2368V26.8942H114.691C114.724 27.6737 114.757 28.2208 114.757 28.9828V35.5808H116.999V31.5195C117.015 30.5083 117.081 29.5794 117.866 28.9668C118.341 28.5851 118.832 28.5683 118.98 28.5851C119.29 28.5851 119.519 28.6681 119.634 28.7176C119.945 28.867 120.125 29.0491 120.272 29.331C120.518 29.8118 120.551 30.359 120.567 31.3869V35.5808H122.777ZM127.856 24.4574L125.712 25.1539V26.8942H124.059V28.5851H125.712V32.2319C125.712 32.398 125.695 32.779 125.745 33.2103C125.843 34.1216 126.121 34.7023 126.563 35.0832C126.955 35.4315 127.626 35.7134 128.576 35.7134C128.92 35.7134 129.296 35.6631 130 35.481L129.951 33.7071C129.82 33.7406 129.525 33.8397 129.165 33.8397C128.183 33.8397 127.905 33.2263 127.856 32.398V28.5851H129.869V26.8942H127.856V24.4574ZM51.8265 15.5559C51.8265 15.9369 51.8265 16.3187 51.7942 16.6997C51.7611 17.1637 51.6633 17.6278 51.4993 18.0758C51.3195 18.5231 51.0411 18.9544 50.6973 19.3018C50.3046 19.7004 49.8141 19.9983 49.3062 20.1804C48.6028 20.4464 47.8663 20.5126 47.1132 20.5126C46.1803 20.5126 44.8547 20.3801 43.9053 19.6836C43.6924 19.5342 43.5781 19.4017 43.4795 19.3018C42.8092 18.6062 42.5963 17.7771 42.4977 17.0807C42.4157 16.4513 42.3999 15.8539 42.3834 15.2413V8.62647H44.7238V14.8427C44.7404 16.4345 44.7727 17.3298 45.5093 18.0591C45.8531 18.3905 46.4098 18.6892 47.2441 18.6725C47.3916 18.6725 48.0461 18.6725 48.6186 18.2579C49.5515 17.5447 49.5846 16.4513 49.5846 15.6885C49.6012 15.5064 49.6012 15.3738 49.6012 15.1909V8.62647H51.8265V15.5559ZM61.8942 20.3297V15.8874C61.8611 14.2964 61.8445 13.3843 61.3375 12.6719C61.0426 12.2238 60.765 12.0585 60.601 11.9419C60.2571 11.727 59.7335 11.5114 58.915 11.5114C58.277 11.5114 57.7534 11.5936 57.0981 11.9586C56.9838 12.0249 56.6076 12.2238 56.2804 12.5888C56.1495 12.7382 56.0675 12.8372 55.9531 12.9865V11.6439H53.809C53.8413 12.4227 53.8744 12.9698 53.8744 13.7325V20.3297H56.1163V16.2684C56.1329 15.2572 56.1984 14.3292 56.9838 13.7158C57.4585 13.3348 57.9498 13.318 58.0964 13.3348C58.4079 13.3348 58.6366 13.417 58.7518 13.4674C59.0624 13.6167 59.2422 13.7988 59.3897 14.0808C59.635 14.5616 59.6681 15.1087 59.6846 16.1358V20.3297H61.8942ZM63.8018 20.3297H66.0279V11.6431H63.8018V20.3297ZM67.5727 15.9537C67.5562 18.4233 69.0781 19.7667 70.4037 20.2307C70.9273 20.4128 71.4675 20.4791 72.0076 20.4791C72.2537 20.4791 73.006 20.4791 73.7756 20.1972C75.0846 19.7163 76.4757 18.3905 76.4757 15.9872C76.4757 15.8043 76.4757 15.3403 76.3448 14.7932C76.247 14.3292 75.8046 12.6719 73.9885 11.8596C73.3829 11.5936 72.6953 11.4778 72.0242 11.4778C70.9273 11.4778 70.1096 11.8093 69.6672 12.0585C69.5363 12.1407 69.2256 12.3069 68.8328 12.6719C68.1783 13.318 67.5885 14.3954 67.5727 15.9537ZM69.9132 15.9369C69.9132 14.8267 70.2893 14.0472 70.7641 13.6327C70.8461 13.5504 71.0913 13.3675 71.3697 13.2685C71.5826 13.1854 71.8113 13.1359 72.0408 13.1359C72.6953 13.1359 73.088 13.4011 73.3829 13.699C74.0209 14.3459 74.1029 15.2077 74.1194 15.8706C74.1352 17.0479 73.8411 17.8266 73.3498 18.2907C73.1045 18.5231 72.6787 18.805 72.0408 18.805C71.9256 18.805 71.5495 18.805 71.1733 18.6062C71.0748 18.5558 70.813 18.4073 70.5511 18.0918C70.2404 17.7108 69.9132 16.9321 69.9132 15.9369ZM83.945 20.3297V16.1358C83.9293 15.1087 83.8962 14.5616 83.6509 14.0808C83.5034 13.7988 83.3236 13.6167 83.0122 13.4674C82.8978 13.417 82.6691 13.3348 82.3577 13.3348C82.2102 13.318 81.7197 13.3348 81.245 13.7158C80.4596 14.3292 80.3941 15.2572 80.3775 16.2684V20.3297H78.1348V13.7325C78.1348 12.9698 78.1025 12.4227 78.0694 11.6439H80.2135V12.9865C80.3287 12.8372 80.4099 12.7382 80.5408 12.5888C80.868 12.2238 81.245 12.0249 81.3593 11.9586C82.0138 11.5936 82.5374 11.5114 83.1762 11.5114C83.9947 11.5114 84.5183 11.727 84.8622 11.9419C85.0254 12.0585 85.3037 12.2238 85.5987 12.6719C86.1057 13.3843 86.1223 14.2964 86.1546 15.8874V20.3297H83.945ZM64.9144 10.2534C65.5934 10.2534 66.1438 9.69592 66.1438 9.00825C66.1438 8.32057 65.5934 7.76308 64.9144 7.76308C64.2355 7.76308 63.6851 8.32057 63.6851 9.00825C63.6851 9.69592 64.2355 10.2534 64.9144 10.2534ZM0 22.2418V10.6248C0 10.6248 5.32128 9.63442 8.8533 8.95793C10.9028 8.56577 12.517 9.72228 12.517 12.0177V21.9263C12.517 27.1786 16.1768 30.061 20.29 30.061C24.5924 30.061 27.999 27.1147 27.999 21.9263V9.85726C27.999 6.84698 27.8713 5.41093 30.4688 4.86142C30.9041 4.76957 32.9394 4.39019 32.9394 4.39019V22.2418C32.9394 33.128 26.179 40 16.5017 40C6.445 40 0 33.128 0 22.2418ZM25.1349 4.40537C24.5049 1.40228 21.5903 -0.516188 18.6245 0.122768C15.6587 0.760925 13.7653 3.7145 14.3954 6.71759C15.0254 9.72228 17.9416 11.6391 20.9074 11.0002C23.8732 10.362 25.7658 7.41006 25.1349 4.40537Z" fill="#00358E"/>
</svg>
