<svg width="156" height="48" viewBox="0 0 156 48" fill="none" xmlns="http://www.w3.org/2000/svg">
<path fill-rule="evenodd" clip-rule="evenodd" d="M51.082 42.6769H53.8881V28.6396H51.082V42.6769ZM66.1308 42.6769V37.3477C66.0911 35.4394 66.0712 34.3453 65.4633 33.4908C65.1097 32.9543 64.7769 32.7551 64.5802 32.6162C64.168 32.3575 63.5402 32.0989 62.5588 32.0989C61.794 32.0989 61.1662 32.1985 60.3805 32.6363C60.2434 32.7158 59.7924 32.9543 59.4001 33.3912C59.2431 33.5703 59.1448 33.6891 59.0077 33.8683V32.2579H56.437C56.4758 33.1929 56.5155 33.8491 56.5155 34.763V42.6769H59.2034V37.8056C59.2233 36.5928 59.3017 35.4786 60.2434 34.7439C60.8126 34.2859 61.4016 34.2658 61.5775 34.2859C61.9509 34.2859 62.2251 34.3856 62.3631 34.445C62.7356 34.6241 62.9512 34.8425 63.128 35.1807C63.422 35.7574 63.4617 36.4136 63.4816 37.6465V42.6769H66.1308ZM70.2151 32.2579H67.3107L71.1568 42.6769H74.1586L77.9461 32.2579H75.2582L73.7663 36.8907C73.6292 37.3084 73.5507 37.6264 73.4136 38.0441C73.1385 38.9983 72.9815 39.6746 72.8047 40.6287C72.7262 40.2312 72.6875 39.9524 72.5892 39.5548C72.4908 39.0778 72.3935 38.7597 72.2365 38.2826C72.0786 37.7855 71.9812 37.4272 71.8044 36.9309L70.2151 32.2579ZM88.1882 38.4014C88.2071 38.0441 88.2071 37.7059 88.2071 37.3477C88.2071 34.5446 86.9128 32.0395 83.5763 32.0395C81.7516 32.0395 80.5943 32.8145 79.8285 33.7294C79.6716 33.8884 79.5543 34.0675 79.4361 34.2467C79.4163 34.3061 79.2395 34.6241 79.1223 34.8626C78.8868 35.3991 78.5928 36.2939 78.5928 37.5862C78.5928 40.4103 80.0441 41.9009 81.6731 42.537C82.6743 42.9155 83.6945 42.8953 83.9885 42.8953C85.7159 42.8953 86.7559 42.4575 87.5406 42.1203L87.5009 39.7934C87.4224 39.8336 87.03 40.1114 86.7161 40.2513C85.9314 40.6489 85.0871 40.827 84.3024 40.827C83.4392 40.827 82.2423 40.5885 81.5549 39.4361C81.3006 39.0385 81.2022 38.4618 81.1824 38.4014H88.1882ZM81.1824 36.5133C81.2023 36.314 81.241 35.6377 81.6532 34.9623C82.3207 33.9478 83.4193 33.9478 83.5763 33.9478C83.8117 33.9478 84.6362 33.9679 85.2441 34.8033C85.6563 35.3598 85.7159 35.9365 85.7546 36.5133H81.1824ZM96.9772 32.4964C96.0156 32.278 95.2309 32.0989 94.2694 32.0989C94.0727 32.0989 92.2083 32.0395 90.9924 33.212C90.3051 33.8884 90.1094 34.6241 90.1094 35.3004C90.1094 36.1952 90.4422 36.7709 90.8156 37.1695C91.5616 38.0039 92.4437 38.183 93.5036 38.5806C93.9744 38.7597 94.7601 38.9983 94.7601 39.6938C94.7601 40.3701 94.0141 40.8079 92.9344 40.8079C91.7375 40.8079 90.8355 40.35 90.3637 40.1316L90.2266 42.3981C91.3649 42.6769 92.0911 42.8551 93.2294 42.8551C93.4648 42.8551 94.3668 42.8752 95.1713 42.5974C95.3879 42.5179 96.2113 42.2391 96.8401 41.4239C97.3109 40.8079 97.448 40.1316 97.448 39.5156C97.448 39.1975 97.4281 37.5862 95.7604 36.8112C95.4663 36.6723 95.0343 36.5324 94.3668 36.314C93.7201 36.0956 93.2682 35.9567 92.994 35.7172C92.837 35.5783 92.7585 35.3598 92.7585 35.2008C92.7585 34.4852 93.5234 34.0876 94.6031 34.0876C95.3879 34.0675 95.9958 34.2467 96.8004 34.4852L96.9772 32.4964ZM103.294 29.3351L100.724 30.1704V32.2579H98.7414V34.2859H100.724V38.6601C100.724 38.8594 100.704 39.3163 100.763 39.8336C100.881 40.9267 101.214 41.6231 101.744 42.0801C102.215 42.4978 103.02 42.8359 104.158 42.8359C104.569 42.8359 105.021 42.7756 105.864 42.5572L105.806 40.4295C105.649 40.4697 105.295 40.5885 104.864 40.5885C103.686 40.5885 103.353 39.8528 103.294 38.8594V34.2859H105.707V32.2579H103.294V29.3351ZM123.522 36.4136C123.522 35.5189 123.502 34.6442 123.031 33.7294C122.148 32.0596 120.617 32.0989 120.303 32.0989C120.048 32.0989 118.557 32.0395 117.439 33.2916C117.282 33.4506 117.105 33.6498 116.87 34.0474C116.751 33.7887 116.693 33.6498 116.536 33.3912C115.83 32.3374 114.79 32.0787 113.965 32.0787C113.73 32.0787 112.434 32.0989 111.394 33.0339C111.179 33.212 111.022 33.4113 110.708 33.8491V32.2579H108.157C108.176 32.9735 108.196 33.4908 108.216 34.2064V42.6769H110.884V37.7261C110.884 36.2345 111.081 35.3196 111.845 34.7237C112.317 34.3453 112.827 34.3061 112.984 34.3061C113.082 34.3061 113.533 34.3061 113.906 34.6241C114.573 35.1807 114.554 36.155 114.554 36.7518V42.6769H117.203V38.6802C117.203 38.4014 117.203 38.2031 117.222 37.9445C117.242 37.09 117.242 35.5581 118.145 34.763C118.361 34.5839 118.714 34.3453 119.263 34.3453C119.362 34.3453 119.813 34.3453 120.225 34.6442C120.873 35.1606 120.873 36.0362 120.873 37.3285V42.6769H123.522V36.4136ZM135.289 38.4014C135.309 38.0441 135.309 37.7059 135.309 37.3477C135.309 34.5446 134.117 32.0395 130.782 32.0395C128.957 32.0395 127.695 32.8145 126.929 33.7294C126.772 33.8884 126.655 34.0675 126.537 34.2467C126.518 34.3061 126.341 34.6241 126.223 34.8626C125.987 35.3991 125.693 36.2939 125.693 37.5862C125.693 40.4103 127.146 41.9009 128.774 42.537C129.775 42.9155 130.795 42.8953 131.089 42.8953C132.816 42.8953 133.857 42.4575 134.641 42.1203L134.602 39.7934C134.524 39.8336 134.131 40.1114 133.817 40.2513C133.032 40.6489 132.189 40.827 131.403 40.827C130.54 40.827 129.343 40.5885 128.657 39.4361C128.401 39.0385 128.303 38.4618 128.283 38.4014H135.289ZM128.283 36.5133C128.303 36.314 128.343 35.6377 128.755 34.9623C129.421 33.9478 130.521 33.9478 130.678 33.9478C130.913 33.9478 131.737 33.9679 132.346 34.8033C132.758 35.3598 132.817 35.9365 132.855 36.5133H128.283ZM147.203 42.6769V37.3477C147.163 35.4394 147.143 34.3453 146.535 33.4908C146.181 32.9543 145.849 32.7551 145.652 32.6162C145.24 32.3575 144.612 32.0989 143.631 32.0989C142.866 32.0989 142.238 32.1985 141.453 32.6363C141.315 32.7158 140.864 32.9543 140.472 33.3912C140.315 33.5703 140.217 33.6891 140.079 33.8683V32.2579H137.509C137.548 33.1929 137.587 33.8491 137.587 34.763V42.6769H140.275V37.8056C140.295 36.5928 140.374 35.4786 141.315 34.7439C141.884 34.2859 142.473 34.2658 142.65 34.2859C143.023 34.2859 143.297 34.3856 143.435 34.445C143.807 34.6241 144.023 34.8425 144.2 35.1807C144.495 35.7574 144.534 36.4136 144.553 37.6465V42.6769H147.203ZM153.292 29.3351L150.722 30.1704V32.2579H148.74V34.2859H150.722V38.6601C150.722 38.8594 150.702 39.3163 150.761 39.8336C150.878 40.9267 151.212 41.6231 151.742 42.0801C152.213 42.4978 153.017 42.8359 154.155 42.8359C154.568 42.8359 155.019 42.7756 155.863 42.5572L155.804 40.4295C155.647 40.4697 155.294 40.5885 154.862 40.5885C153.685 40.5885 153.351 39.8528 153.292 38.8594V34.2859H155.706V32.2579H153.292V29.3351ZM62.1372 18.6584C62.1372 19.1153 62.1372 19.5732 62.0984 20.0302C62.0587 20.5868 61.9415 21.1434 61.7448 21.6808C61.5292 22.2173 61.1955 22.7346 60.7833 23.1513C60.3124 23.6293 59.7244 23.9867 59.1155 24.2051C58.2721 24.5241 57.3891 24.6036 56.4862 24.6036C55.3677 24.6036 53.7784 24.4446 52.6401 23.6092C52.3848 23.4301 52.2477 23.271 52.1295 23.1513C51.3259 22.3169 51.0706 21.3225 50.9524 20.4872C50.8541 19.7323 50.8352 19.0157 50.8153 18.2809V10.3469H53.6215V17.8029C53.6413 19.7121 53.6801 20.786 54.5631 21.6607C54.9753 22.0582 55.6428 22.4165 56.6431 22.3964C56.8199 22.3964 57.6047 22.3964 58.2911 21.8992C59.4095 21.0437 59.4492 19.7323 59.4492 18.8174C59.4691 18.599 59.4691 18.4399 59.4691 18.2206V10.3469H62.1372V18.6584ZM74.2078 24.3842V19.0559C74.1681 17.1476 74.1482 16.0536 73.5403 15.1991C73.1867 14.6617 72.8539 14.4634 72.6572 14.3235C72.245 14.0658 71.6172 13.8071 70.6359 13.8071C69.871 13.8071 69.2432 13.9058 68.4575 14.3436C68.3204 14.4231 67.8695 14.6617 67.4771 15.0995C67.3202 15.2786 67.2218 15.3974 67.0847 15.5765V13.9662H64.514C64.5528 14.9002 64.5925 15.5564 64.5925 16.4713V24.3842H67.2804V19.5129C67.3003 18.3001 67.3788 17.1869 68.3204 16.4512C68.8896 15.9942 69.4786 15.9741 69.6545 15.9942C70.0279 15.9942 70.3021 16.0929 70.4401 16.1532C70.8127 16.3324 71.0282 16.5508 71.205 16.889C71.4991 17.4657 71.5388 18.1219 71.5586 19.3539V24.3842H74.2078ZM76.4948 24.3842H79.1639V13.9652H76.4948V24.3842ZM81.016 19.1354C80.9961 22.0975 82.8209 23.7088 84.4102 24.2654C85.038 24.4839 85.6856 24.5634 86.3332 24.5634C86.6282 24.5634 87.5302 24.5634 88.4529 24.2252C90.0224 23.6485 91.6902 22.0582 91.6902 19.1757C91.6902 18.9563 91.6902 18.3997 91.5332 17.7435C91.416 17.1869 90.8856 15.1991 88.7082 14.2248C87.9821 13.9058 87.1577 13.7669 86.3531 13.7669C85.038 13.7669 84.0575 14.1645 83.5271 14.4634C83.3702 14.562 82.9977 14.7613 82.5268 15.1991C81.7421 15.9741 81.0349 17.2664 81.016 19.1354ZM83.8221 19.1153C83.8221 17.7837 84.2731 16.8487 84.8423 16.3515C84.9406 16.2529 85.2346 16.0335 85.5684 15.9147C85.8236 15.8151 86.0978 15.7557 86.3729 15.7557C87.1577 15.7557 87.6285 16.0737 87.9821 16.4311C88.747 17.207 88.8453 18.2407 88.8652 19.0358C88.8841 20.4479 88.5314 21.3819 87.9424 21.9385C87.6484 22.2173 87.1378 22.5554 86.3729 22.5554C86.2349 22.5554 85.7839 22.5554 85.3329 22.3169C85.2148 22.2565 84.9009 22.0784 84.587 21.7C84.2145 21.243 83.8221 20.309 83.8221 19.1153ZM100.646 24.3842V19.3539C100.627 18.1219 100.587 17.4657 100.293 16.889C100.116 16.5508 99.9005 16.3324 99.5271 16.1532C99.39 16.0929 99.1158 15.9942 98.7423 15.9942C98.5655 15.9741 97.9774 15.9942 97.4083 16.4512C96.4666 17.1869 96.3881 18.3001 96.3683 19.5129V24.3842H93.6794V16.4713C93.6794 15.5564 93.6407 14.9002 93.6009 13.9662H96.1716V15.5765C96.3097 15.3974 96.4071 15.2786 96.564 15.0995C96.9564 14.6617 97.4083 14.4231 97.5454 14.3436C98.3301 13.9058 98.9579 13.8071 99.7237 13.8071C100.705 13.8071 101.333 14.0658 101.745 14.3235C101.941 14.4634 102.275 14.6617 102.628 15.1991C103.236 16.0536 103.256 17.1476 103.295 19.0559V24.3842H100.646ZM77.8289 12.2983C78.6429 12.2983 79.3028 11.6296 79.3028 10.8048C79.3028 9.97999 78.6429 9.31132 77.8289 9.31132C77.0148 9.31132 76.3549 9.97999 76.3549 10.8048C76.3549 11.6296 77.0148 12.2983 77.8289 12.2983ZM0 26.6776V12.7438C0 12.7438 6.37993 11.5559 10.6146 10.7445C13.0719 10.2741 15.0072 11.6613 15.0072 14.4145V26.2992C15.0072 32.5989 19.3951 36.0563 24.3265 36.0563C29.4849 36.0563 33.5693 32.5223 33.5693 26.2992V11.8232C33.5693 8.21251 33.4161 6.49006 36.5305 5.83097C37.0524 5.7208 39.4926 5.26576 39.4926 5.26576V26.6776C39.4926 39.735 31.3872 47.9774 19.7846 47.9774C7.7272 47.9774 0 39.735 0 26.6776ZM30.1354 5.28396C29.38 1.68194 25.8856 -0.619135 22.3297 0.147252C18.7739 0.91268 16.5039 4.4553 17.2593 8.05732C18.0147 11.6613 21.511 13.9604 25.0668 13.194C28.6227 12.4286 30.8918 8.88789 30.1354 5.28396Z" fill="#00358E"/>
</svg>
