<svg xmlns="http://www.w3.org/2000/svg" fill="none" viewBox="0 0 32 33">
  <path fill="#fff" d="M15.17 30.66h-7.1a6.21 6.21 0 0 1-6.23-6.26v-7.07h7.1a6.21 6.21 0 0 1 6.23 6.26v7.07ZM3.62 19.12v5.28a4.48 4.48 0 0 0 4.45 4.47h5.32V23.6a4.48 4.48 0 0 0-4.45-4.47H3.62ZM1.84 15.67h7.1a6.21 6.21 0 0 0 6.23-6.26V2.34H1.84v13.33ZM13.39 4.13V9.4a4.48 4.48 0 0 1-4.45 4.47H3.62V4.13h9.77ZM30.16 17.33h-7.1a6.21 6.21 0 0 0-6.23 6.26v7.07h13.33V17.33ZM18.61 28.87V23.6a4.48 4.48 0 0 1 4.45-4.47h5.32v9.75h-9.77Z"/>
  <path fill="#2D9D00" d="M30.16 15.67h-7.1a6.21 6.21 0 0 1-6.23-6.26V2.34h7.1a6.21 6.21 0 0 1 6.23 6.26v7.07ZM18.61 4.13V9.4a4.48 4.48 0 0 0 4.45 4.47h5.32V8.6a4.48 4.48 0 0 0-4.45-4.47h-5.32Z"/>
</svg>

